G04*
G04 #@! TF.GenerationSoftware,Altium Limited,Altium Designer,20.2.6 (244)*
G04*
G04 Layer_Color=8388736*
%FSLAX25Y25*%
%MOIN*%
G70*
G04*
G04 #@! TF.SameCoordinates,8FED6943-84A2-46AE-932A-9FA205965DA7*
G04*
G04*
G04 #@! TF.FilePolarity,Negative*
G04*
G01*
G75*
%ADD56R,0.05512X0.04134*%
%ADD57R,0.04134X0.05512*%
%ADD58R,0.05906X0.05512*%
%ADD59R,0.07087X0.04528*%
%ADD60R,0.03150X0.03937*%
%ADD61R,0.04921X0.05709*%
%ADD62O,0.06102X0.01575*%
%ADD63O,0.01575X0.06102*%
%ADD64R,0.05512X0.05906*%
%ADD65O,0.02756X0.06102*%
%ADD66R,0.08694X0.22394*%
%ADD67R,0.04724X0.06693*%
%ADD68R,0.04134X0.03740*%
%ADD69R,0.03740X0.04134*%
%ADD70R,0.04331X0.03937*%
%ADD71R,0.05709X0.04921*%
%ADD72R,0.03150X0.05118*%
%ADD73R,0.02835X0.05118*%
%ADD74R,0.18898X0.18504*%
%ADD75R,0.02756X0.03937*%
%ADD76R,0.01457X0.03071*%
%ADD77R,0.03071X0.01457*%
%ADD78R,0.11535X0.11535*%
%ADD79R,0.07480X0.22835*%
%ADD80R,0.22835X0.07480*%
%ADD81R,0.07480X0.05512*%
%ADD82R,0.14764X0.06693*%
%ADD83R,0.03937X0.03150*%
%ADD84R,0.03937X0.04331*%
%ADD85R,0.09055X0.02362*%
%ADD86R,0.09843X0.12598*%
%ADD87R,0.07087X0.12795*%
%ADD88R,0.02559X0.02559*%
%ADD89C,0.06394*%
%ADD90R,0.06394X0.06394*%
%ADD91R,0.06394X0.06394*%
%ADD92C,0.30394*%
%ADD93C,0.08268*%
%ADD94R,0.08268X0.08268*%
%ADD95O,0.08661X0.05906*%
%ADD96C,0.27559*%
%ADD97C,0.02756*%
%ADD98C,0.03150*%
D56*
X18307Y306594D02*
D03*
Y299311D02*
D03*
X-121457Y243012D02*
D03*
Y250295D02*
D03*
X-121063Y213484D02*
D03*
Y206201D02*
D03*
X-127559Y236319D02*
D03*
Y229035D02*
D03*
X-140500Y246049D02*
D03*
Y238766D02*
D03*
D57*
X-72342Y253150D02*
D03*
X-65059D02*
D03*
X-64858Y243750D02*
D03*
X-72142D02*
D03*
X-123327Y220669D02*
D03*
X-130610D02*
D03*
X86858Y253750D02*
D03*
X94142D02*
D03*
D58*
X98500Y300600D02*
D03*
Y306900D02*
D03*
X111500Y232600D02*
D03*
Y238900D02*
D03*
X10500Y306400D02*
D03*
Y300100D02*
D03*
X109843Y306890D02*
D03*
Y300591D02*
D03*
D59*
X87795Y300886D02*
D03*
Y312500D02*
D03*
D60*
X-65744Y236250D02*
D03*
X-71256D02*
D03*
D61*
X-97945Y313750D02*
D03*
X-91055D02*
D03*
X65555Y272250D02*
D03*
X72445D02*
D03*
X72555Y292750D02*
D03*
X79445D02*
D03*
X-64000Y208250D02*
D03*
X-70890D02*
D03*
X101055Y220211D02*
D03*
X107945D02*
D03*
D62*
X7866Y282577D02*
D03*
Y280608D02*
D03*
Y278640D02*
D03*
Y276671D02*
D03*
Y274703D02*
D03*
Y272734D02*
D03*
Y270766D02*
D03*
Y268797D02*
D03*
Y266829D02*
D03*
Y264860D02*
D03*
Y262892D02*
D03*
Y260923D02*
D03*
X41134D02*
D03*
Y262892D02*
D03*
Y264860D02*
D03*
Y266829D02*
D03*
Y268797D02*
D03*
Y270766D02*
D03*
Y272734D02*
D03*
Y274703D02*
D03*
Y276671D02*
D03*
Y278640D02*
D03*
Y280608D02*
D03*
Y282577D02*
D03*
D63*
X13673Y255116D02*
D03*
X15642D02*
D03*
X17610D02*
D03*
X19579D02*
D03*
X21547D02*
D03*
X23516D02*
D03*
X25484D02*
D03*
X27453D02*
D03*
X29421D02*
D03*
X31390D02*
D03*
X33358D02*
D03*
X35327D02*
D03*
Y288384D02*
D03*
X33358D02*
D03*
X31390D02*
D03*
X29421D02*
D03*
X27453D02*
D03*
X25484D02*
D03*
X23516D02*
D03*
X21547D02*
D03*
X19579D02*
D03*
X17610D02*
D03*
X15642D02*
D03*
X13673D02*
D03*
D64*
X-96150Y268750D02*
D03*
X-89850D02*
D03*
X43650Y247250D02*
D03*
X37350D02*
D03*
X58650Y284250D02*
D03*
X52350D02*
D03*
X-11650Y265750D02*
D03*
X-5350D02*
D03*
D65*
X-101000Y279022D02*
D03*
X-96000D02*
D03*
X-91000D02*
D03*
X-86000D02*
D03*
X-101000Y300478D02*
D03*
X-96000D02*
D03*
X-91000D02*
D03*
X-86000D02*
D03*
D66*
X-42000Y297449D02*
D03*
Y260049D02*
D03*
D67*
X33500Y359750D02*
D03*
X23500D02*
D03*
X13500D02*
D03*
X3500D02*
D03*
X-6500D02*
D03*
X-16500D02*
D03*
X-26500D02*
D03*
X-36500D02*
D03*
X33500Y323923D02*
D03*
X23500D02*
D03*
X13500D02*
D03*
X3500D02*
D03*
X-6500D02*
D03*
X-16500D02*
D03*
X-26500D02*
D03*
X-36500D02*
D03*
D68*
X-26000Y283309D02*
D03*
Y278191D02*
D03*
X120276Y332531D02*
D03*
Y337650D02*
D03*
X107677Y331532D02*
D03*
Y336650D02*
D03*
X-57500Y337309D02*
D03*
Y332191D02*
D03*
X94437Y331484D02*
D03*
Y336602D02*
D03*
X85000Y189089D02*
D03*
Y183970D02*
D03*
X-57500Y241368D02*
D03*
Y236250D02*
D03*
Y248191D02*
D03*
Y253309D02*
D03*
D69*
X62441Y234250D02*
D03*
X67559D02*
D03*
X154559Y179750D02*
D03*
X149441D02*
D03*
X-15394Y274250D02*
D03*
X-10276D02*
D03*
D70*
X-26000Y262250D02*
D03*
Y267565D02*
D03*
X-26000Y298907D02*
D03*
Y293593D02*
D03*
X119500Y233092D02*
D03*
Y238407D02*
D03*
D71*
X-90000Y204805D02*
D03*
Y211695D02*
D03*
X-112000Y206805D02*
D03*
Y213695D02*
D03*
X-102500Y206805D02*
D03*
Y213695D02*
D03*
X-55000Y208305D02*
D03*
Y215195D02*
D03*
D72*
X-30349Y129628D02*
D03*
X-35605D02*
D03*
X-40841D02*
D03*
X-46097D02*
D03*
X125626Y147372D02*
D03*
X130882D02*
D03*
X136118D02*
D03*
X141374D02*
D03*
X39765Y149978D02*
D03*
X45020D02*
D03*
X50257D02*
D03*
X55513D02*
D03*
X-115626Y128628D02*
D03*
X-120882D02*
D03*
X-126118D02*
D03*
X-131374D02*
D03*
D73*
X-45782Y151872D02*
D03*
X-40723D02*
D03*
X-35723D02*
D03*
X-30664D02*
D03*
X141059Y125128D02*
D03*
X136000D02*
D03*
X131000D02*
D03*
X125941D02*
D03*
X55198Y127734D02*
D03*
X50139D02*
D03*
X45139D02*
D03*
X40080D02*
D03*
X-131059Y150872D02*
D03*
X-126000D02*
D03*
X-121000D02*
D03*
X-115941D02*
D03*
D74*
X-38223Y137856D02*
D03*
X133500Y139144D02*
D03*
X47639Y141750D02*
D03*
X-123500Y136856D02*
D03*
D75*
X137000Y170722D02*
D03*
X133260Y179778D02*
D03*
X140740D02*
D03*
X-61760Y269305D02*
D03*
X-69240D02*
D03*
X-65500Y260250D02*
D03*
D76*
X-111421Y244427D02*
D03*
X-109453D02*
D03*
X-107484D02*
D03*
X-105516D02*
D03*
X-103547D02*
D03*
X-101579D02*
D03*
Y229073D02*
D03*
X-103547D02*
D03*
X-105516D02*
D03*
X-107484D02*
D03*
X-109453D02*
D03*
X-111421D02*
D03*
D77*
X-98823Y241671D02*
D03*
Y239703D02*
D03*
Y237734D02*
D03*
Y235766D02*
D03*
Y233797D02*
D03*
Y231829D02*
D03*
X-114177D02*
D03*
Y233797D02*
D03*
Y235766D02*
D03*
Y237734D02*
D03*
Y239703D02*
D03*
Y241671D02*
D03*
D78*
X-106500Y236750D02*
D03*
D79*
X135945Y221250D02*
D03*
X154055D02*
D03*
D80*
X97000Y286305D02*
D03*
Y268195D02*
D03*
D81*
X-130000Y244541D02*
D03*
Y255959D02*
D03*
D82*
X-23500Y198750D02*
D03*
Y173750D02*
D03*
D83*
X94437Y353299D02*
D03*
Y347787D02*
D03*
X107677Y353346D02*
D03*
Y347835D02*
D03*
X120276D02*
D03*
Y353346D02*
D03*
D84*
X152315Y241250D02*
D03*
X147000D02*
D03*
D85*
X101819Y229186D02*
D03*
Y234186D02*
D03*
Y239186D02*
D03*
Y244186D02*
D03*
X79181Y229186D02*
D03*
Y234186D02*
D03*
Y239186D02*
D03*
Y244186D02*
D03*
D86*
X90500Y236686D02*
D03*
D87*
X144583Y262750D02*
D03*
X117417D02*
D03*
D88*
X149500Y184750D02*
D03*
Y194986D02*
D03*
D89*
X80787Y357283D02*
D03*
X60787D02*
D03*
X70787D02*
D03*
X155500Y307500D02*
D03*
Y297500D02*
D03*
Y317500D02*
D03*
X-128000Y314000D02*
D03*
D90*
X50787Y357283D02*
D03*
D91*
X155500Y287500D02*
D03*
X-128000Y324000D02*
D03*
D92*
X-81500Y74700D02*
D03*
X-31500Y23500D02*
D03*
X81000D02*
D03*
X31000Y74700D02*
D03*
D93*
X-101279Y332565D02*
D03*
Y352250D02*
D03*
D94*
X-87500Y332565D02*
D03*
Y352250D02*
D03*
D95*
X107500Y183970D02*
D03*
Y197750D02*
D03*
X54500Y210092D02*
D03*
Y190408D02*
D03*
X12000Y210092D02*
D03*
Y190408D02*
D03*
D96*
X-147500Y17000D02*
D03*
Y347500D02*
D03*
X147500D02*
D03*
Y17000D02*
D03*
D97*
X16732Y310630D02*
D03*
X110000Y227750D02*
D03*
X-96012Y228486D02*
D03*
X119500Y228750D02*
D03*
X150000Y267750D02*
D03*
X139000Y193250D02*
D03*
X134500D02*
D03*
Y197750D02*
D03*
X139500D02*
D03*
X129500Y193250D02*
D03*
X129000Y202250D02*
D03*
X134500D02*
D03*
X139500D02*
D03*
X-86500Y258250D02*
D03*
X129500Y197250D02*
D03*
X121500Y125250D02*
D03*
X29000Y128750D02*
D03*
X59500Y127750D02*
D03*
X-135000Y150750D02*
D03*
X-50000Y151250D02*
D03*
X105000Y292250D02*
D03*
X90500D02*
D03*
X99500D02*
D03*
X95000D02*
D03*
X86000D02*
D03*
X113500Y227750D02*
D03*
X150000Y257750D02*
D03*
Y262750D02*
D03*
D98*
X-119669Y231250D02*
D03*
X-121063Y202165D02*
D03*
X-135827Y243701D02*
D03*
X46815Y282515D02*
D03*
X-110000Y220250D02*
D03*
X107677Y358268D02*
D03*
X145500Y110500D02*
D03*
X-31500Y137500D02*
D03*
Y141250D02*
D03*
Y144750D02*
D03*
X54500Y142250D02*
D03*
X-32000Y134000D02*
D03*
X-36500D02*
D03*
X-41000D02*
D03*
X-45000D02*
D03*
X94437Y327043D02*
D03*
X10531Y311122D02*
D03*
X-94850Y199955D02*
D03*
X-57500Y231364D02*
D03*
X-69000Y274278D02*
D03*
X12000Y294750D02*
D03*
X-14000Y235750D02*
D03*
X-1000Y299750D02*
D03*
X18596Y278750D02*
D03*
X-84728Y268872D02*
D03*
X-96000Y273750D02*
D03*
X114764Y311811D02*
D03*
X104500Y311750D02*
D03*
X0Y266250D02*
D03*
X-129921Y216142D02*
D03*
X120276Y328091D02*
D03*
X34825Y261575D02*
D03*
X-114500Y261250D02*
D03*
X-116732Y250197D02*
D03*
X93898Y312205D02*
D03*
X-110500Y257250D02*
D03*
X-58000Y327250D02*
D03*
X17500Y261250D02*
D03*
X15000Y264250D02*
D03*
X21500Y282022D02*
D03*
X-17000Y245750D02*
D03*
X-24000Y246750D02*
D03*
X31497Y265199D02*
D03*
X2000Y240250D02*
D03*
X22036Y239214D02*
D03*
X26000Y239250D02*
D03*
X145000Y125750D02*
D03*
X-105500Y256782D02*
D03*
X-101000D02*
D03*
X-49500Y215250D02*
D03*
X50000Y138250D02*
D03*
X45500D02*
D03*
X41000Y142250D02*
D03*
Y138250D02*
D03*
X-99500Y249552D02*
D03*
X-29000Y211250D02*
D03*
X-23500D02*
D03*
X-18000D02*
D03*
X-29000Y207750D02*
D03*
X-23500D02*
D03*
X-29000Y204250D02*
D03*
X-23500D02*
D03*
X-18000Y207750D02*
D03*
X-103000Y220750D02*
D03*
X-119000D02*
D03*
X107677Y326938D02*
D03*
X63500Y284250D02*
D03*
X-21894Y274250D02*
D03*
X-45000Y141250D02*
D03*
X45000Y142250D02*
D03*
X32000Y113750D02*
D03*
Y119250D02*
D03*
X158500Y179750D02*
D03*
X-127000Y261250D02*
D03*
X-16500Y265750D02*
D03*
X-112000Y202250D02*
D03*
X-18000Y204250D02*
D03*
X48500Y247250D02*
D03*
X85000Y192971D02*
D03*
X156500Y241250D02*
D03*
X-21000Y299250D02*
D03*
X-26000Y258250D02*
D03*
X54000Y146250D02*
D03*
X50000Y145750D02*
D03*
X54500Y138250D02*
D03*
X50000Y142250D02*
D03*
X45000Y145750D02*
D03*
X40500D02*
D03*
X-36500Y141250D02*
D03*
Y137500D02*
D03*
X12634Y239116D02*
D03*
X17769Y239017D02*
D03*
X7846Y239026D02*
D03*
X-45000Y137500D02*
D03*
X-41000Y141250D02*
D03*
X-36500Y144750D02*
D03*
X-41000D02*
D03*
X-45000D02*
D03*
X-5000Y299750D02*
D03*
X-9000D02*
D03*
X61500Y239250D02*
D03*
X35500Y241750D02*
D03*
X137000Y165750D02*
D03*
X-61760Y273805D02*
D03*
X120472Y358071D02*
D03*
X94488D02*
D03*
X-130000Y134250D02*
D03*
X-125500D02*
D03*
X-121500D02*
D03*
X-116500Y133750D02*
D03*
X-130000Y138250D02*
D03*
X-125500D02*
D03*
X-121500D02*
D03*
X-116500D02*
D03*
Y142750D02*
D03*
X-121500D02*
D03*
X-125500D02*
D03*
X-130000D02*
D03*
X139000Y110750D02*
D03*
X132500Y110250D02*
D03*
X126500D02*
D03*
X119500D02*
D03*
X145500Y116250D02*
D03*
X139000D02*
D03*
X132500D02*
D03*
X126500D02*
D03*
X119500D02*
D03*
X60000Y113750D02*
D03*
X53000D02*
D03*
X45500D02*
D03*
X38500D02*
D03*
X60000Y119250D02*
D03*
X53000D02*
D03*
X45500D02*
D03*
X38500D02*
D03*
X140328Y133913D02*
D03*
X135500Y133750D02*
D03*
X131000D02*
D03*
X127000D02*
D03*
X140000Y138250D02*
D03*
X135500D02*
D03*
X131000D02*
D03*
X127000D02*
D03*
X131000Y142250D02*
D03*
X140000D02*
D03*
X135500D02*
D03*
X127000D02*
D03*
X-41000Y137500D02*
D03*
X93256Y241017D02*
D03*
X87744D02*
D03*
Y236686D02*
D03*
X93256D02*
D03*
Y232355D02*
D03*
X87744D02*
D03*
M02*
