G04*
G04 #@! TF.GenerationSoftware,Altium Limited,Altium Designer,20.2.6 (244)*
G04*
G04 Layer_Color=255*
%FSLAX25Y25*%
%MOIN*%
G70*
G04*
G04 #@! TF.SameCoordinates,8FED6943-84A2-46AE-932A-9FA205965DA7*
G04*
G04*
G04 #@! TF.FilePolarity,Positive*
G04*
G01*
G75*
%ADD104C,0.06000*%
%ADD105R,0.06000X0.06000*%
%ADD106R,0.06000X0.06000*%
%ADD107C,0.30000*%
%ADD108C,0.07874*%
%ADD109R,0.07874X0.07874*%
%ADD110O,0.08268X0.05512*%
%ADD111C,0.27165*%
D104*
X80787Y357283D02*
D03*
X60787D02*
D03*
X70787D02*
D03*
X155500Y307500D02*
D03*
Y297500D02*
D03*
Y317500D02*
D03*
X-128000Y314000D02*
D03*
D105*
X50787Y357283D02*
D03*
D106*
X155500Y287500D02*
D03*
X-128000Y324000D02*
D03*
D107*
X-81500Y74700D02*
D03*
X-31500Y23500D02*
D03*
X81000D02*
D03*
X31000Y74700D02*
D03*
D108*
X-101279Y332565D02*
D03*
Y352250D02*
D03*
D109*
X-87500Y332565D02*
D03*
Y352250D02*
D03*
D110*
X107500Y183970D02*
D03*
Y197750D02*
D03*
X54500Y210092D02*
D03*
Y190408D02*
D03*
X12000Y210092D02*
D03*
Y190408D02*
D03*
D111*
X-147500Y17000D02*
D03*
Y347500D02*
D03*
X147500D02*
D03*
Y17000D02*
D03*
M02*
