M48
;Layer_Color=9474304
;FILE_FORMAT=2:5
INCH,TZ
;TYPE=PLATED
T1F00S00C0.01181
T2F00S00C0.01575
T3F00S00C0.03150
T4F00S00C0.04000
T5F00S00C0.04331
T6F00S00C0.15591
T7F00S00C0.16535
%
T01
X0.59500Y1.27750
X1.21500Y1.25250
X0.29000Y1.28750
X-0.50000Y1.51250
X-0.60000Y1.86750
X-1.35000Y1.50750
X-1.10437Y2.32813
X-1.06500
Y2.36750
Y2.40687
X-1.02563
Y2.36750
Y2.32813
X-0.96012Y2.28486
X-1.10437Y2.36750
Y2.40687
X-0.78203Y2.39703
X-0.74000Y2.39750
X-0.86500Y2.58250
X-1.07500Y2.79000
X-0.79500Y3.05750
X0.16732Y3.10630
X0.15748Y2.93307
X0.86000Y2.92250
X0.90500
X0.95000
X0.99500
X1.05000
X1.10000Y2.27750
X1.13500
X1.19500Y2.28750
X1.29000Y2.02250
X1.34500
Y1.97750
Y1.93250
X1.39000
X1.39500Y1.97750
Y2.02250
X1.29500Y1.97250
Y1.93250
X1.50000Y2.57750
Y2.62750
Y2.67750
T02
X0.32000Y1.13750
Y1.19250
X0.38500
Y1.13750
X0.45500
Y1.19250
X0.53000
Y1.13750
X0.60000
Y1.19250
X0.54500Y1.38250
Y1.42250
X0.54000Y1.46250
X0.50000Y1.45750
Y1.42250
Y1.38250
X0.45500
X0.41000
Y1.42250
X0.45000
Y1.45750
X0.40500
X1.27000Y1.42250
Y1.38250
X1.31000
Y1.42250
X1.35500
Y1.38250
Y1.33750
X1.31000
X1.27000
X1.40328Y1.33913
X1.40000Y1.38250
Y1.42250
X1.45000Y1.25750
X1.45500Y1.16250
Y1.10500
X1.39000Y1.10750
Y1.16250
X1.32500
Y1.10250
X1.26500
Y1.16250
X1.19500
Y1.10250
X1.37000Y1.65750
X1.58500Y1.79750
X-0.31500Y1.44750
Y1.41250
Y1.37500
X-0.32000Y1.34000
X-0.36500
Y1.37500
Y1.41250
Y1.44750
X-0.41000
Y1.41250
Y1.37500
Y1.34000
X-0.45000
Y1.37500
Y1.41250
Y1.44750
X-1.16500Y1.42750
Y1.38250
Y1.33750
X-1.21500Y1.34250
X-1.25500
Y1.38250
X-1.21500
Y1.42750
X-1.25500
X-1.30000
Y1.38250
Y1.34250
X-1.29921Y2.16142
X-1.35827Y2.43701
X-1.27000Y2.61250
X-1.14500
X-1.10500Y2.57250
X-1.05500Y2.56782
X-1.01000
X-0.99500Y2.49552
X-1.16732Y2.50197
X-1.19669Y2.31250
X-1.19000Y2.20750
X-1.10000Y2.20250
X-1.03000Y2.20750
X-1.12000Y2.02250
X-1.21063Y2.02165
X-0.94850Y1.99955
X-0.49500Y2.15250
X-0.57500Y2.31364
X-0.76646Y2.52900
X-0.84728Y2.68872
X-0.96000Y2.73750
X-0.69000Y2.74278
X-0.61760Y2.73805
X-0.21894Y2.74250
X-0.16500Y2.65750
X0.00000Y2.66250
X0.15000Y2.64250
X0.17500Y2.61250
X0.18596Y2.78750
X0.21500Y2.82022
X0.12000Y2.94750
X0.10531Y3.11122
X-0.01000Y2.99750
X-0.05000
X-0.09000
X-0.21000Y2.99250
X-0.26000Y2.58250
X-0.24000Y2.46750
X-0.17000Y2.45750
X-0.14000Y2.35750
X0.02000Y2.40250
X0.07846Y2.39026
X0.12634Y2.39116
X0.17769Y2.39017
X0.22036Y2.39214
X0.26000Y2.39250
X-0.18000Y2.11250
X-0.18000Y2.07750
X-0.18000Y2.04250
X-0.23500
X-0.23500Y2.07750
X-0.23500Y2.11250
X-0.29000
X-0.29000Y2.07750
X-0.29000Y2.04250
X-0.58000Y3.27250
X0.46815Y2.82515
X0.63500Y2.84250
X0.61000Y2.72250
X0.61500Y2.39250
X0.48500Y2.47250
X0.35500Y2.41750
X0.34825Y2.61575
X0.31497Y2.65199
X0.87744Y2.41017
Y2.36686
Y2.32355
X0.93256
Y2.36686
Y2.41017
X0.85000Y1.92971
X1.56500Y2.41250
X1.14764Y3.11811
X1.04500Y3.11750
X0.93898Y3.12205
X0.94437Y3.27043
X1.07677Y3.26938
X1.20276Y3.28091
X1.20472Y3.58071
X1.07677Y3.58268
X0.94488Y3.58071
T03
X1.07500Y1.83970
X0.12000Y1.90408
Y2.10092
X0.54500
Y1.90408
X1.07500Y1.97750
T04
X-1.28000Y3.14000
Y3.24000
X1.55500Y3.17500
Y3.07500
Y2.97500
Y2.87500
X0.80787Y3.57283
X0.70787
X0.60787
X0.50787
T05
X-1.01279Y3.32565
X-0.87500
Y3.52250
X-1.01279
T06
X-0.31500Y0.23500
X0.81000
X0.31000Y0.74700
X-0.81500
T07
X-1.47500Y0.17000
X1.47500
Y3.47500
X-1.47500
M30
