G04*
G04 #@! TF.GenerationSoftware,Altium Limited,Altium Designer,20.2.6 (244)*
G04*
G04 Layer_Physical_Order=4*
G04 Layer_Color=16711680*
%FSLAX25Y25*%
%MOIN*%
G70*
G04*
G04 #@! TF.SameCoordinates,8FED6943-84A2-46AE-932A-9FA205965DA7*
G04*
G04*
G04 #@! TF.FilePolarity,Positive*
G04*
G01*
G75*
%ADD11C,0.00984*%
%ADD15C,0.01000*%
%ADD98C,0.03150*%
%ADD104C,0.06000*%
%ADD105R,0.06000X0.06000*%
%ADD106R,0.06000X0.06000*%
%ADD107C,0.30000*%
%ADD108C,0.07874*%
%ADD109R,0.07874X0.07874*%
%ADD110O,0.08268X0.05512*%
%ADD111C,0.27165*%
%ADD112C,0.02362*%
%ADD113C,0.02756*%
%ADD114C,0.01968*%
G36*
X149498Y363345D02*
X150389D01*
X152156Y363112D01*
X153878Y362651D01*
X155524Y361969D01*
X157067Y361078D01*
X158481Y359993D01*
X159741Y358733D01*
X160826Y357319D01*
X161717Y355776D01*
X162399Y354129D01*
X162861Y352408D01*
X163093Y350641D01*
Y349750D01*
X163094Y169873D01*
X162741Y169520D01*
X89475D01*
X62217Y196475D01*
X62053Y196583D01*
X61890Y196692D01*
X61887Y196693D01*
X61885Y196694D01*
X61692Y196731D01*
X61500Y196770D01*
X5500D01*
X5110Y196692D01*
X4779Y196471D01*
X4558Y196140D01*
X4480Y195750D01*
X4480Y182000D01*
X4558Y181610D01*
X4779Y181279D01*
X8980Y177078D01*
Y169649D01*
X8480Y169382D01*
X8390Y169442D01*
X8000Y169520D01*
X-58500D01*
X-58890Y169442D01*
X-59221Y169221D01*
X-59779D01*
X-60110Y169442D01*
X-60500Y169520D01*
X-150498D01*
X-150888Y169442D01*
X-151219Y169221D01*
X-151440Y168890D01*
X-151518Y168500D01*
X-151518Y55250D01*
X-151440Y54860D01*
X-151219Y54529D01*
X-150888Y54308D01*
X-150498Y54230D01*
X-60500Y54230D01*
X-60110Y54308D01*
X-60020Y54368D01*
X-59520Y54101D01*
Y5500D01*
X-59442Y5110D01*
X-59221Y4779D01*
X-58890Y4558D01*
X-58500Y4480D01*
X8000D01*
X8390Y4558D01*
X8721Y4779D01*
X8942Y5110D01*
X9020Y5500D01*
X9020Y53851D01*
X9520Y54118D01*
X9610Y54058D01*
X10000Y53980D01*
X162741Y53980D01*
X163095Y53690D01*
X163095Y15000D01*
Y14109D01*
X162863Y12342D01*
X162401Y10621D01*
X161719Y8974D01*
X160828Y7431D01*
X159743Y6017D01*
X158483Y4757D01*
X157069Y3672D01*
X155526Y2781D01*
X153879Y2099D01*
X152158Y1637D01*
X150391Y1405D01*
X-151387D01*
X-153154Y1637D01*
X-154876Y2099D01*
X-156522Y2781D01*
X-158066Y3672D01*
X-159479Y4757D01*
X-160740Y6017D01*
X-161825Y7431D01*
X-162716Y8974D01*
X-163398Y10621D01*
X-163859Y12342D01*
X-164092Y14111D01*
X-164095Y15002D01*
X-164093Y349750D01*
Y350641D01*
X-163861Y352408D01*
X-163399Y354129D01*
X-162717Y355776D01*
X-161826Y357319D01*
X-160741Y358733D01*
X-159481Y359993D01*
X-158067Y361078D01*
X-156524Y361969D01*
X-154878Y362651D01*
X-153156Y363112D01*
X-151389Y363345D01*
X-150498Y363345D01*
X149498Y363345D01*
D02*
G37*
G36*
X-60500Y55250D02*
X-150498Y55250D01*
X-150498Y168500D01*
X-60500D01*
Y55250D01*
D02*
G37*
G36*
X89056Y168500D02*
X163094D01*
X163095Y55354D01*
X162741Y55000D01*
X10000Y55000D01*
Y96980D01*
X65000D01*
X65390Y97058D01*
X65721Y97279D01*
X65942Y97610D01*
X66020Y98000D01*
Y124000D01*
X65942Y124390D01*
X65721Y124721D01*
X65390Y124942D01*
X65000Y125020D01*
X10000D01*
Y177500D01*
X5500Y182000D01*
X5500Y195750D01*
X61500D01*
X89056Y168500D01*
D02*
G37*
G36*
X8000Y124000D02*
X65000D01*
Y98000D01*
X8000D01*
X8000Y5500D01*
X-58500D01*
X-58500Y168500D01*
X8000D01*
Y124000D01*
D02*
G37*
%LPC*%
G36*
X82037Y361095D02*
Y358534D01*
X84599D01*
X84281Y359301D01*
X83640Y360136D01*
X82805Y360777D01*
X82037Y361095D01*
D02*
G37*
G36*
X79537D02*
X78770Y360777D01*
X77935Y360136D01*
X77293Y359301D01*
X76976Y358534D01*
X79537D01*
Y361095D01*
D02*
G37*
G36*
X84599Y356033D02*
X82037D01*
Y353472D01*
X82805Y353789D01*
X83640Y354431D01*
X84281Y355266D01*
X84599Y356033D01*
D02*
G37*
G36*
X79537D02*
X76976D01*
X77293Y355266D01*
X77935Y354431D01*
X78770Y353789D01*
X79537Y353472D01*
Y356033D01*
D02*
G37*
G36*
X54787Y361283D02*
X46787D01*
Y353284D01*
X54787D01*
Y361283D01*
D02*
G37*
G36*
X70787Y361318D02*
X69743Y361180D01*
X68770Y360777D01*
X67935Y360136D01*
X67293Y359301D01*
X66890Y358328D01*
X66753Y357283D01*
X66890Y356239D01*
X67293Y355266D01*
X67935Y354431D01*
X68770Y353789D01*
X69743Y353386D01*
X70787Y353249D01*
X71832Y353386D01*
X72805Y353789D01*
X73640Y354431D01*
X74281Y355266D01*
X74685Y356239D01*
X74822Y357283D01*
X74685Y358328D01*
X74281Y359301D01*
X73640Y360136D01*
X72805Y360777D01*
X71832Y361180D01*
X70787Y361318D01*
D02*
G37*
G36*
X60787D02*
X59743Y361180D01*
X58770Y360777D01*
X57935Y360136D01*
X57293Y359301D01*
X56890Y358328D01*
X56753Y357283D01*
X56890Y356239D01*
X57293Y355266D01*
X57935Y354431D01*
X58770Y353789D01*
X59743Y353386D01*
X60787Y353249D01*
X61832Y353386D01*
X62805Y353789D01*
X63640Y354431D01*
X64281Y355266D01*
X64684Y356239D01*
X64822Y357283D01*
X64684Y358328D01*
X64281Y359301D01*
X63640Y360136D01*
X62805Y360777D01*
X61832Y361180D01*
X60787Y361318D01*
D02*
G37*
G36*
X-82563Y357187D02*
X-92437D01*
Y347313D01*
X-82563D01*
Y357187D01*
D02*
G37*
G36*
X-101279Y357230D02*
X-102568Y357060D01*
X-103769Y356562D01*
X-104801Y355771D01*
X-105592Y354740D01*
X-106089Y353539D01*
X-106259Y352250D01*
X-106089Y350961D01*
X-105592Y349760D01*
X-104801Y348729D01*
X-103769Y347937D01*
X-102568Y347440D01*
X-101279Y347270D01*
X-99991Y347440D01*
X-98790Y347937D01*
X-97758Y348729D01*
X-96967Y349760D01*
X-96470Y350961D01*
X-96300Y352250D01*
X-96470Y353539D01*
X-96967Y354740D01*
X-97758Y355771D01*
X-98790Y356562D01*
X-99991Y357060D01*
X-101279Y357230D01*
D02*
G37*
G36*
X-82563Y337502D02*
X-92437D01*
Y327628D01*
X-82563D01*
Y337502D01*
D02*
G37*
G36*
X-101279Y337545D02*
X-102568Y337375D01*
X-103769Y336877D01*
X-104801Y336086D01*
X-105592Y335055D01*
X-106089Y333854D01*
X-106259Y332565D01*
X-106089Y331276D01*
X-105592Y330075D01*
X-104801Y329044D01*
X-103769Y328253D01*
X-102568Y327755D01*
X-101279Y327585D01*
X-99991Y327755D01*
X-98790Y328253D01*
X-97758Y329044D01*
X-96967Y330075D01*
X-96470Y331276D01*
X-96300Y332565D01*
X-96470Y333854D01*
X-96967Y335055D01*
X-97758Y336086D01*
X-98790Y336877D01*
X-99991Y337375D01*
X-101279Y337545D01*
D02*
G37*
G36*
X120276Y330515D02*
X119348Y330330D01*
X118561Y329805D01*
X118036Y329018D01*
X117851Y328091D01*
X118036Y327163D01*
X118561Y326376D01*
X119348Y325851D01*
X120276Y325666D01*
X121203Y325851D01*
X121990Y326376D01*
X122516Y327163D01*
X122700Y328091D01*
X122516Y329018D01*
X121990Y329805D01*
X121203Y330330D01*
X120276Y330515D01*
D02*
G37*
G36*
X-58000Y329675D02*
X-58928Y329490D01*
X-59714Y328964D01*
X-60240Y328178D01*
X-60425Y327250D01*
X-60240Y326322D01*
X-59714Y325536D01*
X-58928Y325010D01*
X-58000Y324825D01*
X-57072Y325010D01*
X-56286Y325536D01*
X-55760Y326322D01*
X-55576Y327250D01*
X-55760Y328178D01*
X-56286Y328964D01*
X-57072Y329490D01*
X-58000Y329675D01*
D02*
G37*
G36*
X94437Y329468D02*
X93509Y329283D01*
X92723Y328758D01*
X92594Y328565D01*
X70793D01*
X70211Y328449D01*
X69718Y328119D01*
X30450Y288852D01*
X30416Y288829D01*
X30084Y288333D01*
X29968Y287747D01*
Y267037D01*
X29783Y266914D01*
X29257Y266127D01*
X29073Y265199D01*
X29257Y264271D01*
X29783Y263485D01*
X30569Y262959D01*
X31497Y262775D01*
X32268Y262928D01*
X32594Y262517D01*
X32585Y262502D01*
X32400Y261575D01*
X32585Y260647D01*
X33110Y259860D01*
X33897Y259335D01*
X34825Y259150D01*
X35752Y259335D01*
X36539Y259860D01*
X37065Y260647D01*
X37249Y261575D01*
X37065Y262502D01*
X36539Y263289D01*
X36354Y263413D01*
Y284691D01*
X69884Y318221D01*
X100489D01*
X101075Y318337D01*
X101571Y318669D01*
X107459Y324557D01*
X107677Y324513D01*
X108605Y324698D01*
X109392Y325224D01*
X109917Y326010D01*
X110102Y326938D01*
X109917Y327866D01*
X109392Y328652D01*
X108605Y329178D01*
X107677Y329363D01*
X106749Y329178D01*
X105963Y328652D01*
X105437Y327866D01*
X105253Y326938D01*
X105296Y326720D01*
X99856Y321279D01*
X69250D01*
X68665Y321163D01*
X68169Y320831D01*
X33743Y286406D01*
X33527Y286082D01*
X33027Y286234D01*
Y287125D01*
X71424Y325522D01*
X92594D01*
X92723Y325329D01*
X93509Y324803D01*
X94437Y324619D01*
X95365Y324803D01*
X96151Y325329D01*
X96677Y326115D01*
X96861Y327043D01*
X96677Y327971D01*
X96151Y328758D01*
X95365Y329283D01*
X94437Y329468D01*
D02*
G37*
G36*
X-124000Y328000D02*
X-132000D01*
Y320000D01*
X-124000D01*
Y328000D01*
D02*
G37*
G36*
X156750Y321312D02*
Y318750D01*
X159312D01*
X158994Y319517D01*
X158353Y320353D01*
X157517Y320994D01*
X156750Y321312D01*
D02*
G37*
G36*
X154250Y321312D02*
X153483Y320994D01*
X152647Y320353D01*
X152006Y319517D01*
X151688Y318750D01*
X154250D01*
Y321312D01*
D02*
G37*
G36*
Y316250D02*
X151688D01*
X152006Y315483D01*
X152647Y314647D01*
X153483Y314006D01*
X154250Y313688D01*
Y316250D01*
D02*
G37*
G36*
X159312D02*
X156750D01*
Y313688D01*
X157517Y314006D01*
X158353Y314647D01*
X158994Y315483D01*
X159312Y316250D01*
D02*
G37*
G36*
X-128000Y318035D02*
X-129044Y317897D01*
X-130017Y317494D01*
X-130853Y316853D01*
X-131494Y316017D01*
X-131897Y315044D01*
X-132035Y314000D01*
X-131897Y312956D01*
X-131494Y311983D01*
X-130853Y311147D01*
X-130017Y310506D01*
X-129044Y310103D01*
X-128000Y309965D01*
X-126956Y310103D01*
X-125983Y310506D01*
X-125147Y311147D01*
X-124506Y311983D01*
X-124103Y312956D01*
X-123966Y314000D01*
X-124103Y315044D01*
X-124506Y316017D01*
X-125147Y316853D01*
X-125983Y317494D01*
X-126956Y317897D01*
X-128000Y318035D01*
D02*
G37*
G36*
X155500Y311535D02*
X154456Y311397D01*
X153483Y310994D01*
X152647Y310353D01*
X152006Y309517D01*
X151603Y308544D01*
X151465Y307500D01*
X151603Y306456D01*
X152006Y305483D01*
X152647Y304647D01*
X153483Y304006D01*
X154456Y303603D01*
X155500Y303466D01*
X156544Y303603D01*
X157517Y304006D01*
X158353Y304647D01*
X158994Y305483D01*
X159397Y306456D01*
X159535Y307500D01*
X159397Y308544D01*
X158994Y309517D01*
X158353Y310353D01*
X157517Y310994D01*
X156544Y311397D01*
X155500Y311535D01*
D02*
G37*
G36*
Y301535D02*
X154456Y301397D01*
X153483Y300994D01*
X152647Y300353D01*
X152006Y299517D01*
X151603Y298544D01*
X151465Y297500D01*
X151603Y296456D01*
X152006Y295483D01*
X152647Y294647D01*
X153483Y294006D01*
X154456Y293603D01*
X155500Y293465D01*
X156544Y293603D01*
X157517Y294006D01*
X158353Y294647D01*
X158994Y295483D01*
X159397Y296456D01*
X159535Y297500D01*
X159397Y298544D01*
X158994Y299517D01*
X158353Y300353D01*
X157517Y300994D01*
X156544Y301397D01*
X155500Y301535D01*
D02*
G37*
G36*
X99500Y294474D02*
X98649Y294305D01*
X97927Y293823D01*
X97528Y293224D01*
X97409Y293193D01*
X97091D01*
X96972Y293224D01*
X96573Y293823D01*
X95851Y294305D01*
X95000Y294474D01*
X94149Y294305D01*
X93427Y293823D01*
X93028Y293224D01*
X92909Y293193D01*
X92591D01*
X92472Y293224D01*
X92072Y293823D01*
X91351Y294305D01*
X90500Y294474D01*
X89649Y294305D01*
X88928Y293823D01*
X88528Y293224D01*
X88409Y293193D01*
X88091D01*
X87972Y293224D01*
X87572Y293823D01*
X86851Y294305D01*
X86000Y294474D01*
X85149Y294305D01*
X84427Y293823D01*
X83946Y293101D01*
X83776Y292250D01*
X83946Y291399D01*
X84427Y290677D01*
X85149Y290195D01*
X86000Y290026D01*
X86851Y290195D01*
X87572Y290677D01*
X87972Y291276D01*
X88091Y291307D01*
X88409D01*
X88528Y291276D01*
X88928Y290677D01*
X89649Y290195D01*
X90500Y290026D01*
X91351Y290195D01*
X92072Y290677D01*
X92472Y291276D01*
X92591Y291307D01*
X92909D01*
X93028Y291276D01*
X93427Y290677D01*
X94149Y290195D01*
X95000Y290026D01*
X95851Y290195D01*
X96573Y290677D01*
X96972Y291276D01*
X97091Y291307D01*
X97409D01*
X97528Y291276D01*
X97927Y290677D01*
X98649Y290195D01*
X99500Y290026D01*
X100351Y290195D01*
X101073Y290677D01*
X101555Y291399D01*
X101724Y292250D01*
X101555Y293101D01*
X101073Y293823D01*
X100351Y294305D01*
X99500Y294474D01*
D02*
G37*
G36*
X105000D02*
X104149Y294305D01*
X103428Y293823D01*
X102945Y293101D01*
X102776Y292250D01*
X102945Y291399D01*
X103428Y290677D01*
X104149Y290195D01*
X105000Y290026D01*
X105851Y290195D01*
X106572Y290677D01*
X107054Y291399D01*
X107224Y292250D01*
X107054Y293101D01*
X106572Y293823D01*
X105851Y294305D01*
X105000Y294474D01*
D02*
G37*
G36*
X159500Y291500D02*
X151500D01*
Y283500D01*
X159500D01*
Y291500D01*
D02*
G37*
G36*
X46815Y284940D02*
X45888Y284755D01*
X45101Y284230D01*
X44575Y283443D01*
X44391Y282515D01*
X44575Y281588D01*
X45101Y280801D01*
X45888Y280275D01*
X46815Y280091D01*
X47743Y280275D01*
X48530Y280801D01*
X49055Y281588D01*
X49240Y282515D01*
X49055Y283443D01*
X48530Y284230D01*
X47743Y284755D01*
X46815Y284940D01*
D02*
G37*
G36*
X-79500Y307974D02*
X-80351Y307805D01*
X-81072Y307323D01*
X-81555Y306601D01*
X-81724Y305750D01*
X-81555Y304899D01*
X-81072Y304177D01*
X-80351Y303695D01*
X-79500Y303526D01*
X-78993Y303627D01*
X-78747Y303166D01*
X-101383Y280529D01*
X-105899D01*
X-105928Y280573D01*
X-106649Y281055D01*
X-107500Y281224D01*
X-108351Y281055D01*
X-109072Y280573D01*
X-109555Y279851D01*
X-109724Y279000D01*
X-109555Y278149D01*
X-109072Y277428D01*
X-108351Y276945D01*
X-107500Y276776D01*
X-106649Y276945D01*
X-105928Y277428D01*
X-105899Y277471D01*
X-100750D01*
X-100165Y277587D01*
X-99669Y277919D01*
X-75867Y301721D01*
X-11145D01*
X-10877Y301221D01*
X-11240Y300678D01*
X-11424Y299750D01*
X-11240Y298822D01*
X-10714Y298036D01*
X-10529Y297912D01*
Y294250D01*
X-10413Y293665D01*
X-10081Y293169D01*
X16014Y267073D01*
X15996Y266978D01*
X15423Y266590D01*
X15000Y266674D01*
X14072Y266490D01*
X13286Y265964D01*
X12760Y265178D01*
X12575Y264250D01*
X12619Y264032D01*
X-634Y250779D01*
X-21500D01*
X-22085Y250663D01*
X-22581Y250331D01*
X-23782Y249131D01*
X-24000Y249174D01*
X-24928Y248990D01*
X-25714Y248464D01*
X-26240Y247678D01*
X-26425Y246750D01*
X-26240Y245822D01*
X-25714Y245036D01*
X-24928Y244510D01*
X-24000Y244325D01*
X-23072Y244510D01*
X-22286Y245036D01*
X-21760Y245822D01*
X-21576Y246750D01*
X-21619Y246968D01*
X-20866Y247721D01*
X-19145D01*
X-18877Y247221D01*
X-19240Y246678D01*
X-19424Y245750D01*
X-19240Y244822D01*
X-18714Y244036D01*
X-17928Y243510D01*
X-17000Y243325D01*
X-16072Y243510D01*
X-15286Y244036D01*
X-15162Y244221D01*
X-1846D01*
X-1654Y243759D01*
X-16718Y228695D01*
X-56363D01*
X-56467Y229195D01*
X-55786Y229650D01*
X-55260Y230436D01*
X-55076Y231364D01*
X-55260Y232292D01*
X-55786Y233079D01*
X-56572Y233604D01*
X-57500Y233789D01*
X-58428Y233604D01*
X-59214Y233079D01*
X-59338Y232894D01*
X-98386D01*
X-98971Y232777D01*
X-99467Y232446D01*
X-101634Y230279D01*
X-116367D01*
X-117260Y231173D01*
X-117244Y231250D01*
X-117429Y232178D01*
X-117955Y232964D01*
X-118741Y233490D01*
X-119669Y233675D01*
X-120597Y233490D01*
X-121383Y232964D01*
X-121909Y232178D01*
X-122093Y231250D01*
X-121909Y230322D01*
X-121383Y229536D01*
X-120597Y229010D01*
X-119669Y228825D01*
X-119310Y228897D01*
X-118081Y227669D01*
X-117585Y227337D01*
X-117000Y227221D01*
X-101000D01*
X-100415Y227337D01*
X-99919Y227669D01*
X-98657Y228930D01*
X-98196Y228684D01*
X-98236Y228486D01*
X-98066Y227635D01*
X-97584Y226914D01*
X-96863Y226432D01*
X-96480Y226356D01*
X-96370Y226139D01*
X-96336Y225817D01*
X-96380Y225779D01*
X-106000D01*
X-106585Y225663D01*
X-107081Y225331D01*
X-109782Y222631D01*
X-110000Y222674D01*
X-110928Y222490D01*
X-111714Y221964D01*
X-112240Y221178D01*
X-112425Y220250D01*
X-112240Y219322D01*
X-111714Y218536D01*
X-110928Y218010D01*
X-110000Y217825D01*
X-109072Y218010D01*
X-108286Y218536D01*
X-107760Y219322D01*
X-107576Y220250D01*
X-107619Y220468D01*
X-105587Y222500D01*
X-105314Y222467D01*
X-105069Y221934D01*
X-105240Y221678D01*
X-105424Y220750D01*
X-105240Y219822D01*
X-104714Y219036D01*
X-103928Y218510D01*
X-103000Y218325D01*
X-102072Y218510D01*
X-101286Y219036D01*
X-101162Y219221D01*
X-10430D01*
X-9845Y219337D01*
X-9348Y219669D01*
X7627Y236645D01*
X7846Y236601D01*
X8774Y236786D01*
X9560Y237311D01*
X9974Y237931D01*
X10489Y237976D01*
X10548Y237958D01*
X10920Y237402D01*
X11706Y236876D01*
X12634Y236691D01*
X13562Y236876D01*
X14348Y237402D01*
X14874Y238188D01*
X14937Y238504D01*
X15447D01*
X15529Y238089D01*
X16055Y237303D01*
X16841Y236777D01*
X17769Y236593D01*
X18697Y236777D01*
X19483Y237303D01*
X19718Y237654D01*
X20218D01*
X20322Y237500D01*
X21108Y236974D01*
X22036Y236790D01*
X22964Y236974D01*
X23721Y237480D01*
X23863Y237544D01*
X24280D01*
X24286Y237536D01*
X25072Y237010D01*
X26000Y236825D01*
X26928Y237010D01*
X27714Y237536D01*
X28240Y238322D01*
X28425Y239250D01*
X28240Y240178D01*
X27714Y240964D01*
X27529Y241088D01*
Y265871D01*
X27413Y266457D01*
X27081Y266953D01*
X18125Y275909D01*
X18371Y276370D01*
X18596Y276325D01*
X19523Y276510D01*
X20310Y277036D01*
X20836Y277822D01*
X21020Y278750D01*
X20931Y279201D01*
X21356Y279626D01*
X21500Y279597D01*
X22428Y279782D01*
X23214Y280307D01*
X23740Y281094D01*
X23924Y282022D01*
X23740Y282949D01*
X23214Y283736D01*
X23029Y283860D01*
Y297750D01*
X22913Y298335D01*
X22581Y298831D01*
X14581Y306831D01*
X14085Y307163D01*
X13500Y307279D01*
X-77899D01*
X-77928Y307323D01*
X-78649Y307805D01*
X-79500Y307974D01*
D02*
G37*
G36*
X-21894Y276675D02*
X-22821Y276490D01*
X-23608Y275964D01*
X-24134Y275178D01*
X-24318Y274250D01*
X-24134Y273322D01*
X-23608Y272536D01*
X-22821Y272010D01*
X-21894Y271825D01*
X-20966Y272010D01*
X-20179Y272536D01*
X-19654Y273322D01*
X-19469Y274250D01*
X-19654Y275178D01*
X-20179Y275964D01*
X-20966Y276490D01*
X-21894Y276675D01*
D02*
G37*
G36*
X-61760Y276230D02*
X-62688Y276045D01*
X-63474Y275519D01*
X-64000Y274733D01*
X-64184Y273805D01*
X-64000Y272877D01*
X-63474Y272091D01*
X-62688Y271565D01*
X-61760Y271381D01*
X-60832Y271565D01*
X-60045Y272091D01*
X-59520Y272877D01*
X-59335Y273805D01*
X-59520Y274733D01*
X-60045Y275519D01*
X-60832Y276045D01*
X-61760Y276230D01*
D02*
G37*
G36*
X110000Y286417D02*
X84000D01*
Y268701D01*
X110000D01*
Y286417D01*
D02*
G37*
G36*
X-84728Y271297D02*
X-85656Y271112D01*
X-86443Y270586D01*
X-86968Y269800D01*
X-87153Y268872D01*
X-86968Y267944D01*
X-86443Y267158D01*
X-85656Y266632D01*
X-84728Y266447D01*
X-83801Y266632D01*
X-83014Y267158D01*
X-82488Y267944D01*
X-82304Y268872D01*
X-82488Y269800D01*
X-83014Y270586D01*
X-83801Y271112D01*
X-84728Y271297D01*
D02*
G37*
G36*
X0Y268674D02*
X-928Y268490D01*
X-1714Y267964D01*
X-2240Y267178D01*
X-2424Y266250D01*
X-2240Y265322D01*
X-1714Y264536D01*
X-928Y264010D01*
X0Y263825D01*
X928Y264010D01*
X1714Y264536D01*
X2240Y265322D01*
X2424Y266250D01*
X2240Y267178D01*
X1714Y267964D01*
X928Y268490D01*
X0Y268674D01*
D02*
G37*
G36*
X-114500Y263674D02*
X-115428Y263490D01*
X-116214Y262964D01*
X-116740Y262178D01*
X-116925Y261250D01*
X-116740Y260322D01*
X-116214Y259536D01*
X-115428Y259010D01*
X-114500Y258825D01*
X-113572Y259010D01*
X-112786Y259536D01*
X-112260Y260322D01*
X-112075Y261250D01*
X-112260Y262178D01*
X-112786Y262964D01*
X-113572Y263490D01*
X-114500Y263674D01*
D02*
G37*
G36*
X-86500Y260474D02*
X-87351Y260304D01*
X-88073Y259823D01*
X-88555Y259101D01*
X-88724Y258250D01*
X-88555Y257399D01*
X-88073Y256678D01*
X-87351Y256195D01*
X-86500Y256026D01*
X-85649Y256195D01*
X-84927Y256678D01*
X-84446Y257399D01*
X-84276Y258250D01*
X-84446Y259101D01*
X-84927Y259823D01*
X-85649Y260304D01*
X-86500Y260474D01*
D02*
G37*
G36*
X-110500Y259675D02*
X-111428Y259490D01*
X-112214Y258964D01*
X-112740Y258178D01*
X-112925Y257250D01*
X-112740Y256322D01*
X-112214Y255536D01*
X-111428Y255010D01*
X-110500Y254825D01*
X-109572Y255010D01*
X-108786Y255536D01*
X-108324Y256226D01*
X-107930Y256215D01*
X-107804Y256174D01*
X-107740Y255854D01*
X-107214Y255067D01*
X-106428Y254541D01*
X-105500Y254357D01*
X-104572Y254541D01*
X-103786Y255067D01*
X-103551Y255419D01*
X-102949D01*
X-102714Y255067D01*
X-101928Y254541D01*
X-101000Y254357D01*
X-100072Y254541D01*
X-99286Y255067D01*
X-98760Y255854D01*
X-98576Y256782D01*
X-98760Y257709D01*
X-99286Y258496D01*
X-100072Y259021D01*
X-101000Y259206D01*
X-101928Y259021D01*
X-102714Y258496D01*
X-102949Y258144D01*
X-103551D01*
X-103786Y258496D01*
X-104572Y259021D01*
X-105500Y259206D01*
X-106428Y259021D01*
X-107214Y258496D01*
X-107676Y257805D01*
X-108070Y257817D01*
X-108196Y257858D01*
X-108260Y258178D01*
X-108786Y258964D01*
X-109572Y259490D01*
X-110500Y259675D01*
D02*
G37*
G36*
X-76646Y255324D02*
X-77574Y255140D01*
X-78360Y254614D01*
X-78886Y253828D01*
X-79070Y252900D01*
X-78886Y251972D01*
X-78360Y251185D01*
X-77574Y250660D01*
X-76646Y250475D01*
X-75718Y250660D01*
X-74931Y251185D01*
X-74406Y251972D01*
X-74221Y252900D01*
X-74406Y253828D01*
X-74931Y254614D01*
X-75718Y255140D01*
X-76646Y255324D01*
D02*
G37*
G36*
X-99500Y251976D02*
X-100428Y251792D01*
X-101214Y251266D01*
X-101740Y250480D01*
X-101925Y249552D01*
X-101740Y248624D01*
X-101214Y247837D01*
X-100428Y247312D01*
X-99500Y247127D01*
X-98572Y247312D01*
X-97786Y247837D01*
X-97260Y248624D01*
X-97075Y249552D01*
X-97260Y250480D01*
X-97786Y251266D01*
X-98572Y251792D01*
X-99500Y251976D01*
D02*
G37*
G36*
X-135827Y246125D02*
X-136755Y245941D01*
X-137541Y245415D01*
X-138067Y244629D01*
X-138251Y243701D01*
X-138067Y242773D01*
X-137541Y241986D01*
X-136755Y241461D01*
X-135827Y241276D01*
X-134899Y241461D01*
X-134112Y241986D01*
X-133587Y242773D01*
X-133402Y243701D01*
X-133587Y244629D01*
X-134112Y245415D01*
X-134899Y245941D01*
X-135827Y246125D01*
D02*
G37*
G36*
X35500Y244175D02*
X34572Y243990D01*
X33786Y243464D01*
X33260Y242678D01*
X33075Y241750D01*
X33260Y240822D01*
X33786Y240036D01*
X34572Y239510D01*
X35500Y239325D01*
X36428Y239510D01*
X37214Y240036D01*
X37740Y240822D01*
X37925Y241750D01*
X37740Y242678D01*
X37214Y243464D01*
X36428Y243990D01*
X35500Y244175D01*
D02*
G37*
G36*
X-78203Y241927D02*
X-79054Y241757D01*
X-79775Y241275D01*
X-80257Y240554D01*
X-80427Y239703D01*
X-80257Y238852D01*
X-79775Y238130D01*
X-79054Y237648D01*
X-78203Y237479D01*
X-77352Y237648D01*
X-76630Y238130D01*
X-76148Y238852D01*
X-75979Y239703D01*
X-76148Y240554D01*
X-76630Y241275D01*
X-77352Y241757D01*
X-78203Y241927D01*
D02*
G37*
G36*
X-69000Y276702D02*
X-69928Y276518D01*
X-70714Y275992D01*
X-71240Y275205D01*
X-71425Y274278D01*
X-71240Y273350D01*
X-70714Y272563D01*
X-69928Y272038D01*
X-69020Y271857D01*
X-31831Y234669D01*
X-31335Y234337D01*
X-30750Y234221D01*
X-15838D01*
X-15714Y234036D01*
X-14928Y233510D01*
X-14000Y233326D01*
X-13072Y233510D01*
X-12286Y234036D01*
X-11760Y234822D01*
X-11575Y235750D01*
X-11760Y236678D01*
X-12286Y237464D01*
X-13072Y237990D01*
X-14000Y238175D01*
X-14928Y237990D01*
X-15714Y237464D01*
X-15838Y237279D01*
X-30117D01*
X-66665Y273828D01*
X-66575Y274278D01*
X-66760Y275205D01*
X-67286Y275992D01*
X-68072Y276518D01*
X-69000Y276702D01*
D02*
G37*
G36*
X55878Y213881D02*
X55750D01*
Y211343D01*
X59425D01*
X59159Y211987D01*
X58557Y212771D01*
X57772Y213373D01*
X56858Y213752D01*
X55878Y213881D01*
D02*
G37*
G36*
X13378D02*
X13250D01*
Y211343D01*
X16926D01*
X16659Y211987D01*
X16057Y212771D01*
X15272Y213373D01*
X14358Y213752D01*
X13378Y213881D01*
D02*
G37*
G36*
X53250D02*
X53122D01*
X52142Y213752D01*
X51228Y213373D01*
X50443Y212771D01*
X49841Y211987D01*
X49575Y211343D01*
X53250D01*
Y213881D01*
D02*
G37*
G36*
X10750D02*
X10622D01*
X9642Y213752D01*
X8728Y213373D01*
X7943Y212771D01*
X7341Y211987D01*
X7074Y211343D01*
X10750D01*
Y213881D01*
D02*
G37*
G36*
X59425Y208842D02*
X55750D01*
Y206304D01*
X55878D01*
X56858Y206433D01*
X57772Y206812D01*
X58557Y207414D01*
X59159Y208198D01*
X59425Y208842D01*
D02*
G37*
G36*
X53250D02*
X49575D01*
X49841Y208198D01*
X50443Y207414D01*
X51228Y206812D01*
X52142Y206433D01*
X53122Y206304D01*
X53250D01*
Y208842D01*
D02*
G37*
G36*
X16926D02*
X13250D01*
Y206304D01*
X13378D01*
X14358Y206433D01*
X15272Y206812D01*
X16057Y207414D01*
X16659Y208198D01*
X16926Y208842D01*
D02*
G37*
G36*
X10750D02*
X7074D01*
X7341Y208198D01*
X7943Y207414D01*
X8728Y206812D01*
X9642Y206433D01*
X10622Y206304D01*
X10750D01*
Y208842D01*
D02*
G37*
G36*
X129000Y204474D02*
X128149Y204305D01*
X127427Y203822D01*
X126945Y203101D01*
X126776Y202250D01*
X126945Y201399D01*
X127427Y200677D01*
X128149Y200196D01*
X129000Y200026D01*
X129851Y200196D01*
X130572Y200677D01*
X131054Y201399D01*
X131224Y202250D01*
X131054Y203101D01*
X130572Y203822D01*
X129851Y204305D01*
X129000Y204474D01*
D02*
G37*
G36*
X-112000Y204675D02*
X-112928Y204490D01*
X-113714Y203964D01*
X-114240Y203178D01*
X-114425Y202250D01*
X-114240Y201322D01*
X-113714Y200536D01*
X-112928Y200010D01*
X-112000Y199826D01*
X-111072Y200010D01*
X-110286Y200536D01*
X-109760Y201322D01*
X-109575Y202250D01*
X-109760Y203178D01*
X-110286Y203964D01*
X-111072Y204490D01*
X-112000Y204675D01*
D02*
G37*
G36*
X-119000Y223175D02*
X-119928Y222990D01*
X-120714Y222464D01*
X-121240Y221678D01*
X-121424Y220750D01*
X-121240Y219822D01*
X-120714Y219036D01*
X-119928Y218510D01*
X-119000Y218325D01*
X-118782Y218369D01*
X-99287Y198874D01*
X-98791Y198542D01*
X-98205Y198426D01*
X-96688D01*
X-96564Y198241D01*
X-95778Y197715D01*
X-94850Y197531D01*
X-93922Y197715D01*
X-93135Y198241D01*
X-92610Y199027D01*
X-92425Y199955D01*
X-92610Y200883D01*
X-93135Y201670D01*
X-93922Y202195D01*
X-94850Y202380D01*
X-95778Y202195D01*
X-96564Y201670D01*
X-96688Y201485D01*
X-97572D01*
X-116619Y220532D01*
X-116576Y220750D01*
X-116760Y221678D01*
X-117286Y222464D01*
X-118072Y222990D01*
X-119000Y223175D01*
D02*
G37*
G36*
X139500Y204474D02*
X138649Y204305D01*
X137927Y203822D01*
X137445Y203101D01*
X137276Y202250D01*
X137445Y201399D01*
X137927Y200677D01*
X138526Y200278D01*
X138557Y200159D01*
Y199841D01*
X138526Y199722D01*
X137927Y199322D01*
X137445Y198601D01*
X137276Y197750D01*
X137445Y196899D01*
X137927Y196177D01*
X138397Y195864D01*
X138292Y195333D01*
X138149Y195305D01*
X137427Y194823D01*
X137028Y194224D01*
X136909Y194193D01*
X136591D01*
X136472Y194224D01*
X136073Y194823D01*
X135474Y195222D01*
X135443Y195341D01*
Y195659D01*
X135474Y195778D01*
X136073Y196177D01*
X136555Y196899D01*
X136724Y197750D01*
X136555Y198601D01*
X136073Y199322D01*
X135474Y199722D01*
X135443Y199841D01*
Y200159D01*
X135474Y200278D01*
X136073Y200677D01*
X136555Y201399D01*
X136724Y202250D01*
X136555Y203101D01*
X136073Y203822D01*
X135351Y204305D01*
X134500Y204474D01*
X133649Y204305D01*
X132928Y203822D01*
X132446Y203101D01*
X132276Y202250D01*
X132446Y201399D01*
X132928Y200677D01*
X133526Y200278D01*
X133557Y200159D01*
Y199841D01*
X133526Y199722D01*
X132928Y199322D01*
X132446Y198601D01*
X132276Y197750D01*
X132446Y196899D01*
X132928Y196177D01*
X133526Y195778D01*
X133557Y195659D01*
Y195341D01*
X133526Y195222D01*
X132928Y194823D01*
X132446Y194101D01*
X132276Y193250D01*
X132446Y192399D01*
X132928Y191677D01*
X133649Y191195D01*
X134500Y191026D01*
X135351Y191195D01*
X136073Y191677D01*
X136472Y192276D01*
X136591Y192307D01*
X136909D01*
X137028Y192276D01*
X137427Y191677D01*
X138149Y191195D01*
X139000Y191026D01*
X139851Y191195D01*
X140573Y191677D01*
X141054Y192399D01*
X141224Y193250D01*
X141054Y194101D01*
X140573Y194823D01*
X140103Y195136D01*
X140208Y195667D01*
X140351Y195695D01*
X141072Y196177D01*
X141554Y196899D01*
X141724Y197750D01*
X141554Y198601D01*
X141072Y199322D01*
X140474Y199722D01*
X140443Y199841D01*
Y200159D01*
X140474Y200278D01*
X141072Y200677D01*
X141554Y201399D01*
X141724Y202250D01*
X141554Y203101D01*
X141072Y203822D01*
X140351Y204305D01*
X139500Y204474D01*
D02*
G37*
G36*
X108878Y201538D02*
X106122D01*
X105142Y201409D01*
X104228Y201031D01*
X103443Y200429D01*
X102841Y199644D01*
X102463Y198731D01*
X102334Y197750D01*
X102463Y196769D01*
X102841Y195856D01*
X103443Y195071D01*
X104228Y194469D01*
X105142Y194091D01*
X106122Y193962D01*
X108878D01*
X109858Y194091D01*
X110772Y194469D01*
X111557Y195071D01*
X112159Y195856D01*
X112537Y196769D01*
X112666Y197750D01*
X112537Y198731D01*
X112159Y199644D01*
X111557Y200429D01*
X110772Y201031D01*
X109858Y201409D01*
X108878Y201538D01*
D02*
G37*
G36*
X129500Y199474D02*
X128649Y199304D01*
X127927Y198822D01*
X127445Y198101D01*
X127276Y197250D01*
X127445Y196399D01*
X127927Y195677D01*
X128193Y195500D01*
Y195000D01*
X127927Y194823D01*
X127445Y194101D01*
X127276Y193250D01*
X127445Y192399D01*
X127927Y191677D01*
X128649Y191195D01*
X129500Y191026D01*
X130351Y191195D01*
X131072Y191677D01*
X131554Y192399D01*
X131724Y193250D01*
X131554Y194101D01*
X131072Y194823D01*
X130807Y195000D01*
Y195500D01*
X131072Y195677D01*
X131554Y196399D01*
X131724Y197250D01*
X131554Y198101D01*
X131072Y198822D01*
X130351Y199304D01*
X129500Y199474D01*
D02*
G37*
G36*
X-60000Y188974D02*
X-60851Y188804D01*
X-61572Y188322D01*
X-62055Y187601D01*
X-62224Y186750D01*
X-62055Y185899D01*
X-61572Y185178D01*
X-60851Y184695D01*
X-60000Y184526D01*
X-59149Y184695D01*
X-58428Y185178D01*
X-57946Y185899D01*
X-57776Y186750D01*
X-57946Y187601D01*
X-58428Y188322D01*
X-59149Y188804D01*
X-60000Y188974D01*
D02*
G37*
G36*
X108878Y187759D02*
X106122D01*
X105142Y187630D01*
X104228Y187251D01*
X103443Y186649D01*
X102841Y185865D01*
X102463Y184951D01*
X102334Y183970D01*
X102463Y182990D01*
X102841Y182076D01*
X103443Y181292D01*
X104228Y180690D01*
X105142Y180311D01*
X106122Y180182D01*
X108878D01*
X109858Y180311D01*
X110772Y180690D01*
X111557Y181292D01*
X112159Y182076D01*
X112537Y182990D01*
X112666Y183970D01*
X112537Y184951D01*
X112159Y185865D01*
X111557Y186649D01*
X110772Y187251D01*
X109858Y187630D01*
X108878Y187759D01*
D02*
G37*
G36*
X82250Y39451D02*
Y24750D01*
X96951D01*
X96852Y26011D01*
X96264Y28460D01*
X95300Y30786D01*
X93984Y32934D01*
X92349Y34849D01*
X90434Y36484D01*
X88286Y37800D01*
X85960Y38764D01*
X83511Y39352D01*
X82250Y39451D01*
D02*
G37*
G36*
X79750D02*
X78489Y39352D01*
X76040Y38764D01*
X73714Y37800D01*
X71566Y36484D01*
X69651Y34849D01*
X68016Y32934D01*
X66700Y30786D01*
X65736Y28460D01*
X65148Y26011D01*
X65049Y24750D01*
X79750D01*
Y39451D01*
D02*
G37*
G36*
X96951Y22250D02*
X82250D01*
Y7549D01*
X83511Y7648D01*
X85960Y8236D01*
X88286Y9200D01*
X90434Y10516D01*
X92349Y12151D01*
X93984Y14066D01*
X95300Y16214D01*
X96264Y18540D01*
X96852Y20989D01*
X96951Y22250D01*
D02*
G37*
G36*
X79750D02*
X65049D01*
X65148Y20989D01*
X65736Y18540D01*
X66700Y16214D01*
X68016Y14066D01*
X69651Y12151D01*
X71566Y10516D01*
X73714Y9200D01*
X76040Y8236D01*
X78489Y7648D01*
X79750Y7549D01*
Y22250D01*
D02*
G37*
%LPD*%
G36*
X19971Y297116D02*
Y283860D01*
X19786Y283736D01*
X19260Y282949D01*
X19075Y282022D01*
X19165Y281571D01*
X18740Y281146D01*
X18596Y281174D01*
X18377Y281131D01*
X6529Y292979D01*
Y299250D01*
X6413Y299835D01*
X6081Y300331D01*
X2654Y303759D01*
X2846Y304221D01*
X12867D01*
X19971Y297116D01*
D02*
G37*
G36*
X3471Y298617D02*
Y292346D01*
X3587Y291760D01*
X3919Y291264D01*
X16195Y278988D01*
X16179Y278790D01*
X16171Y278750D01*
X16174Y278733D01*
X16157Y278516D01*
X15731Y278304D01*
X529Y293505D01*
Y297912D01*
X714Y298036D01*
X1240Y298822D01*
X1424Y299750D01*
X1374Y300007D01*
X1834Y300253D01*
X3471Y298617D01*
D02*
G37*
G36*
X19471Y259105D02*
Y242882D01*
X17987Y241398D01*
X17769Y241442D01*
X16841Y241257D01*
X16055Y240732D01*
X15529Y239945D01*
X15466Y239630D01*
X14956D01*
X14874Y240044D01*
X14348Y240830D01*
X13562Y241356D01*
X12634Y241541D01*
X12515Y241517D01*
X9700Y244331D01*
X9204Y244663D01*
X8619Y244779D01*
X3698D01*
X3507Y245241D01*
X17159Y258893D01*
X17500Y258825D01*
X18428Y259010D01*
X18971Y259373D01*
X19471Y259105D01*
D02*
G37*
G36*
X6843Y241491D02*
X6850Y241221D01*
X6131Y240740D01*
X5606Y239953D01*
X5421Y239026D01*
X5465Y238807D01*
X-11063Y222279D01*
X-13655D01*
X-13704Y222779D01*
X-13415Y222837D01*
X-12919Y223168D01*
X1782Y237869D01*
X2000Y237825D01*
X2928Y238010D01*
X3714Y238536D01*
X4240Y239322D01*
X4425Y240250D01*
X4240Y241178D01*
X4172Y241280D01*
X4408Y241721D01*
X6767D01*
X6843Y241491D01*
D02*
G37*
G36*
X-62192Y226279D02*
X-62399Y225779D01*
X-95644D01*
X-95687Y225817D01*
X-95653Y226139D01*
X-95543Y226356D01*
X-95161Y226432D01*
X-94439Y226914D01*
X-94411Y226957D01*
X-62870D01*
X-62192Y226279D01*
D02*
G37*
%LPC*%
G36*
X12000Y297175D02*
X11072Y296990D01*
X10286Y296464D01*
X9760Y295678D01*
X9576Y294750D01*
X9760Y293822D01*
X10286Y293036D01*
X11072Y292510D01*
X12000Y292325D01*
X12928Y292510D01*
X13714Y293036D01*
X14240Y293822D01*
X14424Y294750D01*
X14240Y295678D01*
X13714Y296464D01*
X12928Y296990D01*
X12000Y297175D01*
D02*
G37*
G36*
X-135000Y152974D02*
X-135851Y152805D01*
X-136573Y152322D01*
X-137055Y151601D01*
X-137224Y150750D01*
X-137055Y149899D01*
X-136573Y149178D01*
X-135851Y148696D01*
X-135000Y148526D01*
X-134149Y148696D01*
X-133428Y149178D01*
X-132946Y149899D01*
X-132776Y150750D01*
X-132946Y151601D01*
X-133428Y152322D01*
X-134149Y152805D01*
X-135000Y152974D01*
D02*
G37*
G36*
X-80250Y90651D02*
Y75950D01*
X-65549D01*
X-65648Y77211D01*
X-66236Y79660D01*
X-67200Y81986D01*
X-68516Y84134D01*
X-70151Y86049D01*
X-72066Y87684D01*
X-74214Y89000D01*
X-76540Y89964D01*
X-78989Y90552D01*
X-80250Y90651D01*
D02*
G37*
G36*
X-82750D02*
X-84011Y90552D01*
X-86460Y89964D01*
X-88786Y89000D01*
X-90934Y87684D01*
X-92849Y86049D01*
X-94484Y84134D01*
X-95800Y81986D01*
X-96764Y79660D01*
X-97352Y77211D01*
X-97451Y75950D01*
X-82750D01*
Y90651D01*
D02*
G37*
G36*
X-65549Y73450D02*
X-80250D01*
Y58749D01*
X-78989Y58848D01*
X-76540Y59436D01*
X-74214Y60400D01*
X-72066Y61716D01*
X-70151Y63351D01*
X-68516Y65266D01*
X-67200Y67414D01*
X-66236Y69740D01*
X-65648Y72189D01*
X-65549Y73450D01*
D02*
G37*
G36*
X-82750D02*
X-97451D01*
X-97352Y72189D01*
X-96764Y69740D01*
X-95800Y67414D01*
X-94484Y65266D01*
X-92849Y63351D01*
X-90934Y61716D01*
X-88786Y60400D01*
X-86460Y59436D01*
X-84011Y58848D01*
X-82750Y58749D01*
Y73450D01*
D02*
G37*
G36*
X55878Y194196D02*
X55750D01*
Y191657D01*
X59425D01*
X59159Y192302D01*
X58557Y193086D01*
X57772Y193688D01*
X56858Y194067D01*
X55878Y194196D01*
D02*
G37*
G36*
X13378D02*
X13250D01*
Y191657D01*
X16926D01*
X16659Y192302D01*
X16057Y193086D01*
X15272Y193688D01*
X14358Y194067D01*
X13378Y194196D01*
D02*
G37*
G36*
X53250D02*
X53122D01*
X52142Y194067D01*
X51228Y193688D01*
X50443Y193086D01*
X49841Y192302D01*
X49575Y191657D01*
X53250D01*
Y194196D01*
D02*
G37*
G36*
X10750D02*
X10622D01*
X9642Y194067D01*
X8728Y193688D01*
X7943Y193086D01*
X7341Y192302D01*
X7074Y191657D01*
X10750D01*
Y194196D01*
D02*
G37*
G36*
X59425Y189157D02*
X55750D01*
Y186619D01*
X55878D01*
X56858Y186748D01*
X57772Y187127D01*
X58557Y187729D01*
X59159Y188513D01*
X59425Y189157D01*
D02*
G37*
G36*
X53250D02*
X49575D01*
X49841Y188513D01*
X50443Y187729D01*
X51228Y187127D01*
X52142Y186748D01*
X53122Y186619D01*
X53250D01*
Y189157D01*
D02*
G37*
G36*
X16926D02*
X13250D01*
Y186619D01*
X13378D01*
X14358Y186748D01*
X15272Y187127D01*
X16057Y187729D01*
X16659Y188513D01*
X16926Y189157D01*
D02*
G37*
G36*
X10750D02*
X7074D01*
X7341Y188513D01*
X7943Y187729D01*
X8728Y187127D01*
X9642Y186748D01*
X10622Y186619D01*
X10750D01*
Y189157D01*
D02*
G37*
G36*
X29000Y130974D02*
X28149Y130805D01*
X27428Y130323D01*
X26945Y129601D01*
X26776Y128750D01*
X26945Y127899D01*
X27428Y127178D01*
X28149Y126696D01*
X29000Y126526D01*
X29851Y126696D01*
X30573Y127178D01*
X31055Y127899D01*
X31224Y128750D01*
X31055Y129601D01*
X30573Y130323D01*
X29851Y130805D01*
X29000Y130974D01*
D02*
G37*
G36*
X59500Y129974D02*
X58649Y129805D01*
X57928Y129323D01*
X57446Y128601D01*
X57276Y127750D01*
X57446Y126899D01*
X57928Y126178D01*
X58649Y125696D01*
X59500Y125526D01*
X60351Y125696D01*
X61072Y126178D01*
X61554Y126899D01*
X61724Y127750D01*
X61554Y128601D01*
X61072Y129323D01*
X60351Y129805D01*
X59500Y129974D01*
D02*
G37*
G36*
X145000Y128174D02*
X144072Y127990D01*
X143286Y127464D01*
X142760Y126678D01*
X142576Y125750D01*
X142760Y124822D01*
X143286Y124036D01*
X144072Y123510D01*
X145000Y123326D01*
X145928Y123510D01*
X146714Y124036D01*
X147240Y124822D01*
X147424Y125750D01*
X147240Y126678D01*
X146714Y127464D01*
X145928Y127990D01*
X145000Y128174D01*
D02*
G37*
G36*
X121500Y127474D02*
X120649Y127304D01*
X119928Y126822D01*
X119446Y126101D01*
X119276Y125250D01*
X119446Y124399D01*
X119928Y123678D01*
X120649Y123196D01*
X121500Y123026D01*
X122351Y123196D01*
X123073Y123678D01*
X123555Y124399D01*
X123724Y125250D01*
X123555Y126101D01*
X123073Y126822D01*
X122351Y127304D01*
X121500Y127474D01*
D02*
G37*
G36*
X145500Y118675D02*
X144572Y118490D01*
X143786Y117964D01*
X143260Y117178D01*
X143076Y116250D01*
X143260Y115322D01*
X143786Y114536D01*
X144572Y114010D01*
X145500Y113826D01*
X146428Y114010D01*
X147214Y114536D01*
X147740Y115322D01*
X147924Y116250D01*
X147740Y117178D01*
X147214Y117964D01*
X146428Y118490D01*
X145500Y118675D01*
D02*
G37*
G36*
X139000D02*
X138072Y118490D01*
X137286Y117964D01*
X136760Y117178D01*
X136575Y116250D01*
X136760Y115322D01*
X137286Y114536D01*
X138072Y114010D01*
X139000Y113826D01*
X139928Y114010D01*
X140714Y114536D01*
X141240Y115322D01*
X141425Y116250D01*
X141240Y117178D01*
X140714Y117964D01*
X139928Y118490D01*
X139000Y118675D01*
D02*
G37*
G36*
X132500D02*
X131572Y118490D01*
X130786Y117964D01*
X130260Y117178D01*
X130076Y116250D01*
X130260Y115322D01*
X130786Y114536D01*
X131572Y114010D01*
X132500Y113826D01*
X133428Y114010D01*
X134214Y114536D01*
X134740Y115322D01*
X134924Y116250D01*
X134740Y117178D01*
X134214Y117964D01*
X133428Y118490D01*
X132500Y118675D01*
D02*
G37*
G36*
X126500D02*
X125572Y118490D01*
X124786Y117964D01*
X124260Y117178D01*
X124075Y116250D01*
X124260Y115322D01*
X124786Y114536D01*
X125572Y114010D01*
X126500Y113826D01*
X127428Y114010D01*
X128214Y114536D01*
X128740Y115322D01*
X128925Y116250D01*
X128740Y117178D01*
X128214Y117964D01*
X127428Y118490D01*
X126500Y118675D01*
D02*
G37*
G36*
X119500D02*
X118572Y118490D01*
X117786Y117964D01*
X117260Y117178D01*
X117076Y116250D01*
X117260Y115322D01*
X117786Y114536D01*
X118572Y114010D01*
X119500Y113826D01*
X120428Y114010D01*
X121214Y114536D01*
X121740Y115322D01*
X121924Y116250D01*
X121740Y117178D01*
X121214Y117964D01*
X120428Y118490D01*
X119500Y118675D01*
D02*
G37*
G36*
X139000Y113174D02*
X138072Y112990D01*
X137286Y112464D01*
X136760Y111678D01*
X136575Y110750D01*
X136760Y109822D01*
X137286Y109036D01*
X138072Y108510D01*
X139000Y108326D01*
X139928Y108510D01*
X140714Y109036D01*
X141240Y109822D01*
X141425Y110750D01*
X141240Y111678D01*
X140714Y112464D01*
X139928Y112990D01*
X139000Y113174D01*
D02*
G37*
G36*
X145500Y112925D02*
X144572Y112740D01*
X143786Y112214D01*
X143260Y111428D01*
X143076Y110500D01*
X143260Y109572D01*
X143786Y108786D01*
X144572Y108260D01*
X145500Y108075D01*
X146428Y108260D01*
X147214Y108786D01*
X147740Y109572D01*
X147924Y110500D01*
X147740Y111428D01*
X147214Y112214D01*
X146428Y112740D01*
X145500Y112925D01*
D02*
G37*
G36*
X132500Y112674D02*
X131572Y112490D01*
X130786Y111964D01*
X130260Y111178D01*
X130076Y110250D01*
X130260Y109322D01*
X130786Y108536D01*
X131572Y108010D01*
X132500Y107826D01*
X133428Y108010D01*
X134214Y108536D01*
X134740Y109322D01*
X134924Y110250D01*
X134740Y111178D01*
X134214Y111964D01*
X133428Y112490D01*
X132500Y112674D01*
D02*
G37*
G36*
X126500D02*
X125572Y112490D01*
X124786Y111964D01*
X124260Y111178D01*
X124075Y110250D01*
X124260Y109322D01*
X124786Y108536D01*
X125572Y108010D01*
X126500Y107826D01*
X127428Y108010D01*
X128214Y108536D01*
X128740Y109322D01*
X128925Y110250D01*
X128740Y111178D01*
X128214Y111964D01*
X127428Y112490D01*
X126500Y112674D01*
D02*
G37*
G36*
X119500D02*
X118572Y112490D01*
X117786Y111964D01*
X117260Y111178D01*
X117076Y110250D01*
X117260Y109322D01*
X117786Y108536D01*
X118572Y108010D01*
X119500Y107826D01*
X120428Y108010D01*
X121214Y108536D01*
X121740Y109322D01*
X121924Y110250D01*
X121740Y111178D01*
X121214Y111964D01*
X120428Y112490D01*
X119500Y112674D01*
D02*
G37*
G36*
X32250Y90651D02*
Y75950D01*
X46951D01*
X46852Y77211D01*
X46264Y79660D01*
X45300Y81986D01*
X43984Y84134D01*
X42349Y86049D01*
X40434Y87684D01*
X38286Y89000D01*
X35960Y89964D01*
X33511Y90552D01*
X32250Y90651D01*
D02*
G37*
G36*
X29750D02*
X28489Y90552D01*
X26040Y89964D01*
X23714Y89000D01*
X21566Y87684D01*
X19651Y86049D01*
X18016Y84134D01*
X16700Y81986D01*
X15736Y79660D01*
X15148Y77211D01*
X15049Y75950D01*
X29750D01*
Y90651D01*
D02*
G37*
G36*
X46951Y73450D02*
X32250D01*
Y58749D01*
X33511Y58848D01*
X35960Y59436D01*
X38286Y60400D01*
X40434Y61716D01*
X42349Y63351D01*
X43984Y65266D01*
X45300Y67414D01*
X46264Y69740D01*
X46852Y72189D01*
X46951Y73450D01*
D02*
G37*
G36*
X29750D02*
X15049D01*
X15148Y72189D01*
X15736Y69740D01*
X16700Y67414D01*
X18016Y65266D01*
X19651Y63351D01*
X21566Y61716D01*
X23714Y60400D01*
X26040Y59436D01*
X28489Y58848D01*
X29750Y58749D01*
Y73450D01*
D02*
G37*
G36*
X-50000Y153474D02*
X-50851Y153305D01*
X-51573Y152822D01*
X-52055Y152101D01*
X-52224Y151250D01*
X-52055Y150399D01*
X-51573Y149678D01*
X-50851Y149196D01*
X-50000Y149026D01*
X-49149Y149196D01*
X-48428Y149678D01*
X-47945Y150399D01*
X-47776Y151250D01*
X-47945Y152101D01*
X-48428Y152822D01*
X-49149Y153305D01*
X-50000Y153474D01*
D02*
G37*
G36*
X-30250Y39451D02*
Y24750D01*
X-15549D01*
X-15648Y26011D01*
X-16236Y28460D01*
X-17200Y30786D01*
X-18516Y32934D01*
X-20151Y34849D01*
X-22066Y36484D01*
X-24214Y37800D01*
X-26540Y38764D01*
X-28989Y39352D01*
X-30250Y39451D01*
D02*
G37*
G36*
X-32750D02*
X-34011Y39352D01*
X-36460Y38764D01*
X-38786Y37800D01*
X-40934Y36484D01*
X-42849Y34849D01*
X-44484Y32934D01*
X-45800Y30786D01*
X-46764Y28460D01*
X-47352Y26011D01*
X-47451Y24750D01*
X-32750D01*
Y39451D01*
D02*
G37*
G36*
X-15549Y22250D02*
X-30250D01*
Y7549D01*
X-28989Y7648D01*
X-26540Y8236D01*
X-24214Y9200D01*
X-22066Y10516D01*
X-20151Y12151D01*
X-18516Y14066D01*
X-17200Y16214D01*
X-16236Y18540D01*
X-15648Y20989D01*
X-15549Y22250D01*
D02*
G37*
G36*
X-32750D02*
X-47451D01*
X-47352Y20989D01*
X-46764Y18540D01*
X-45800Y16214D01*
X-44484Y14066D01*
X-42849Y12151D01*
X-40934Y10516D01*
X-38786Y9200D01*
X-36460Y8236D01*
X-34011Y7648D01*
X-32750Y7549D01*
Y22250D01*
D02*
G37*
%LPD*%
D11*
X70793Y327043D02*
X94437D01*
X31497Y287747D02*
X70793Y327043D01*
D15*
X-119500Y231250D02*
X-117000Y228750D01*
X-119669Y231250D02*
X-119500D01*
X-117000Y228750D02*
X-101000D01*
X-10430Y220750D02*
X7846Y239026D01*
X-103000Y220750D02*
X-10430D01*
X-14000Y224250D02*
X2000Y240250D01*
X-106000Y224250D02*
X-14000D01*
X-60915Y227165D02*
X-16085D01*
X-62236Y228486D02*
X-60915Y227165D01*
X-16085D02*
X0Y243250D01*
X-17000Y245750D02*
X1852D01*
X17352Y261250D02*
X17500D01*
X1852Y245750D02*
X17352Y261250D01*
X-110000Y220250D02*
X-106000Y224250D01*
X100489Y319750D02*
X107677Y326938D01*
X-119000Y220750D02*
X-98205Y199955D01*
X-94850D01*
X-30750Y235750D02*
X-14000D01*
X-69000Y274000D02*
X-30750Y235750D01*
X-69000Y274000D02*
Y274278D01*
X-107500Y279000D02*
X-100750D01*
X34825Y261575D02*
Y285325D01*
X69250Y319750D02*
X100489D01*
X34825Y285325D02*
X69250Y319750D01*
X31497Y265199D02*
Y287747D01*
X-96012Y228486D02*
X-62236D01*
X-98386Y231364D02*
X-57500D01*
X1000Y303250D02*
X5000Y299250D01*
Y292346D02*
X18596Y278750D01*
X5000Y292346D02*
Y299250D01*
X-79500Y305750D02*
X13500D01*
X21500Y297750D01*
Y282022D02*
Y297750D01*
X-76500Y303250D02*
X1000D01*
X-100750Y279000D02*
X-76500Y303250D01*
X-1000Y292871D02*
Y299750D01*
X21000Y242248D02*
Y264250D01*
X-9000Y294250D02*
Y299750D01*
Y294250D02*
X21000Y264250D01*
X23500Y240750D02*
Y265250D01*
X-5000Y293750D02*
X23500Y265250D01*
X-5000Y293750D02*
Y299750D01*
X-101000Y228750D02*
X-98386Y231364D01*
X-1000Y292871D02*
X26000Y265871D01*
X-24000Y246750D02*
X-21500Y249250D01*
X0D02*
X15000Y264250D01*
X-21500Y249250D02*
X0D01*
X26000Y239250D02*
Y265871D01*
X22036Y239286D02*
X23500Y240750D01*
X22036Y239214D02*
Y239286D01*
X17769Y239017D02*
X21000Y242248D01*
X11500Y240250D02*
Y240369D01*
X0Y243250D02*
X8619D01*
X11500Y240369D01*
Y240250D02*
X12634Y239116D01*
D98*
X61000Y272250D02*
D03*
D104*
X80787Y357283D02*
D03*
X60787D02*
D03*
X70787D02*
D03*
X155500Y307500D02*
D03*
Y297500D02*
D03*
Y317500D02*
D03*
X-128000Y314000D02*
D03*
D105*
X50787Y357283D02*
D03*
D106*
X155500Y287500D02*
D03*
X-128000Y324000D02*
D03*
D107*
X-81500Y74700D02*
D03*
X-31500Y23500D02*
D03*
X81000D02*
D03*
X31000Y74700D02*
D03*
D108*
X-101279Y332565D02*
D03*
Y352250D02*
D03*
D109*
X-87500Y332565D02*
D03*
Y352250D02*
D03*
D110*
X107500Y183970D02*
D03*
Y197750D02*
D03*
X54500Y210092D02*
D03*
Y190408D02*
D03*
X12000Y210092D02*
D03*
Y190408D02*
D03*
D111*
X-147500Y17000D02*
D03*
Y347500D02*
D03*
X147500D02*
D03*
Y17000D02*
D03*
D112*
X16732Y310630D02*
D03*
X110000Y227750D02*
D03*
X-107500Y279000D02*
D03*
X-79500Y305750D02*
D03*
X-78203Y239703D02*
D03*
X-96012Y228486D02*
D03*
X-60000Y186750D02*
D03*
X-74000Y239750D02*
D03*
X15748Y293307D02*
D03*
X119500Y228750D02*
D03*
X150000Y267750D02*
D03*
X139000Y193250D02*
D03*
X134500D02*
D03*
Y197750D02*
D03*
X139500D02*
D03*
X129500Y193250D02*
D03*
X129000Y202250D02*
D03*
X134500D02*
D03*
X139500D02*
D03*
X-86500Y258250D02*
D03*
X129500Y197250D02*
D03*
X121500Y125250D02*
D03*
X29000Y128750D02*
D03*
X59500Y127750D02*
D03*
X-135000Y150750D02*
D03*
X-50000Y151250D02*
D03*
X105000Y292250D02*
D03*
X90500D02*
D03*
X99500D02*
D03*
X95000D02*
D03*
X86000D02*
D03*
X113500Y227750D02*
D03*
X150000Y257750D02*
D03*
Y262750D02*
D03*
D113*
X-119669Y231250D02*
D03*
X-121063Y202165D02*
D03*
X-76646Y252900D02*
D03*
X-135827Y243701D02*
D03*
X46815Y282515D02*
D03*
X-110000Y220250D02*
D03*
X107677Y358268D02*
D03*
X145500Y110500D02*
D03*
X-31500Y137500D02*
D03*
Y141250D02*
D03*
Y144750D02*
D03*
X54500Y142250D02*
D03*
X-32000Y134000D02*
D03*
X-36500D02*
D03*
X-41000D02*
D03*
X-45000D02*
D03*
X94437Y327043D02*
D03*
X10531Y311122D02*
D03*
X-94850Y199955D02*
D03*
X-57500Y231364D02*
D03*
X-69000Y274278D02*
D03*
X12000Y294750D02*
D03*
X-14000Y235750D02*
D03*
X-1000Y299750D02*
D03*
X18596Y278750D02*
D03*
X-84728Y268872D02*
D03*
X-96000Y273750D02*
D03*
X114764Y311811D02*
D03*
X104500Y311750D02*
D03*
X0Y266250D02*
D03*
X-129921Y216142D02*
D03*
X120276Y328091D02*
D03*
X34825Y261575D02*
D03*
X-114500Y261250D02*
D03*
X-116732Y250197D02*
D03*
X93898Y312205D02*
D03*
X-110500Y257250D02*
D03*
X-58000Y327250D02*
D03*
X17500Y261250D02*
D03*
X15000Y264250D02*
D03*
X21500Y282022D02*
D03*
X-17000Y245750D02*
D03*
X-24000Y246750D02*
D03*
X31497Y265199D02*
D03*
X2000Y240250D02*
D03*
X22036Y239214D02*
D03*
X26000Y239250D02*
D03*
X145000Y125750D02*
D03*
X-105500Y256782D02*
D03*
X-101000D02*
D03*
X-49500Y215250D02*
D03*
X50000Y138250D02*
D03*
X45500D02*
D03*
X41000Y142250D02*
D03*
Y138250D02*
D03*
X-99500Y249552D02*
D03*
X-29000Y211250D02*
D03*
X-23500D02*
D03*
X-18000D02*
D03*
X-29000Y207750D02*
D03*
X-23500D02*
D03*
X-29000Y204250D02*
D03*
X-23500D02*
D03*
X-18000Y207750D02*
D03*
X-103000Y220750D02*
D03*
X-119000D02*
D03*
X107677Y326938D02*
D03*
X63500Y284250D02*
D03*
X-21894Y274250D02*
D03*
X-45000Y141250D02*
D03*
X45000Y142250D02*
D03*
X32000Y113750D02*
D03*
Y119250D02*
D03*
X158500Y179750D02*
D03*
X-127000Y261250D02*
D03*
X-16500Y265750D02*
D03*
X-112000Y202250D02*
D03*
X-18000Y204250D02*
D03*
X48500Y247250D02*
D03*
X85000Y192971D02*
D03*
X156500Y241250D02*
D03*
X-21000Y299250D02*
D03*
X-26000Y258250D02*
D03*
X54000Y146250D02*
D03*
X50000Y145750D02*
D03*
X54500Y138250D02*
D03*
X50000Y142250D02*
D03*
X45000Y145750D02*
D03*
X40500D02*
D03*
X-36500Y141250D02*
D03*
Y137500D02*
D03*
X12634Y239116D02*
D03*
X17769Y239017D02*
D03*
X7846Y239026D02*
D03*
X-45000Y137500D02*
D03*
X-41000Y141250D02*
D03*
X-36500Y144750D02*
D03*
X-41000D02*
D03*
X-45000D02*
D03*
X-5000Y299750D02*
D03*
X-9000D02*
D03*
X61500Y239250D02*
D03*
X35500Y241750D02*
D03*
X137000Y165750D02*
D03*
X-61760Y273805D02*
D03*
X120472Y358071D02*
D03*
X94488D02*
D03*
X-130000Y134250D02*
D03*
X-125500D02*
D03*
X-121500D02*
D03*
X-116500Y133750D02*
D03*
X-130000Y138250D02*
D03*
X-125500D02*
D03*
X-121500D02*
D03*
X-116500D02*
D03*
Y142750D02*
D03*
X-121500D02*
D03*
X-125500D02*
D03*
X-130000D02*
D03*
X139000Y110750D02*
D03*
X132500Y110250D02*
D03*
X126500D02*
D03*
X119500D02*
D03*
X145500Y116250D02*
D03*
X139000D02*
D03*
X132500D02*
D03*
X126500D02*
D03*
X119500D02*
D03*
X60000Y113750D02*
D03*
X53000D02*
D03*
X45500D02*
D03*
X38500D02*
D03*
X60000Y119250D02*
D03*
X53000D02*
D03*
X45500D02*
D03*
X38500D02*
D03*
X140328Y133913D02*
D03*
X135500Y133750D02*
D03*
X131000D02*
D03*
X127000D02*
D03*
X140000Y138250D02*
D03*
X135500D02*
D03*
X131000D02*
D03*
X127000D02*
D03*
X131000Y142250D02*
D03*
X140000D02*
D03*
X135500D02*
D03*
X127000D02*
D03*
X-41000Y137500D02*
D03*
X93256Y241017D02*
D03*
X87744D02*
D03*
Y236686D02*
D03*
X93256D02*
D03*
Y232355D02*
D03*
X87744D02*
D03*
D114*
X-106500Y240687D02*
D03*
Y236750D02*
D03*
X-102563D02*
D03*
X-106500Y232813D02*
D03*
X-110437Y236750D02*
D03*
X-102563Y240687D02*
D03*
X-110437D02*
D03*
Y232813D02*
D03*
X-102563D02*
D03*
M02*
