G04*
G04 #@! TF.GenerationSoftware,Altium Limited,Altium Designer,20.2.6 (244)*
G04*
G04 Layer_Color=16711935*
%FSLAX25Y25*%
%MOIN*%
G70*
G04*
G04 #@! TF.SameCoordinates,8FED6943-84A2-46AE-932A-9FA205965DA7*
G04*
G04*
G04 #@! TF.FilePolarity,Positive*
G04*
G01*
G75*
%ADD15C,0.01000*%
D15*
X149500Y0D02*
X150481Y32D01*
X151458Y128D01*
X152426Y288D01*
X153382Y511D01*
X154322Y796D01*
X155240Y1142D01*
X156134Y1547D01*
X157000Y2010D01*
X157834Y2528D01*
X158631Y3100D01*
X159390Y3722D01*
X160107Y4393D01*
X160778Y5110D01*
X161400Y5869D01*
X161972Y6667D01*
X162490Y7500D01*
X162953Y8366D01*
X163358Y9260D01*
X163704Y10178D01*
X163989Y11118D01*
X164212Y12074D01*
X164372Y13042D01*
X164468Y14019D01*
X164500Y15000D01*
X-165496D02*
X-165464Y14019D01*
X-165368Y13042D01*
X-165208Y12074D01*
X-164985Y11118D01*
X-164700Y10178D01*
X-164355Y9260D01*
X-163949Y8366D01*
X-163487Y7500D01*
X-162968Y6667D01*
X-162397Y5869D01*
X-161774Y5110D01*
X-161103Y4393D01*
X-160387Y3722D01*
X-159628Y3100D01*
X-158830Y2528D01*
X-157996Y2010D01*
X-157131Y1547D01*
X-156237Y1142D01*
X-155318Y796D01*
X-154379Y511D01*
X-153423Y288D01*
X-152454Y128D01*
X-151477Y32D01*
X-150496Y0D01*
X-150498Y364750D02*
X-151479Y364718D01*
X-152456Y364622D01*
X-153425Y364462D01*
X-154381Y364239D01*
X-155320Y363954D01*
X-156238Y363608D01*
X-157132Y363203D01*
X-157998Y362740D01*
X-158832Y362222D01*
X-159630Y361650D01*
X-160388Y361028D01*
X-161105Y360357D01*
X-161776Y359640D01*
X-162399Y358881D01*
X-162970Y358084D01*
X-163489Y357250D01*
X-163951Y356384D01*
X-164356Y355490D01*
X-164702Y354572D01*
X-164987Y353632D01*
X-165210Y352676D01*
X-165370Y351708D01*
X-165466Y350731D01*
X-165498Y349750D01*
X164498D02*
X164466Y350731D01*
X164370Y351708D01*
X164210Y352676D01*
X163987Y353632D01*
X163702Y354572D01*
X163356Y355490D01*
X162951Y356384D01*
X162489Y357250D01*
X161970Y358084D01*
X161398Y358881D01*
X160776Y359640D01*
X160105Y360357D01*
X159388Y361028D01*
X158630Y361650D01*
X157832Y362222D01*
X156998Y362740D01*
X156132Y363203D01*
X155238Y363608D01*
X154320Y363954D01*
X153381Y364239D01*
X152425Y364462D01*
X151456Y364622D01*
X150479Y364718D01*
X149498Y364750D01*
X-150496Y-0D02*
X149500Y0D01*
X-165500Y349750D02*
X-165500Y15000D01*
X164498Y349750D02*
X164498Y15000D01*
X-150498Y364750D02*
X149498Y364750D01*
M02*
