M48
;Layer_Color=9474304
;FILE_FORMAT=2:5
INCH,TZ
;TYPE=PLATED
T1F00S00C0.01181
T2F00S00C0.01575
T3F00S00C0.03150
T4F00S00C0.04000
T5F00S00C0.04331
T6F00S00C0.15591
T7F00S00C0.16535
%
T01
X59500Y127750
X121500Y125250
X29000Y128750
X-50000Y151250
X-60000Y186750
X-135000Y150750
X-110437Y232813
X-106500
Y236750
Y240687
X-102563
Y236750
Y232813
X-96012Y228486
X-110437Y236750
Y240687
X-78203Y239703
X-74000Y239750
X-86500Y258250
X-107500Y279000
X-79500Y305750
X16732Y310630
X15748Y293307
X86000Y292250
X90500
X95000
X99500
X105000
X110000Y227750
X113500
X119500Y228750
X129000Y202250
X134500
Y197750
Y193250
X139000
X139500Y197750
Y202250
X129500Y197250
Y193250
X150000Y257750
Y262750
Y267750
T02
X32000Y113750
Y119250
X38500
Y113750
X45500
Y119250
X53000
Y113750
X60000
Y119250
X54500Y138250
Y142250
X54000Y146250
X50000Y145750
Y142250
Y138250
X45500
X41000
Y142250
X45000
Y145750
X40500
X127000Y142250
Y138250
X131000
Y142250
X135500
Y138250
Y133750
X131000
X127000
X140328Y133913
X140000Y138250
Y142250
X145000Y125750
X145500Y116250
Y110500
X139000Y110750
Y116250
X132500
Y110250
X126500
Y116250
X119500
Y110250
X137000Y165750
X158500Y179750
X-31500Y144750
Y141250
Y137500
X-32000Y134000
X-36500
Y137500
Y141250
Y144750
X-41000
Y141250
Y137500
Y134000
X-45000
Y137500
Y141250
Y144750
X-116500Y142750
Y138250
Y133750
X-121500Y134250
X-125500
Y138250
X-121500
Y142750
X-125500
X-130000
Y138250
Y134250
X-129921Y216142
X-135827Y243701
X-127000Y261250
X-114500
X-110500Y257250
X-105500Y256782
X-101000
X-99500Y249552
X-116732Y250197
X-119669Y231250
X-119000Y220750
X-110000Y220250
X-103000Y220750
X-112000Y202250
X-121063Y202165
X-94850Y199955
X-49500Y215250
X-57500Y231364
X-76646Y252900
X-84728Y268872
X-96000Y273750
X-69000Y274278
X-61760Y273805
X-21894Y274250
X-16500Y265750
X0Y266250
X15000Y264250
X17500Y261250
X18596Y278750
X21500Y282022
X12000Y294750
X10531Y311122
X-1000Y299750
X-5000
X-9000
X-21000Y299250
X-26000Y258250
X-24000Y246750
X-17000Y245750
X-14000Y235750
X2000Y240250
X7846Y239026
X12634Y239116
X17769Y239017
X22036Y239214
X26000Y239250
X-18000Y211250
X-18000Y207750
X-18000Y204250
X-23500
X-23500Y207750
X-23500Y211250
X-29000
X-29000Y207750
X-29000Y204250
X-58000Y327250
X46815Y282515
X63500Y284250
X61000Y272250
X61500Y239250
X48500Y247250
X35500Y241750
X34825Y261575
X31497Y265199
X87744Y241017
Y236686
Y232355
X93256
Y236686
Y241017
X85000Y192971
X156500Y241250
X114764Y311811
X104500Y311750
X93898Y312205
X94437Y327043
X107677Y326938
X120276Y328091
X120472Y358071
X107677Y358268
X94488Y358071
T03
X107500Y183970
X12000Y190408
Y210092
X54500
Y190408
X107500Y197750
T04
X-128000Y314000
Y324000
X155500Y317500
Y307500
Y297500
Y287500
X80787Y357283
X70787
X60787
X50787
T05
X-101279Y332565
X-87500
Y352250
X-101279
T06
X-31500Y23500
X81000
X31000Y74700
X-81500
T07
X-147500Y17000
X147500
Y347500
X-147500
M30
