G04*
G04 #@! TF.GenerationSoftware,Altium Limited,Altium Designer,20.2.6 (244)*
G04*
G04 Layer_Color=32896*
%FSLAX25Y25*%
%MOIN*%
G70*
G04*
G04 #@! TF.SameCoordinates,8FED6943-84A2-46AE-932A-9FA205965DA7*
G04*
G04*
G04 #@! TF.FilePolarity,Positive*
G04*
G01*
G75*
%ADD15C,0.01000*%
G36*
X-49550Y350320D02*
X-51003D01*
Y351664D01*
X-49550D01*
Y350320D01*
D02*
G37*
G36*
X-33056Y344101D02*
X-34401D01*
Y344899D01*
X-34532Y344735D01*
X-34663Y344593D01*
X-34794Y344483D01*
X-34914Y344385D01*
X-35024Y344309D01*
X-35111Y344254D01*
X-35166Y344221D01*
X-35188Y344210D01*
X-35363Y344134D01*
X-35527Y344079D01*
X-35680Y344035D01*
X-35822Y344014D01*
X-35942Y343992D01*
X-36040Y343981D01*
X-36117D01*
X-36292Y343992D01*
X-36467Y344014D01*
X-36620Y344046D01*
X-36773Y344101D01*
X-37057Y344221D01*
X-37177Y344287D01*
X-37297Y344363D01*
X-37396Y344429D01*
X-37483Y344494D01*
X-37560Y344560D01*
X-37625Y344615D01*
X-37680Y344669D01*
X-37713Y344702D01*
X-37734Y344724D01*
X-37745Y344735D01*
X-37866Y344888D01*
X-37964Y345041D01*
X-38062Y345216D01*
X-38139Y345391D01*
X-38205Y345577D01*
X-38259Y345751D01*
X-38336Y346101D01*
X-38368Y346265D01*
X-38390Y346418D01*
X-38401Y346549D01*
X-38412Y346670D01*
X-38423Y346768D01*
Y346833D01*
Y346888D01*
Y346899D01*
X-38412Y347150D01*
X-38390Y347380D01*
X-38357Y347599D01*
X-38325Y347795D01*
X-38270Y347981D01*
X-38215Y348156D01*
X-38150Y348309D01*
X-38095Y348451D01*
X-38030Y348571D01*
X-37964Y348681D01*
X-37909Y348768D01*
X-37866Y348845D01*
X-37822Y348899D01*
X-37789Y348943D01*
X-37767Y348965D01*
X-37756Y348976D01*
X-37625Y349107D01*
X-37494Y349216D01*
X-37363Y349315D01*
X-37221Y349402D01*
X-37079Y349468D01*
X-36948Y349533D01*
X-36685Y349621D01*
X-36554Y349642D01*
X-36445Y349664D01*
X-36346Y349686D01*
X-36259Y349697D01*
X-36193Y349708D01*
X-36095D01*
X-35931Y349697D01*
X-35767Y349675D01*
X-35603Y349642D01*
X-35461Y349588D01*
X-35188Y349468D01*
X-34958Y349325D01*
X-34860Y349260D01*
X-34772Y349183D01*
X-34696Y349118D01*
X-34630Y349063D01*
X-34576Y349008D01*
X-34543Y348976D01*
X-34521Y348954D01*
X-34510Y348943D01*
Y351664D01*
X-33056D01*
Y344101D01*
D02*
G37*
G36*
X-53769Y346921D02*
X-51790Y344101D01*
X-53485D01*
X-54610Y345795D01*
X-55736Y344101D01*
X-57507D01*
X-55485Y346987D01*
X-57332Y349588D01*
X-55638D01*
X-54610Y348068D01*
X-53649Y349588D01*
X-51878D01*
X-53769Y346921D01*
D02*
G37*
G36*
X-8945Y344101D02*
X-10606D01*
X-12115Y349752D01*
X-13601Y344101D01*
X-15251D01*
X-17077Y351664D01*
X-15536D01*
X-14377Y346374D01*
X-13066Y351664D01*
X-11229D01*
X-9852Y346462D01*
X-8715Y351664D01*
X-7152D01*
X-8945Y344101D01*
D02*
G37*
G36*
X-3239Y351796D02*
X-2955Y351763D01*
X-2704Y351708D01*
X-2452Y351643D01*
X-2234Y351566D01*
X-2015Y351479D01*
X-1829Y351380D01*
X-1654Y351282D01*
X-1491Y351184D01*
X-1359Y351085D01*
X-1239Y350998D01*
X-1141Y350921D01*
X-1064Y350856D01*
X-1010Y350801D01*
X-977Y350768D01*
X-966Y350757D01*
X-791Y350550D01*
X-649Y350331D01*
X-518Y350101D01*
X-409Y349861D01*
X-310Y349610D01*
X-234Y349369D01*
X-168Y349129D01*
X-113Y348899D01*
X-70Y348670D01*
X-48Y348473D01*
X-26Y348287D01*
X-4Y348134D01*
Y348003D01*
X7Y347905D01*
Y347839D01*
Y347828D01*
Y347817D01*
X-4Y347489D01*
X-37Y347183D01*
X-81Y346888D01*
X-146Y346626D01*
X-212Y346374D01*
X-299Y346134D01*
X-387Y345926D01*
X-474Y345741D01*
X-562Y345566D01*
X-649Y345413D01*
X-736Y345292D01*
X-802Y345183D01*
X-868Y345107D01*
X-911Y345041D01*
X-944Y345008D01*
X-955Y344997D01*
X-1141Y344811D01*
X-1338Y344658D01*
X-1545Y344516D01*
X-1753Y344407D01*
X-1961Y344309D01*
X-2168Y344221D01*
X-2365Y344156D01*
X-2551Y344101D01*
X-2737Y344057D01*
X-2901Y344024D01*
X-3054Y344003D01*
X-3174Y343992D01*
X-3283Y343981D01*
X-3360Y343970D01*
X-3425D01*
X-3655Y343981D01*
X-3862Y343992D01*
X-4070Y344024D01*
X-4256Y344068D01*
X-4431Y344112D01*
X-4595Y344156D01*
X-4748Y344210D01*
X-4890Y344276D01*
X-5010Y344331D01*
X-5119Y344385D01*
X-5218Y344429D01*
X-5294Y344473D01*
X-5360Y344516D01*
X-5404Y344549D01*
X-5425Y344560D01*
X-5436Y344571D01*
X-5578Y344691D01*
X-5710Y344822D01*
X-5950Y345117D01*
X-6147Y345424D01*
X-6300Y345719D01*
X-6365Y345861D01*
X-6420Y345992D01*
X-6464Y346112D01*
X-6508Y346210D01*
X-6540Y346298D01*
X-6562Y346363D01*
X-6573Y346407D01*
Y346418D01*
X-5086Y346877D01*
X-4999Y346582D01*
X-4901Y346331D01*
X-4802Y346123D01*
X-4693Y345948D01*
X-4606Y345817D01*
X-4529Y345729D01*
X-4474Y345675D01*
X-4453Y345653D01*
X-4278Y345522D01*
X-4103Y345434D01*
X-3928Y345369D01*
X-3775Y345314D01*
X-3633Y345292D01*
X-3513Y345281D01*
X-3469Y345270D01*
X-3414D01*
X-3261Y345281D01*
X-3119Y345292D01*
X-2857Y345369D01*
X-2627Y345456D01*
X-2441Y345577D01*
X-2289Y345686D01*
X-2179Y345773D01*
X-2135Y345817D01*
X-2103Y345850D01*
X-2092Y345861D01*
X-2081Y345872D01*
X-1993Y345992D01*
X-1917Y346134D01*
X-1840Y346287D01*
X-1786Y346451D01*
X-1698Y346790D01*
X-1633Y347129D01*
X-1611Y347292D01*
X-1600Y347435D01*
X-1578Y347577D01*
Y347697D01*
X-1567Y347784D01*
Y347861D01*
Y347916D01*
Y347926D01*
X-1578Y348178D01*
X-1589Y348407D01*
X-1611Y348615D01*
X-1644Y348812D01*
X-1687Y348987D01*
X-1731Y349151D01*
X-1775Y349293D01*
X-1829Y349424D01*
X-1873Y349533D01*
X-1917Y349632D01*
X-1961Y349708D01*
X-2004Y349774D01*
X-2037Y349828D01*
X-2059Y349861D01*
X-2081Y349883D01*
Y349894D01*
X-2179Y350003D01*
X-2289Y350101D01*
X-2398Y350178D01*
X-2518Y350244D01*
X-2747Y350353D01*
X-2966Y350429D01*
X-3152Y350473D01*
X-3239Y350484D01*
X-3305Y350495D01*
X-3370Y350506D01*
X-3447D01*
X-3666Y350495D01*
X-3862Y350451D01*
X-4037Y350397D01*
X-4190Y350331D01*
X-4310Y350266D01*
X-4398Y350211D01*
X-4453Y350167D01*
X-4474Y350156D01*
X-4617Y350025D01*
X-4748Y349872D01*
X-4846Y349719D01*
X-4923Y349566D01*
X-4977Y349435D01*
X-5010Y349336D01*
X-5032Y349293D01*
Y349260D01*
X-5043Y349249D01*
Y349238D01*
X-6551Y349599D01*
X-6442Y349916D01*
X-6322Y350189D01*
X-6191Y350429D01*
X-6070Y350626D01*
X-5950Y350779D01*
X-5906Y350845D01*
X-5863Y350899D01*
X-5830Y350932D01*
X-5797Y350965D01*
X-5786Y350987D01*
X-5775D01*
X-5611Y351129D01*
X-5425Y351260D01*
X-5251Y351369D01*
X-5065Y351457D01*
X-4868Y351544D01*
X-4682Y351610D01*
X-4496Y351664D01*
X-4321Y351708D01*
X-4157Y351741D01*
X-4005Y351763D01*
X-3873Y351785D01*
X-3753Y351796D01*
X-3655Y351807D01*
X-3524D01*
X-3239Y351796D01*
D02*
G37*
G36*
X-25482Y347620D02*
Y347391D01*
X-25493Y347172D01*
Y346965D01*
X-25504Y346779D01*
X-25515Y346604D01*
X-25526Y346451D01*
X-25537Y346309D01*
X-25558Y346178D01*
X-25569Y346068D01*
X-25580Y345970D01*
X-25591Y345883D01*
X-25602Y345817D01*
X-25613Y345762D01*
Y345729D01*
X-25624Y345708D01*
Y345697D01*
X-25679Y345533D01*
X-25733Y345380D01*
X-25810Y345238D01*
X-25875Y345117D01*
X-25941Y345008D01*
X-25996Y344921D01*
X-26039Y344877D01*
X-26050Y344855D01*
X-26182Y344713D01*
X-26324Y344582D01*
X-26477Y344473D01*
X-26619Y344374D01*
X-26739Y344298D01*
X-26848Y344243D01*
X-26914Y344210D01*
X-26925Y344199D01*
X-26936D01*
X-27045Y344156D01*
X-27165Y344123D01*
X-27438Y344057D01*
X-27712Y344014D01*
X-27974Y343992D01*
X-28094Y343981D01*
X-28214Y343970D01*
X-28313D01*
X-28411Y343959D01*
X-28586D01*
X-28903Y343970D01*
X-29187Y343992D01*
X-29439Y344035D01*
X-29646Y344079D01*
X-29734Y344090D01*
X-29821Y344112D01*
X-29887Y344134D01*
X-29941Y344156D01*
X-29985Y344166D01*
X-30018Y344178D01*
X-30029Y344188D01*
X-30040D01*
X-30237Y344276D01*
X-30411Y344385D01*
X-30564Y344483D01*
X-30696Y344582D01*
X-30794Y344669D01*
X-30870Y344735D01*
X-30914Y344779D01*
X-30925Y344800D01*
X-31045Y344953D01*
X-31144Y345117D01*
X-31220Y345270D01*
X-31286Y345424D01*
X-31330Y345555D01*
X-31362Y345664D01*
X-31373Y345697D01*
Y345729D01*
X-31384Y345741D01*
Y345751D01*
X-31406Y345872D01*
X-31428Y346003D01*
X-31450Y346145D01*
X-31461Y346287D01*
X-31482Y346615D01*
X-31504Y346932D01*
Y347074D01*
Y347216D01*
X-31515Y347347D01*
Y347457D01*
Y347544D01*
Y347620D01*
Y347664D01*
Y347675D01*
Y351664D01*
X-29985D01*
Y347467D01*
Y347304D01*
Y347150D01*
X-29974Y347008D01*
Y346877D01*
X-29963Y346768D01*
Y346659D01*
X-29952Y346560D01*
Y346473D01*
X-29930Y346342D01*
X-29919Y346243D01*
X-29909Y346189D01*
Y346167D01*
X-29876Y346025D01*
X-29821Y345904D01*
X-29756Y345795D01*
X-29690Y345697D01*
X-29624Y345620D01*
X-29570Y345566D01*
X-29526Y345533D01*
X-29515Y345522D01*
X-29384Y345434D01*
X-29220Y345369D01*
X-29067Y345325D01*
X-28903Y345292D01*
X-28761Y345270D01*
X-28652Y345259D01*
X-28542D01*
X-28313Y345270D01*
X-28116Y345303D01*
X-27941Y345347D01*
X-27788Y345402D01*
X-27679Y345445D01*
X-27591Y345489D01*
X-27548Y345522D01*
X-27526Y345533D01*
X-27406Y345642D01*
X-27307Y345773D01*
X-27220Y345894D01*
X-27165Y346014D01*
X-27121Y346123D01*
X-27089Y346210D01*
X-27067Y346265D01*
Y346287D01*
X-27056Y346353D01*
X-27045Y346418D01*
Y346506D01*
X-27034Y346604D01*
X-27023Y346812D01*
Y347030D01*
X-27012Y347227D01*
Y347314D01*
Y347402D01*
Y347467D01*
Y347511D01*
Y347544D01*
Y347555D01*
Y351664D01*
X-25482D01*
Y347620D01*
D02*
G37*
G36*
X-46107Y350681D02*
Y349588D01*
X-45440D01*
Y348429D01*
X-46107D01*
Y346036D01*
Y345894D01*
Y345773D01*
Y345653D01*
X-46118Y345555D01*
Y345380D01*
X-46129Y345238D01*
X-46140Y345128D01*
Y345063D01*
X-46151Y345019D01*
Y345008D01*
X-46172Y344888D01*
X-46205Y344779D01*
X-46238Y344680D01*
X-46271Y344604D01*
X-46304Y344538D01*
X-46325Y344494D01*
X-46336Y344462D01*
X-46347Y344451D01*
X-46413Y344374D01*
X-46489Y344309D01*
X-46642Y344199D01*
X-46708Y344166D01*
X-46763Y344134D01*
X-46806Y344123D01*
X-46817Y344112D01*
X-46938Y344068D01*
X-47058Y344035D01*
X-47178Y344014D01*
X-47287Y344003D01*
X-47386Y343992D01*
X-47462Y343981D01*
X-47528D01*
X-47757Y343992D01*
X-47976Y344014D01*
X-48173Y344046D01*
X-48337Y344090D01*
X-48479Y344123D01*
X-48588Y344156D01*
X-48654Y344178D01*
X-48665Y344188D01*
X-48675D01*
X-48544Y345314D01*
X-48413Y345270D01*
X-48293Y345238D01*
X-48195Y345216D01*
X-48107Y345205D01*
X-48041Y345194D01*
X-47998Y345183D01*
X-47954D01*
X-47856Y345194D01*
X-47779Y345216D01*
X-47735Y345238D01*
X-47714Y345249D01*
X-47648Y345314D01*
X-47615Y345369D01*
X-47593Y345413D01*
X-47582Y345434D01*
Y345456D01*
X-47572Y345500D01*
Y345598D01*
Y345729D01*
X-47561Y345861D01*
Y345992D01*
Y346101D01*
Y346145D01*
Y346178D01*
Y346199D01*
Y346210D01*
Y348429D01*
X-48555D01*
Y349588D01*
X-47561D01*
Y351533D01*
X-46107Y350681D01*
D02*
G37*
G36*
X-17875Y344101D02*
X-19405D01*
Y347260D01*
X-19897D01*
X-20050Y347249D01*
X-20181Y347238D01*
X-20290Y347216D01*
X-20378Y347205D01*
X-20432Y347183D01*
X-20465Y347172D01*
X-20476D01*
X-20563Y347129D01*
X-20651Y347085D01*
X-20727Y347030D01*
X-20804Y346987D01*
X-20858Y346932D01*
X-20902Y346888D01*
X-20924Y346866D01*
X-20935Y346855D01*
X-20979Y346801D01*
X-21033Y346746D01*
X-21154Y346582D01*
X-21285Y346407D01*
X-21427Y346210D01*
X-21547Y346036D01*
X-21602Y345948D01*
X-21645Y345883D01*
X-21689Y345828D01*
X-21722Y345784D01*
X-21733Y345751D01*
X-21744Y345741D01*
X-22837Y344101D01*
X-24673D01*
X-23744Y345577D01*
X-23646Y345729D01*
X-23547Y345883D01*
X-23460Y346014D01*
X-23372Y346134D01*
X-23296Y346243D01*
X-23230Y346353D01*
X-23099Y346516D01*
X-23001Y346648D01*
X-22935Y346735D01*
X-22881Y346790D01*
X-22870Y346801D01*
X-22749Y346932D01*
X-22607Y347052D01*
X-22476Y347150D01*
X-22345Y347249D01*
X-22236Y347325D01*
X-22148Y347380D01*
X-22083Y347424D01*
X-22072Y347435D01*
X-22061D01*
X-22247Y347467D01*
X-22411Y347511D01*
X-22564Y347555D01*
X-22717Y347609D01*
X-22848Y347664D01*
X-22968Y347719D01*
X-23088Y347773D01*
X-23187Y347839D01*
X-23274Y347894D01*
X-23351Y347948D01*
X-23416Y348003D01*
X-23460Y348047D01*
X-23504Y348079D01*
X-23536Y348112D01*
X-23547Y348123D01*
X-23558Y348134D01*
X-23646Y348243D01*
X-23722Y348353D01*
X-23853Y348593D01*
X-23941Y348823D01*
X-23995Y349052D01*
X-24039Y349249D01*
X-24050Y349325D01*
Y349402D01*
X-24061Y349457D01*
Y349511D01*
Y349533D01*
Y349544D01*
X-24050Y349785D01*
X-24006Y350014D01*
X-23952Y350211D01*
X-23897Y350386D01*
X-23832Y350528D01*
X-23777Y350637D01*
X-23755Y350670D01*
X-23733Y350703D01*
X-23722Y350714D01*
Y350725D01*
X-23591Y350910D01*
X-23449Y351063D01*
X-23307Y351184D01*
X-23165Y351293D01*
X-23034Y351359D01*
X-22935Y351413D01*
X-22870Y351446D01*
X-22859Y351457D01*
X-22848D01*
X-22738Y351490D01*
X-22618Y351522D01*
X-22345Y351577D01*
X-22050Y351610D01*
X-21766Y351643D01*
X-21624D01*
X-21503Y351654D01*
X-21383D01*
X-21285Y351664D01*
X-17875D01*
Y344101D01*
D02*
G37*
G36*
X-49550Y344101D02*
X-51003D01*
Y349588D01*
X-49550D01*
Y344101D01*
D02*
G37*
G36*
X-41768Y349697D02*
X-41494Y349653D01*
X-41243Y349599D01*
X-41024Y349533D01*
X-40937Y349489D01*
X-40850Y349457D01*
X-40773Y349435D01*
X-40718Y349402D01*
X-40664Y349380D01*
X-40631Y349358D01*
X-40609Y349347D01*
X-40598D01*
X-40369Y349194D01*
X-40172Y349030D01*
X-39997Y348855D01*
X-39855Y348692D01*
X-39746Y348538D01*
X-39658Y348418D01*
X-39625Y348375D01*
X-39614Y348342D01*
X-39593Y348320D01*
Y348309D01*
X-39472Y348058D01*
X-39396Y347806D01*
X-39330Y347577D01*
X-39287Y347369D01*
X-39265Y347183D01*
X-39254Y347107D01*
Y347041D01*
X-39243Y346997D01*
Y346954D01*
Y346932D01*
Y346921D01*
X-39254Y346582D01*
X-39297Y346265D01*
X-39352Y345992D01*
X-39385Y345872D01*
X-39418Y345762D01*
X-39450Y345664D01*
X-39483Y345577D01*
X-39516Y345500D01*
X-39538Y345434D01*
X-39560Y345380D01*
X-39582Y345347D01*
X-39593Y345325D01*
Y345314D01*
X-39746Y345085D01*
X-39909Y344888D01*
X-40084Y344713D01*
X-40248Y344571D01*
X-40401Y344462D01*
X-40522Y344385D01*
X-40565Y344352D01*
X-40598Y344331D01*
X-40620Y344320D01*
X-40631D01*
X-40893Y344210D01*
X-41145Y344123D01*
X-41385Y344068D01*
X-41615Y344024D01*
X-41800Y344003D01*
X-41877Y343992D01*
X-41943D01*
X-41997Y343981D01*
X-42074D01*
X-42303Y343992D01*
X-42511Y344014D01*
X-42718Y344057D01*
X-42904Y344112D01*
X-43090Y344166D01*
X-43254Y344232D01*
X-43407Y344309D01*
X-43549Y344385D01*
X-43670Y344462D01*
X-43779Y344538D01*
X-43877Y344604D01*
X-43954Y344658D01*
X-44019Y344713D01*
X-44063Y344757D01*
X-44085Y344779D01*
X-44096Y344790D01*
X-44238Y344953D01*
X-44358Y345117D01*
X-44467Y345281D01*
X-44566Y345456D01*
X-44642Y345631D01*
X-44708Y345806D01*
X-44763Y345970D01*
X-44806Y346134D01*
X-44839Y346276D01*
X-44861Y346418D01*
X-44883Y346538D01*
X-44894Y346648D01*
X-44905Y346735D01*
Y346801D01*
Y346844D01*
Y346855D01*
X-44894Y347085D01*
X-44872Y347304D01*
X-44828Y347500D01*
X-44784Y347697D01*
X-44719Y347872D01*
X-44653Y348047D01*
X-44577Y348200D01*
X-44511Y348342D01*
X-44435Y348462D01*
X-44358Y348582D01*
X-44293Y348670D01*
X-44227Y348757D01*
X-44183Y348812D01*
X-44139Y348866D01*
X-44118Y348888D01*
X-44107Y348899D01*
X-43954Y349041D01*
X-43790Y349162D01*
X-43626Y349271D01*
X-43451Y349369D01*
X-43276Y349446D01*
X-43112Y349511D01*
X-42948Y349566D01*
X-42784Y349610D01*
X-42642Y349642D01*
X-42500Y349664D01*
X-42380Y349686D01*
X-42270Y349697D01*
X-42183Y349708D01*
X-42063D01*
X-41768Y349697D01*
D02*
G37*
G36*
X12341Y334740D02*
X10931D01*
Y340686D01*
X9445Y334740D01*
X7969D01*
X6483Y340686D01*
X6472Y334740D01*
X5062D01*
Y342304D01*
X7357D01*
X8702Y337134D01*
X10057Y342304D01*
X12341D01*
Y334740D01*
D02*
G37*
G36*
X-22952Y342435D02*
X-22668Y342402D01*
X-22416Y342348D01*
X-22165Y342282D01*
X-21946Y342206D01*
X-21727Y342118D01*
X-21542Y342020D01*
X-21367Y341921D01*
X-21203Y341823D01*
X-21072Y341725D01*
X-20951Y341637D01*
X-20853Y341561D01*
X-20777Y341495D01*
X-20722Y341441D01*
X-20689Y341408D01*
X-20678Y341397D01*
X-20503Y341189D01*
X-20361Y340971D01*
X-20230Y340741D01*
X-20121Y340501D01*
X-20022Y340249D01*
X-19946Y340009D01*
X-19880Y339768D01*
X-19826Y339539D01*
X-19782Y339309D01*
X-19760Y339112D01*
X-19738Y338927D01*
X-19716Y338774D01*
Y338643D01*
X-19705Y338544D01*
Y338479D01*
Y338468D01*
Y338457D01*
X-19716Y338129D01*
X-19749Y337823D01*
X-19793Y337528D01*
X-19858Y337265D01*
X-19924Y337014D01*
X-20011Y336773D01*
X-20099Y336566D01*
X-20186Y336380D01*
X-20274Y336205D01*
X-20361Y336052D01*
X-20449Y335932D01*
X-20514Y335823D01*
X-20580Y335746D01*
X-20624Y335681D01*
X-20656Y335648D01*
X-20667Y335637D01*
X-20853Y335451D01*
X-21050Y335298D01*
X-21258Y335156D01*
X-21465Y335047D01*
X-21673Y334948D01*
X-21881Y334861D01*
X-22077Y334795D01*
X-22263Y334740D01*
X-22449Y334697D01*
X-22613Y334664D01*
X-22766Y334642D01*
X-22886Y334631D01*
X-22995Y334620D01*
X-23072Y334609D01*
X-23137D01*
X-23367Y334620D01*
X-23575Y334631D01*
X-23782Y334664D01*
X-23968Y334708D01*
X-24143Y334751D01*
X-24307Y334795D01*
X-24460Y334850D01*
X-24602Y334915D01*
X-24722Y334970D01*
X-24832Y335025D01*
X-24930Y335068D01*
X-25006Y335112D01*
X-25072Y335156D01*
X-25116Y335189D01*
X-25138Y335200D01*
X-25149Y335210D01*
X-25291Y335331D01*
X-25422Y335462D01*
X-25662Y335757D01*
X-25859Y336063D01*
X-26012Y336358D01*
X-26078Y336500D01*
X-26132Y336631D01*
X-26176Y336752D01*
X-26220Y336850D01*
X-26252Y336937D01*
X-26274Y337003D01*
X-26285Y337047D01*
Y337058D01*
X-24799Y337517D01*
X-24711Y337222D01*
X-24613Y336970D01*
X-24515Y336763D01*
X-24405Y336588D01*
X-24318Y336456D01*
X-24241Y336369D01*
X-24187Y336314D01*
X-24165Y336293D01*
X-23990Y336161D01*
X-23815Y336074D01*
X-23640Y336008D01*
X-23487Y335954D01*
X-23345Y335932D01*
X-23225Y335921D01*
X-23181Y335910D01*
X-23126D01*
X-22974Y335921D01*
X-22831Y335932D01*
X-22569Y336008D01*
X-22340Y336096D01*
X-22154Y336216D01*
X-22001Y336325D01*
X-21891Y336413D01*
X-21848Y336456D01*
X-21815Y336489D01*
X-21804Y336500D01*
X-21793Y336511D01*
X-21706Y336631D01*
X-21629Y336773D01*
X-21553Y336927D01*
X-21498Y337090D01*
X-21410Y337429D01*
X-21345Y337768D01*
X-21323Y337932D01*
X-21312Y338074D01*
X-21290Y338216D01*
Y338336D01*
X-21279Y338424D01*
Y338500D01*
Y338555D01*
Y338566D01*
X-21290Y338817D01*
X-21301Y339047D01*
X-21323Y339255D01*
X-21356Y339451D01*
X-21400Y339626D01*
X-21443Y339790D01*
X-21487Y339932D01*
X-21542Y340063D01*
X-21585Y340173D01*
X-21629Y340271D01*
X-21673Y340348D01*
X-21717Y340413D01*
X-21749Y340468D01*
X-21771Y340501D01*
X-21793Y340523D01*
Y340533D01*
X-21891Y340643D01*
X-22001Y340741D01*
X-22110Y340818D01*
X-22230Y340883D01*
X-22460Y340992D01*
X-22678Y341069D01*
X-22864Y341113D01*
X-22952Y341124D01*
X-23017Y341135D01*
X-23083Y341145D01*
X-23159D01*
X-23378Y341135D01*
X-23575Y341091D01*
X-23750Y341036D01*
X-23902Y340971D01*
X-24023Y340905D01*
X-24110Y340850D01*
X-24165Y340807D01*
X-24187Y340796D01*
X-24329Y340665D01*
X-24460Y340511D01*
X-24558Y340358D01*
X-24635Y340206D01*
X-24690Y340074D01*
X-24722Y339976D01*
X-24744Y339932D01*
Y339899D01*
X-24755Y339889D01*
Y339878D01*
X-26263Y340238D01*
X-26154Y340555D01*
X-26034Y340828D01*
X-25903Y341069D01*
X-25782Y341266D01*
X-25662Y341419D01*
X-25619Y341484D01*
X-25575Y341539D01*
X-25542Y341572D01*
X-25509Y341605D01*
X-25498Y341626D01*
X-25487D01*
X-25323Y341769D01*
X-25138Y341900D01*
X-24963Y342009D01*
X-24777Y342096D01*
X-24580Y342184D01*
X-24394Y342249D01*
X-24209Y342304D01*
X-24034Y342348D01*
X-23870Y342381D01*
X-23717Y342402D01*
X-23586Y342424D01*
X-23465Y342435D01*
X-23367Y342446D01*
X-23236D01*
X-22952Y342435D01*
D02*
G37*
G36*
X-3004Y341320D02*
Y340227D01*
X-2338D01*
Y339069D01*
X-3004D01*
Y336675D01*
Y336533D01*
Y336413D01*
Y336293D01*
X-3015Y336194D01*
Y336019D01*
X-3026Y335877D01*
X-3037Y335768D01*
Y335702D01*
X-3048Y335659D01*
Y335648D01*
X-3070Y335527D01*
X-3103Y335418D01*
X-3136Y335320D01*
X-3168Y335243D01*
X-3201Y335178D01*
X-3223Y335134D01*
X-3234Y335101D01*
X-3245Y335090D01*
X-3310Y335014D01*
X-3387Y334948D01*
X-3540Y334839D01*
X-3605Y334806D01*
X-3660Y334773D01*
X-3704Y334762D01*
X-3715Y334751D01*
X-3835Y334708D01*
X-3955Y334675D01*
X-4075Y334653D01*
X-4185Y334642D01*
X-4283Y334631D01*
X-4360Y334620D01*
X-4425D01*
X-4655Y334631D01*
X-4873Y334653D01*
X-5070Y334686D01*
X-5234Y334730D01*
X-5376Y334762D01*
X-5486Y334795D01*
X-5551Y334817D01*
X-5562Y334828D01*
X-5573D01*
X-5442Y335954D01*
X-5311Y335910D01*
X-5190Y335877D01*
X-5092Y335855D01*
X-5005Y335844D01*
X-4939Y335834D01*
X-4895Y335823D01*
X-4852D01*
X-4753Y335834D01*
X-4677Y335855D01*
X-4633Y335877D01*
X-4611Y335888D01*
X-4546Y335954D01*
X-4513Y336008D01*
X-4491Y336052D01*
X-4480Y336074D01*
Y336096D01*
X-4469Y336140D01*
Y336238D01*
Y336369D01*
X-4458Y336500D01*
Y336631D01*
Y336741D01*
Y336784D01*
Y336817D01*
Y336839D01*
Y336850D01*
Y339069D01*
X-5453D01*
Y340227D01*
X-4458D01*
Y342173D01*
X-3004Y341320D01*
D02*
G37*
G36*
X-40582D02*
Y340227D01*
X-39915D01*
Y339069D01*
X-40582D01*
Y336675D01*
Y336533D01*
Y336413D01*
Y336293D01*
X-40593Y336194D01*
Y336019D01*
X-40604Y335877D01*
X-40615Y335768D01*
Y335702D01*
X-40626Y335659D01*
Y335648D01*
X-40647Y335527D01*
X-40680Y335418D01*
X-40713Y335320D01*
X-40746Y335243D01*
X-40778Y335178D01*
X-40800Y335134D01*
X-40811Y335101D01*
X-40822Y335090D01*
X-40888Y335014D01*
X-40964Y334948D01*
X-41117Y334839D01*
X-41183Y334806D01*
X-41238Y334773D01*
X-41281Y334762D01*
X-41292Y334751D01*
X-41412Y334708D01*
X-41533Y334675D01*
X-41653Y334653D01*
X-41762Y334642D01*
X-41860Y334631D01*
X-41937Y334620D01*
X-42003D01*
X-42232Y334631D01*
X-42451Y334653D01*
X-42647Y334686D01*
X-42812Y334730D01*
X-42954Y334762D01*
X-43063Y334795D01*
X-43128Y334817D01*
X-43139Y334828D01*
X-43150D01*
X-43019Y335954D01*
X-42888Y335910D01*
X-42768Y335877D01*
X-42669Y335855D01*
X-42582Y335844D01*
X-42516Y335834D01*
X-42473Y335823D01*
X-42429D01*
X-42331Y335834D01*
X-42254Y335855D01*
X-42210Y335877D01*
X-42188Y335888D01*
X-42123Y335954D01*
X-42090Y336008D01*
X-42068Y336052D01*
X-42057Y336074D01*
Y336096D01*
X-42046Y336140D01*
Y336238D01*
Y336369D01*
X-42035Y336500D01*
Y336631D01*
Y336741D01*
Y336784D01*
Y336817D01*
Y336839D01*
Y336850D01*
Y339069D01*
X-43030D01*
Y340227D01*
X-42035D01*
Y342173D01*
X-40582Y341320D01*
D02*
G37*
G36*
X-62365Y340337D02*
X-62179Y340315D01*
X-61994Y340271D01*
X-61830Y340227D01*
X-61666Y340173D01*
X-61524Y340107D01*
X-61382Y340031D01*
X-61261Y339965D01*
X-61152Y339889D01*
X-61054Y339812D01*
X-60966Y339746D01*
X-60901Y339692D01*
X-60846Y339648D01*
X-60802Y339604D01*
X-60780Y339582D01*
X-60769Y339572D01*
X-60649Y339419D01*
X-60540Y339255D01*
X-60441Y339091D01*
X-60354Y338916D01*
X-60289Y338730D01*
X-60234Y338555D01*
X-60146Y338216D01*
X-60114Y338052D01*
X-60092Y337910D01*
X-60081Y337779D01*
X-60070Y337670D01*
X-60059Y337571D01*
Y337495D01*
Y337451D01*
Y337440D01*
X-60070Y337232D01*
X-60081Y337025D01*
X-60114Y336839D01*
X-60146Y336664D01*
X-60179Y336489D01*
X-60234Y336336D01*
X-60278Y336194D01*
X-60332Y336063D01*
X-60376Y335943D01*
X-60431Y335844D01*
X-60474Y335757D01*
X-60507Y335681D01*
X-60551Y335626D01*
X-60573Y335582D01*
X-60584Y335560D01*
X-60595Y335549D01*
X-60737Y335385D01*
X-60879Y335243D01*
X-61043Y335123D01*
X-61218Y335014D01*
X-61392Y334926D01*
X-61567Y334850D01*
X-61742Y334784D01*
X-61917Y334740D01*
X-62070Y334697D01*
X-62223Y334675D01*
X-62365Y334653D01*
X-62485Y334631D01*
X-62584D01*
X-62649Y334620D01*
X-62715D01*
X-63032Y334642D01*
X-63327Y334686D01*
X-63578Y334751D01*
X-63797Y334828D01*
X-63895Y334872D01*
X-63972Y334904D01*
X-64048Y334937D01*
X-64103Y334970D01*
X-64147Y335003D01*
X-64191Y335014D01*
X-64201Y335036D01*
X-64212D01*
X-64420Y335210D01*
X-64606Y335396D01*
X-64759Y335604D01*
X-64879Y335801D01*
X-64978Y335976D01*
X-65010Y336052D01*
X-65043Y336118D01*
X-65065Y336172D01*
X-65087Y336216D01*
X-65098Y336238D01*
Y336249D01*
X-63655Y336489D01*
X-63600Y336347D01*
X-63546Y336216D01*
X-63491Y336118D01*
X-63425Y336030D01*
X-63382Y335965D01*
X-63338Y335921D01*
X-63305Y335899D01*
X-63294Y335888D01*
X-63207Y335823D01*
X-63108Y335779D01*
X-63010Y335746D01*
X-62923Y335724D01*
X-62846Y335713D01*
X-62781Y335702D01*
X-62726D01*
X-62551Y335713D01*
X-62387Y335757D01*
X-62234Y335812D01*
X-62114Y335877D01*
X-62015Y335943D01*
X-61950Y335997D01*
X-61895Y336041D01*
X-61884Y336052D01*
X-61775Y336194D01*
X-61699Y336358D01*
X-61633Y336533D01*
X-61589Y336686D01*
X-61567Y336839D01*
X-61556Y336948D01*
X-61545Y336992D01*
Y337025D01*
Y337047D01*
Y337058D01*
X-65174D01*
Y337364D01*
X-65152Y337637D01*
X-65120Y337899D01*
X-65076Y338140D01*
X-65021Y338369D01*
X-64967Y338566D01*
X-64901Y338752D01*
X-64835Y338916D01*
X-64770Y339058D01*
X-64704Y339189D01*
X-64650Y339287D01*
X-64595Y339375D01*
X-64551Y339440D01*
X-64518Y339495D01*
X-64497Y339517D01*
X-64486Y339528D01*
X-64354Y339670D01*
X-64201Y339801D01*
X-64048Y339910D01*
X-63895Y339998D01*
X-63731Y340085D01*
X-63568Y340151D01*
X-63415Y340206D01*
X-63261Y340249D01*
X-63119Y340282D01*
X-62988Y340304D01*
X-62868Y340326D01*
X-62770Y340337D01*
X-62682Y340348D01*
X-62562D01*
X-62365Y340337D01*
D02*
G37*
G36*
X-15301Y340337D02*
X-15191Y340326D01*
X-15082Y340293D01*
X-14995Y340260D01*
X-14918Y340227D01*
X-14852Y340206D01*
X-14820Y340184D01*
X-14809Y340173D01*
X-14699Y340096D01*
X-14601Y339987D01*
X-14492Y339867D01*
X-14404Y339746D01*
X-14317Y339626D01*
X-14251Y339528D01*
X-14208Y339462D01*
X-14197Y339451D01*
Y340227D01*
X-12852D01*
Y334740D01*
X-14306D01*
Y336424D01*
Y336675D01*
Y336905D01*
X-14317Y337112D01*
X-14328Y337298D01*
Y337473D01*
X-14339Y337615D01*
X-14350Y337757D01*
X-14361Y337866D01*
X-14372Y337965D01*
X-14382Y338052D01*
X-14393Y338118D01*
Y338173D01*
X-14404Y338205D01*
X-14415Y338238D01*
Y338260D01*
X-14459Y338413D01*
X-14514Y338544D01*
X-14568Y338653D01*
X-14623Y338730D01*
X-14667Y338795D01*
X-14710Y338839D01*
X-14732Y338861D01*
X-14743Y338872D01*
X-14831Y338927D01*
X-14918Y338970D01*
X-15006Y339003D01*
X-15082Y339025D01*
X-15148Y339036D01*
X-15213Y339047D01*
X-15257D01*
X-15377Y339036D01*
X-15497Y339014D01*
X-15607Y338970D01*
X-15716Y338927D01*
X-15803Y338883D01*
X-15869Y338839D01*
X-15924Y338817D01*
X-15935Y338807D01*
X-16394Y340063D01*
X-16219Y340162D01*
X-16055Y340227D01*
X-15891Y340282D01*
X-15738Y340315D01*
X-15618Y340337D01*
X-15519Y340348D01*
X-15432D01*
X-15301Y340337D01*
D02*
G37*
G36*
X-36986D02*
X-36789Y340304D01*
X-36614Y340260D01*
X-36439Y340206D01*
X-36275Y340129D01*
X-36133Y340053D01*
X-35991Y339965D01*
X-35871Y339889D01*
X-35762Y339801D01*
X-35663Y339714D01*
X-35576Y339637D01*
X-35510Y339561D01*
X-35456Y339506D01*
X-35412Y339462D01*
X-35390Y339429D01*
X-35379Y339419D01*
Y340227D01*
X-34035D01*
Y334740D01*
X-35488D01*
Y337211D01*
Y337375D01*
Y337528D01*
X-35499Y337670D01*
X-35510Y337790D01*
Y337910D01*
X-35521Y338009D01*
X-35532Y338107D01*
X-35543Y338183D01*
X-35565Y338315D01*
X-35576Y338402D01*
X-35598Y338457D01*
Y338468D01*
X-35641Y338588D01*
X-35707Y338708D01*
X-35772Y338795D01*
X-35838Y338883D01*
X-35904Y338938D01*
X-35958Y338992D01*
X-35991Y339014D01*
X-36002Y339025D01*
X-36122Y339091D01*
X-36242Y339145D01*
X-36352Y339178D01*
X-36461Y339211D01*
X-36549Y339222D01*
X-36614Y339233D01*
X-36680D01*
X-36789Y339222D01*
X-36887Y339211D01*
X-36964Y339189D01*
X-37040Y339156D01*
X-37106Y339123D01*
X-37150Y339102D01*
X-37172Y339091D01*
X-37183Y339080D01*
X-37259Y339025D01*
X-37314Y338960D01*
X-37412Y338828D01*
X-37445Y338763D01*
X-37467Y338719D01*
X-37488Y338686D01*
Y338675D01*
X-37510Y338621D01*
X-37521Y338555D01*
X-37543Y338391D01*
X-37565Y338194D01*
X-37576Y338009D01*
X-37587Y337823D01*
Y337746D01*
Y337670D01*
Y337615D01*
Y337571D01*
Y337539D01*
Y337528D01*
Y334740D01*
X-39041D01*
Y338140D01*
Y338369D01*
X-39030Y338555D01*
X-39019Y338730D01*
X-38997Y338861D01*
X-38986Y338970D01*
X-38964Y339047D01*
X-38953Y339102D01*
Y339112D01*
X-38920Y339244D01*
X-38877Y339353D01*
X-38833Y339462D01*
X-38778Y339550D01*
X-38735Y339626D01*
X-38702Y339681D01*
X-38680Y339714D01*
X-38669Y339725D01*
X-38581Y339823D01*
X-38483Y339910D01*
X-38385Y339987D01*
X-38286Y340053D01*
X-38199Y340107D01*
X-38122Y340140D01*
X-38079Y340162D01*
X-38057Y340173D01*
X-37904Y340227D01*
X-37751Y340271D01*
X-37609Y340304D01*
X-37478Y340326D01*
X-37357Y340337D01*
X-37259Y340348D01*
X-37183D01*
X-36986Y340337D01*
D02*
G37*
G36*
X-46418D02*
X-46309Y340326D01*
X-46200Y340293D01*
X-46112Y340260D01*
X-46036Y340227D01*
X-45970Y340206D01*
X-45937Y340184D01*
X-45926Y340173D01*
X-45817Y340096D01*
X-45719Y339987D01*
X-45610Y339867D01*
X-45522Y339746D01*
X-45435Y339626D01*
X-45369Y339528D01*
X-45325Y339462D01*
X-45314Y339451D01*
Y340227D01*
X-43970D01*
Y334740D01*
X-45424D01*
Y336424D01*
Y336675D01*
Y336905D01*
X-45435Y337112D01*
X-45446Y337298D01*
Y337473D01*
X-45456Y337615D01*
X-45467Y337757D01*
X-45478Y337866D01*
X-45489Y337965D01*
X-45500Y338052D01*
X-45511Y338118D01*
Y338173D01*
X-45522Y338205D01*
X-45533Y338238D01*
Y338260D01*
X-45577Y338413D01*
X-45631Y338544D01*
X-45686Y338653D01*
X-45741Y338730D01*
X-45784Y338795D01*
X-45828Y338839D01*
X-45850Y338861D01*
X-45861Y338872D01*
X-45948Y338927D01*
X-46036Y338970D01*
X-46123Y339003D01*
X-46200Y339025D01*
X-46265Y339036D01*
X-46331Y339047D01*
X-46375D01*
X-46495Y339036D01*
X-46615Y339014D01*
X-46724Y338970D01*
X-46834Y338927D01*
X-46921Y338883D01*
X-46987Y338839D01*
X-47041Y338817D01*
X-47052Y338807D01*
X-47511Y340063D01*
X-47337Y340162D01*
X-47172Y340227D01*
X-47009Y340282D01*
X-46856Y340315D01*
X-46735Y340337D01*
X-46637Y340348D01*
X-46549D01*
X-46418Y340337D01*
D02*
G37*
G36*
X-54594Y334740D02*
X-56048D01*
Y342304D01*
X-54594D01*
Y334740D01*
D02*
G37*
G36*
X-57534D02*
X-58988D01*
Y342304D01*
X-57534D01*
Y334740D01*
D02*
G37*
G36*
X-68748Y340337D02*
X-68639Y340326D01*
X-68530Y340293D01*
X-68442Y340260D01*
X-68366Y340227D01*
X-68300Y340206D01*
X-68267Y340184D01*
X-68256Y340173D01*
X-68147Y340096D01*
X-68049Y339987D01*
X-67940Y339867D01*
X-67852Y339746D01*
X-67765Y339626D01*
X-67699Y339528D01*
X-67655Y339462D01*
X-67644Y339451D01*
Y340227D01*
X-66300D01*
Y334740D01*
X-67754D01*
Y336424D01*
Y336675D01*
Y336905D01*
X-67765Y337112D01*
X-67776Y337298D01*
Y337473D01*
X-67787Y337615D01*
X-67797Y337757D01*
X-67808Y337866D01*
X-67819Y337965D01*
X-67830Y338052D01*
X-67841Y338118D01*
Y338173D01*
X-67852Y338205D01*
X-67863Y338238D01*
Y338260D01*
X-67907Y338413D01*
X-67961Y338544D01*
X-68016Y338653D01*
X-68071Y338730D01*
X-68114Y338795D01*
X-68158Y338839D01*
X-68180Y338861D01*
X-68191Y338872D01*
X-68278Y338927D01*
X-68366Y338970D01*
X-68453Y339003D01*
X-68530Y339025D01*
X-68595Y339036D01*
X-68661Y339047D01*
X-68705D01*
X-68825Y339036D01*
X-68945Y339014D01*
X-69054Y338970D01*
X-69164Y338927D01*
X-69251Y338883D01*
X-69317Y338839D01*
X-69371Y338817D01*
X-69382Y338807D01*
X-69841Y340063D01*
X-69666Y340162D01*
X-69503Y340227D01*
X-69339Y340282D01*
X-69186Y340315D01*
X-69065Y340337D01*
X-68967Y340348D01*
X-68879D01*
X-68748Y340337D01*
D02*
G37*
G36*
X1335Y340337D02*
X1608Y340293D01*
X1860Y340238D01*
X2078Y340173D01*
X2166Y340129D01*
X2253Y340096D01*
X2329Y340074D01*
X2384Y340042D01*
X2439Y340020D01*
X2472Y339998D01*
X2493Y339987D01*
X2504D01*
X2734Y339834D01*
X2931Y339670D01*
X3105Y339495D01*
X3248Y339331D01*
X3357Y339178D01*
X3444Y339058D01*
X3477Y339014D01*
X3488Y338981D01*
X3510Y338960D01*
Y338949D01*
X3630Y338697D01*
X3707Y338446D01*
X3772Y338216D01*
X3816Y338009D01*
X3838Y337823D01*
X3849Y337746D01*
Y337681D01*
X3860Y337637D01*
Y337593D01*
Y337571D01*
Y337560D01*
X3849Y337222D01*
X3805Y336905D01*
X3750Y336631D01*
X3718Y336511D01*
X3685Y336402D01*
X3652Y336303D01*
X3619Y336216D01*
X3586Y336140D01*
X3565Y336074D01*
X3543Y336019D01*
X3521Y335986D01*
X3510Y335965D01*
Y335954D01*
X3357Y335724D01*
X3193Y335527D01*
X3018Y335353D01*
X2854Y335210D01*
X2701Y335101D01*
X2581Y335025D01*
X2537Y334992D01*
X2504Y334970D01*
X2482Y334959D01*
X2472D01*
X2209Y334850D01*
X1958Y334762D01*
X1717Y334708D01*
X1488Y334664D01*
X1302Y334642D01*
X1225Y334631D01*
X1160D01*
X1105Y334620D01*
X1029D01*
X799Y334631D01*
X592Y334653D01*
X384Y334697D01*
X198Y334751D01*
X12Y334806D01*
X-152Y334872D01*
X-305Y334948D01*
X-447Y335025D01*
X-567Y335101D01*
X-676Y335178D01*
X-775Y335243D01*
X-851Y335298D01*
X-917Y335353D01*
X-960Y335396D01*
X-982Y335418D01*
X-993Y335429D01*
X-1135Y335593D01*
X-1256Y335757D01*
X-1365Y335921D01*
X-1463Y336096D01*
X-1540Y336271D01*
X-1605Y336446D01*
X-1660Y336610D01*
X-1704Y336773D01*
X-1736Y336916D01*
X-1758Y337058D01*
X-1780Y337178D01*
X-1791Y337287D01*
X-1802Y337375D01*
Y337440D01*
Y337484D01*
Y337495D01*
X-1791Y337724D01*
X-1769Y337943D01*
X-1726Y338140D01*
X-1682Y338336D01*
X-1616Y338511D01*
X-1551Y338686D01*
X-1474Y338839D01*
X-1409Y338981D01*
X-1332Y339102D01*
X-1256Y339222D01*
X-1190Y339309D01*
X-1124Y339397D01*
X-1081Y339451D01*
X-1037Y339506D01*
X-1015Y339528D01*
X-1004Y339539D01*
X-851Y339681D01*
X-687Y339801D01*
X-523Y339910D01*
X-348Y340009D01*
X-174Y340085D01*
X-10Y340151D01*
X154Y340206D01*
X318Y340249D01*
X460Y340282D01*
X603Y340304D01*
X723Y340326D01*
X832Y340337D01*
X919Y340348D01*
X1040D01*
X1335Y340337D01*
D02*
G37*
G36*
X-8644D02*
X-8371Y340293D01*
X-8120Y340238D01*
X-7901Y340173D01*
X-7814Y340129D01*
X-7726Y340096D01*
X-7650Y340074D01*
X-7595Y340042D01*
X-7540Y340020D01*
X-7508Y339998D01*
X-7486Y339987D01*
X-7475D01*
X-7245Y339834D01*
X-7049Y339670D01*
X-6874Y339495D01*
X-6731Y339331D01*
X-6622Y339178D01*
X-6535Y339058D01*
X-6502Y339014D01*
X-6491Y338981D01*
X-6469Y338960D01*
Y338949D01*
X-6349Y338697D01*
X-6273Y338446D01*
X-6207Y338216D01*
X-6163Y338009D01*
X-6141Y337823D01*
X-6130Y337746D01*
Y337681D01*
X-6119Y337637D01*
Y337593D01*
Y337571D01*
Y337560D01*
X-6130Y337222D01*
X-6174Y336905D01*
X-6229Y336631D01*
X-6261Y336511D01*
X-6294Y336402D01*
X-6327Y336303D01*
X-6360Y336216D01*
X-6393Y336140D01*
X-6414Y336074D01*
X-6436Y336019D01*
X-6458Y335986D01*
X-6469Y335965D01*
Y335954D01*
X-6622Y335724D01*
X-6786Y335527D01*
X-6961Y335353D01*
X-7125Y335210D01*
X-7278Y335101D01*
X-7398Y335025D01*
X-7442Y334992D01*
X-7475Y334970D01*
X-7497Y334959D01*
X-7508D01*
X-7770Y334850D01*
X-8021Y334762D01*
X-8262Y334708D01*
X-8491Y334664D01*
X-8677Y334642D01*
X-8754Y334631D01*
X-8819D01*
X-8874Y334620D01*
X-8950D01*
X-9180Y334631D01*
X-9387Y334653D01*
X-9595Y334697D01*
X-9781Y334751D01*
X-9967Y334806D01*
X-10131Y334872D01*
X-10284Y334948D01*
X-10426Y335025D01*
X-10546Y335101D01*
X-10655Y335178D01*
X-10754Y335243D01*
X-10830Y335298D01*
X-10896Y335353D01*
X-10940Y335396D01*
X-10961Y335418D01*
X-10972Y335429D01*
X-11114Y335593D01*
X-11235Y335757D01*
X-11344Y335921D01*
X-11442Y336096D01*
X-11519Y336271D01*
X-11584Y336446D01*
X-11639Y336610D01*
X-11683Y336773D01*
X-11716Y336916D01*
X-11738Y337058D01*
X-11759Y337178D01*
X-11770Y337287D01*
X-11781Y337375D01*
Y337440D01*
Y337484D01*
Y337495D01*
X-11770Y337724D01*
X-11748Y337943D01*
X-11705Y338140D01*
X-11661Y338336D01*
X-11595Y338511D01*
X-11530Y338686D01*
X-11453Y338839D01*
X-11388Y338981D01*
X-11311Y339102D01*
X-11235Y339222D01*
X-11169Y339309D01*
X-11103Y339397D01*
X-11060Y339451D01*
X-11016Y339506D01*
X-10994Y339528D01*
X-10983Y339539D01*
X-10830Y339681D01*
X-10666Y339801D01*
X-10502Y339910D01*
X-10328Y340009D01*
X-10153Y340085D01*
X-9989Y340151D01*
X-9825Y340206D01*
X-9661Y340249D01*
X-9519Y340282D01*
X-9377Y340304D01*
X-9256Y340326D01*
X-9147Y340337D01*
X-9060Y340348D01*
X-8939D01*
X-8644Y340337D01*
D02*
G37*
G36*
X-29783D02*
X-29510Y340293D01*
X-29258Y340238D01*
X-29040Y340173D01*
X-28952Y340129D01*
X-28865Y340096D01*
X-28788Y340074D01*
X-28734Y340042D01*
X-28679Y340020D01*
X-28646Y339998D01*
X-28624Y339987D01*
X-28613D01*
X-28384Y339834D01*
X-28187Y339670D01*
X-28012Y339495D01*
X-27870Y339331D01*
X-27761Y339178D01*
X-27673Y339058D01*
X-27641Y339014D01*
X-27630Y338981D01*
X-27608Y338960D01*
Y338949D01*
X-27488Y338697D01*
X-27411Y338446D01*
X-27345Y338216D01*
X-27302Y338009D01*
X-27280Y337823D01*
X-27269Y337746D01*
Y337681D01*
X-27258Y337637D01*
Y337593D01*
Y337571D01*
Y337560D01*
X-27269Y337222D01*
X-27313Y336905D01*
X-27367Y336631D01*
X-27400Y336511D01*
X-27433Y336402D01*
X-27466Y336303D01*
X-27498Y336216D01*
X-27531Y336140D01*
X-27553Y336074D01*
X-27575Y336019D01*
X-27597Y335986D01*
X-27608Y335965D01*
Y335954D01*
X-27761Y335724D01*
X-27925Y335527D01*
X-28100Y335353D01*
X-28264Y335210D01*
X-28417Y335101D01*
X-28537Y335025D01*
X-28581Y334992D01*
X-28613Y334970D01*
X-28635Y334959D01*
X-28646D01*
X-28909Y334850D01*
X-29160Y334762D01*
X-29400Y334708D01*
X-29630Y334664D01*
X-29816Y334642D01*
X-29892Y334631D01*
X-29958D01*
X-30012Y334620D01*
X-30089D01*
X-30318Y334631D01*
X-30526Y334653D01*
X-30734Y334697D01*
X-30920Y334751D01*
X-31105Y334806D01*
X-31269Y334872D01*
X-31422Y334948D01*
X-31565Y335025D01*
X-31685Y335101D01*
X-31794Y335178D01*
X-31892Y335243D01*
X-31969Y335298D01*
X-32035Y335353D01*
X-32078Y335396D01*
X-32100Y335418D01*
X-32111Y335429D01*
X-32253Y335593D01*
X-32373Y335757D01*
X-32483Y335921D01*
X-32581Y336096D01*
X-32658Y336271D01*
X-32723Y336446D01*
X-32778Y336610D01*
X-32821Y336773D01*
X-32854Y336916D01*
X-32876Y337058D01*
X-32898Y337178D01*
X-32909Y337287D01*
X-32920Y337375D01*
Y337440D01*
Y337484D01*
Y337495D01*
X-32909Y337724D01*
X-32887Y337943D01*
X-32843Y338140D01*
X-32800Y338336D01*
X-32734Y338511D01*
X-32668Y338686D01*
X-32592Y338839D01*
X-32526Y338981D01*
X-32450Y339102D01*
X-32373Y339222D01*
X-32308Y339309D01*
X-32242Y339397D01*
X-32198Y339451D01*
X-32155Y339506D01*
X-32133Y339528D01*
X-32122Y339539D01*
X-31969Y339681D01*
X-31805Y339801D01*
X-31641Y339910D01*
X-31466Y340009D01*
X-31291Y340085D01*
X-31127Y340151D01*
X-30963Y340206D01*
X-30799Y340249D01*
X-30657Y340282D01*
X-30515Y340304D01*
X-30395Y340326D01*
X-30286Y340337D01*
X-30198Y340348D01*
X-30078D01*
X-29783Y340337D01*
D02*
G37*
G36*
X-50331Y340337D02*
X-50058Y340293D01*
X-49807Y340238D01*
X-49588Y340173D01*
X-49501Y340129D01*
X-49413Y340096D01*
X-49337Y340074D01*
X-49282Y340042D01*
X-49227Y340020D01*
X-49195Y339998D01*
X-49173Y339987D01*
X-49162D01*
X-48932Y339834D01*
X-48735Y339670D01*
X-48561Y339495D01*
X-48419Y339331D01*
X-48309Y339178D01*
X-48222Y339058D01*
X-48189Y339014D01*
X-48178Y338981D01*
X-48156Y338960D01*
Y338949D01*
X-48036Y338697D01*
X-47960Y338446D01*
X-47894Y338216D01*
X-47850Y338009D01*
X-47828Y337823D01*
X-47817Y337746D01*
Y337681D01*
X-47807Y337637D01*
Y337593D01*
Y337571D01*
Y337560D01*
X-47817Y337222D01*
X-47861Y336905D01*
X-47916Y336631D01*
X-47949Y336511D01*
X-47981Y336402D01*
X-48014Y336303D01*
X-48047Y336216D01*
X-48080Y336140D01*
X-48102Y336074D01*
X-48123Y336019D01*
X-48145Y335986D01*
X-48156Y335965D01*
Y335954D01*
X-48309Y335724D01*
X-48473Y335527D01*
X-48648Y335353D01*
X-48812Y335210D01*
X-48965Y335101D01*
X-49085Y335025D01*
X-49129Y334992D01*
X-49162Y334970D01*
X-49184Y334959D01*
X-49195D01*
X-49457Y334850D01*
X-49708Y334762D01*
X-49949Y334708D01*
X-50178Y334664D01*
X-50364Y334642D01*
X-50441Y334631D01*
X-50506D01*
X-50561Y334620D01*
X-50637D01*
X-50867Y334631D01*
X-51074Y334653D01*
X-51282Y334697D01*
X-51468Y334751D01*
X-51654Y334806D01*
X-51818Y334872D01*
X-51971Y334948D01*
X-52113Y335025D01*
X-52233Y335101D01*
X-52342Y335178D01*
X-52441Y335243D01*
X-52517Y335298D01*
X-52583Y335353D01*
X-52627Y335396D01*
X-52649Y335418D01*
X-52659Y335429D01*
X-52802Y335593D01*
X-52922Y335757D01*
X-53031Y335921D01*
X-53129Y336096D01*
X-53206Y336271D01*
X-53272Y336446D01*
X-53326Y336610D01*
X-53370Y336773D01*
X-53403Y336916D01*
X-53425Y337058D01*
X-53446Y337178D01*
X-53457Y337287D01*
X-53468Y337375D01*
Y337440D01*
Y337484D01*
Y337495D01*
X-53457Y337724D01*
X-53435Y337943D01*
X-53392Y338140D01*
X-53348Y338336D01*
X-53282Y338511D01*
X-53217Y338686D01*
X-53140Y338839D01*
X-53075Y338981D01*
X-52998Y339102D01*
X-52922Y339222D01*
X-52856Y339309D01*
X-52790Y339397D01*
X-52747Y339451D01*
X-52703Y339506D01*
X-52681Y339528D01*
X-52670Y339539D01*
X-52517Y339681D01*
X-52353Y339801D01*
X-52189Y339910D01*
X-52014Y340009D01*
X-51840Y340085D01*
X-51676Y340151D01*
X-51512Y340206D01*
X-51348Y340249D01*
X-51206Y340282D01*
X-51064Y340304D01*
X-50943Y340326D01*
X-50834Y340337D01*
X-50747Y340348D01*
X-50626D01*
X-50331Y340337D01*
D02*
G37*
G36*
X-12836Y333086D02*
X-12661Y333075D01*
X-12322Y333020D01*
X-12038Y332933D01*
X-11907Y332889D01*
X-11787Y332834D01*
X-11677Y332791D01*
X-11590Y332736D01*
X-11502Y332692D01*
X-11437Y332659D01*
X-11382Y332616D01*
X-11349Y332594D01*
X-11328Y332583D01*
X-11317Y332572D01*
X-11196Y332463D01*
X-11087Y332353D01*
X-10989Y332222D01*
X-10901Y332080D01*
X-10770Y331796D01*
X-10661Y331523D01*
X-10628Y331381D01*
X-10595Y331260D01*
X-10563Y331151D01*
X-10552Y331053D01*
X-10530Y330965D01*
Y330911D01*
X-10519Y330867D01*
Y330856D01*
X-11962Y330714D01*
X-11983Y330932D01*
X-12027Y331118D01*
X-12071Y331282D01*
X-12126Y331402D01*
X-12169Y331501D01*
X-12213Y331566D01*
X-12246Y331610D01*
X-12257Y331621D01*
X-12366Y331709D01*
X-12486Y331774D01*
X-12606Y331829D01*
X-12727Y331861D01*
X-12825Y331883D01*
X-12912Y331894D01*
X-12989D01*
X-13153Y331883D01*
X-13295Y331851D01*
X-13415Y331807D01*
X-13524Y331763D01*
X-13601Y331719D01*
X-13667Y331676D01*
X-13699Y331643D01*
X-13710Y331632D01*
X-13798Y331523D01*
X-13863Y331402D01*
X-13907Y331282D01*
X-13940Y331162D01*
X-13962Y331053D01*
X-13973Y330954D01*
Y330900D01*
Y330889D01*
Y330878D01*
X-13962Y330714D01*
X-13929Y330561D01*
X-13874Y330408D01*
X-13820Y330277D01*
X-13765Y330156D01*
X-13710Y330069D01*
X-13678Y330014D01*
X-13667Y329993D01*
X-13623Y329927D01*
X-13557Y329850D01*
X-13470Y329752D01*
X-13382Y329665D01*
X-13186Y329457D01*
X-12989Y329249D01*
X-12792Y329052D01*
X-12705Y328965D01*
X-12617Y328900D01*
X-12552Y328834D01*
X-12508Y328790D01*
X-12475Y328757D01*
X-12464Y328747D01*
X-12246Y328539D01*
X-12049Y328342D01*
X-11863Y328156D01*
X-11699Y327992D01*
X-11546Y327828D01*
X-11415Y327675D01*
X-11295Y327544D01*
X-11196Y327413D01*
X-11109Y327304D01*
X-11033Y327205D01*
X-10967Y327129D01*
X-10923Y327052D01*
X-10879Y327009D01*
X-10858Y326965D01*
X-10836Y326943D01*
Y326932D01*
X-10694Y326681D01*
X-10584Y326418D01*
X-10497Y326178D01*
X-10431Y325959D01*
X-10388Y325763D01*
X-10377Y325686D01*
X-10366Y325621D01*
X-10355Y325566D01*
X-10344Y325522D01*
Y325500D01*
Y325489D01*
X-15426D01*
Y326834D01*
X-12541D01*
X-12628Y326976D01*
X-12727Y327096D01*
X-12770Y327151D01*
X-12803Y327194D01*
X-12825Y327216D01*
X-12836Y327227D01*
X-12880Y327271D01*
X-12923Y327326D01*
X-13055Y327446D01*
X-13197Y327588D01*
X-13339Y327730D01*
X-13481Y327861D01*
X-13601Y327971D01*
X-13645Y328014D01*
X-13678Y328047D01*
X-13699Y328058D01*
X-13710Y328069D01*
X-13951Y328298D01*
X-14148Y328484D01*
X-14311Y328659D01*
X-14443Y328790D01*
X-14541Y328900D01*
X-14607Y328976D01*
X-14650Y329031D01*
X-14661Y329042D01*
X-14803Y329227D01*
X-14924Y329402D01*
X-15022Y329566D01*
X-15098Y329708D01*
X-15164Y329829D01*
X-15208Y329927D01*
X-15230Y329982D01*
X-15240Y330003D01*
X-15306Y330178D01*
X-15350Y330353D01*
X-15383Y330517D01*
X-15405Y330670D01*
X-15415Y330790D01*
X-15426Y330889D01*
Y330954D01*
Y330976D01*
X-15415Y331140D01*
X-15394Y331304D01*
X-15372Y331457D01*
X-15328Y331599D01*
X-15219Y331851D01*
X-15109Y332069D01*
X-15044Y332168D01*
X-14989Y332244D01*
X-14934Y332321D01*
X-14880Y332375D01*
X-14836Y332419D01*
X-14814Y332463D01*
X-14792Y332474D01*
X-14782Y332485D01*
X-14661Y332594D01*
X-14519Y332692D01*
X-14388Y332769D01*
X-14235Y332834D01*
X-13951Y332944D01*
X-13667Y333020D01*
X-13535Y333042D01*
X-13415Y333064D01*
X-13306Y333075D01*
X-13207Y333086D01*
X-13131Y333097D01*
X-13022D01*
X-12836Y333086D01*
D02*
G37*
G36*
X-24597D02*
X-24422Y333075D01*
X-24083Y333020D01*
X-23799Y332933D01*
X-23667Y332889D01*
X-23547Y332834D01*
X-23438Y332791D01*
X-23351Y332736D01*
X-23263Y332692D01*
X-23198Y332659D01*
X-23143Y332616D01*
X-23110Y332594D01*
X-23088Y332583D01*
X-23077Y332572D01*
X-22957Y332463D01*
X-22848Y332353D01*
X-22749Y332222D01*
X-22662Y332080D01*
X-22531Y331796D01*
X-22422Y331523D01*
X-22389Y331381D01*
X-22356Y331260D01*
X-22323Y331151D01*
X-22312Y331053D01*
X-22290Y330965D01*
Y330911D01*
X-22279Y330867D01*
Y330856D01*
X-23722Y330714D01*
X-23744Y330932D01*
X-23788Y331118D01*
X-23832Y331282D01*
X-23886Y331402D01*
X-23930Y331501D01*
X-23974Y331566D01*
X-24006Y331610D01*
X-24017Y331621D01*
X-24127Y331709D01*
X-24247Y331774D01*
X-24367Y331829D01*
X-24487Y331861D01*
X-24586Y331883D01*
X-24673Y331894D01*
X-24750D01*
X-24914Y331883D01*
X-25056Y331851D01*
X-25176Y331807D01*
X-25285Y331763D01*
X-25362Y331719D01*
X-25427Y331676D01*
X-25460Y331643D01*
X-25471Y331632D01*
X-25558Y331523D01*
X-25624Y331402D01*
X-25668Y331282D01*
X-25701Y331162D01*
X-25722Y331053D01*
X-25733Y330954D01*
Y330900D01*
Y330889D01*
Y330878D01*
X-25722Y330714D01*
X-25690Y330561D01*
X-25635Y330408D01*
X-25580Y330277D01*
X-25526Y330156D01*
X-25471Y330069D01*
X-25438Y330014D01*
X-25427Y329993D01*
X-25384Y329927D01*
X-25318Y329850D01*
X-25231Y329752D01*
X-25143Y329665D01*
X-24946Y329457D01*
X-24750Y329249D01*
X-24553Y329052D01*
X-24465Y328965D01*
X-24378Y328900D01*
X-24312Y328834D01*
X-24269Y328790D01*
X-24236Y328757D01*
X-24225Y328747D01*
X-24006Y328539D01*
X-23810Y328342D01*
X-23624Y328156D01*
X-23460Y327992D01*
X-23307Y327828D01*
X-23176Y327675D01*
X-23055Y327544D01*
X-22957Y327413D01*
X-22870Y327304D01*
X-22793Y327205D01*
X-22728Y327129D01*
X-22684Y327052D01*
X-22640Y327009D01*
X-22618Y326965D01*
X-22596Y326943D01*
Y326932D01*
X-22454Y326681D01*
X-22345Y326418D01*
X-22258Y326178D01*
X-22192Y325959D01*
X-22148Y325763D01*
X-22137Y325686D01*
X-22126Y325621D01*
X-22116Y325566D01*
X-22105Y325522D01*
Y325500D01*
Y325489D01*
X-27187D01*
Y326834D01*
X-24302D01*
X-24389Y326976D01*
X-24487Y327096D01*
X-24531Y327151D01*
X-24564Y327194D01*
X-24586Y327216D01*
X-24597Y327227D01*
X-24640Y327271D01*
X-24684Y327326D01*
X-24815Y327446D01*
X-24957Y327588D01*
X-25099Y327730D01*
X-25242Y327861D01*
X-25362Y327971D01*
X-25405Y328014D01*
X-25438Y328047D01*
X-25460Y328058D01*
X-25471Y328069D01*
X-25712Y328298D01*
X-25908Y328484D01*
X-26072Y328659D01*
X-26203Y328790D01*
X-26302Y328900D01*
X-26367Y328976D01*
X-26411Y329031D01*
X-26422Y329042D01*
X-26564Y329227D01*
X-26684Y329402D01*
X-26783Y329566D01*
X-26859Y329708D01*
X-26925Y329829D01*
X-26968Y329927D01*
X-26990Y329982D01*
X-27001Y330003D01*
X-27067Y330178D01*
X-27110Y330353D01*
X-27143Y330517D01*
X-27165Y330670D01*
X-27176Y330790D01*
X-27187Y330889D01*
Y330954D01*
Y330976D01*
X-27176Y331140D01*
X-27154Y331304D01*
X-27132Y331457D01*
X-27089Y331599D01*
X-26979Y331851D01*
X-26870Y332069D01*
X-26805Y332168D01*
X-26750Y332244D01*
X-26695Y332321D01*
X-26640Y332375D01*
X-26597Y332419D01*
X-26575Y332463D01*
X-26553Y332474D01*
X-26542Y332485D01*
X-26422Y332594D01*
X-26280Y332692D01*
X-26149Y332769D01*
X-25996Y332834D01*
X-25712Y332944D01*
X-25427Y333020D01*
X-25296Y333042D01*
X-25176Y333064D01*
X-25067Y333075D01*
X-24968Y333086D01*
X-24892Y333097D01*
X-24782D01*
X-24597Y333086D01*
D02*
G37*
G36*
X-39877D02*
X-39702Y333075D01*
X-39363Y333020D01*
X-39079Y332933D01*
X-38948Y332889D01*
X-38827Y332834D01*
X-38718Y332791D01*
X-38631Y332736D01*
X-38543Y332692D01*
X-38478Y332659D01*
X-38423Y332616D01*
X-38390Y332594D01*
X-38368Y332583D01*
X-38357Y332572D01*
X-38237Y332463D01*
X-38128Y332353D01*
X-38030Y332222D01*
X-37942Y332080D01*
X-37811Y331796D01*
X-37702Y331523D01*
X-37669Y331381D01*
X-37636Y331260D01*
X-37603Y331151D01*
X-37592Y331053D01*
X-37571Y330965D01*
Y330911D01*
X-37560Y330867D01*
Y330856D01*
X-39002Y330714D01*
X-39024Y330932D01*
X-39068Y331118D01*
X-39112Y331282D01*
X-39166Y331402D01*
X-39210Y331501D01*
X-39254Y331566D01*
X-39287Y331610D01*
X-39297Y331621D01*
X-39407Y331709D01*
X-39527Y331774D01*
X-39647Y331829D01*
X-39767Y331861D01*
X-39866Y331883D01*
X-39953Y331894D01*
X-40030D01*
X-40194Y331883D01*
X-40336Y331851D01*
X-40456Y331807D01*
X-40565Y331763D01*
X-40642Y331719D01*
X-40707Y331676D01*
X-40740Y331643D01*
X-40751Y331632D01*
X-40839Y331523D01*
X-40904Y331402D01*
X-40948Y331282D01*
X-40981Y331162D01*
X-41003Y331053D01*
X-41014Y330954D01*
Y330900D01*
Y330889D01*
Y330878D01*
X-41003Y330714D01*
X-40970Y330561D01*
X-40915Y330408D01*
X-40860Y330277D01*
X-40806Y330156D01*
X-40751Y330069D01*
X-40718Y330014D01*
X-40707Y329993D01*
X-40664Y329927D01*
X-40598Y329850D01*
X-40511Y329752D01*
X-40423Y329665D01*
X-40227Y329457D01*
X-40030Y329249D01*
X-39833Y329052D01*
X-39746Y328965D01*
X-39658Y328900D01*
X-39593Y328834D01*
X-39549Y328790D01*
X-39516Y328757D01*
X-39505Y328747D01*
X-39287Y328539D01*
X-39090Y328342D01*
X-38904Y328156D01*
X-38740Y327992D01*
X-38587Y327828D01*
X-38456Y327675D01*
X-38336Y327544D01*
X-38237Y327413D01*
X-38150Y327304D01*
X-38073Y327205D01*
X-38008Y327129D01*
X-37964Y327052D01*
X-37920Y327009D01*
X-37898Y326965D01*
X-37876Y326943D01*
Y326932D01*
X-37734Y326681D01*
X-37625Y326418D01*
X-37538Y326178D01*
X-37472Y325959D01*
X-37428Y325763D01*
X-37418Y325686D01*
X-37407Y325621D01*
X-37396Y325566D01*
X-37385Y325522D01*
Y325500D01*
Y325489D01*
X-42467D01*
Y326834D01*
X-39582D01*
X-39669Y326976D01*
X-39767Y327096D01*
X-39811Y327151D01*
X-39844Y327194D01*
X-39866Y327216D01*
X-39877Y327227D01*
X-39920Y327271D01*
X-39964Y327326D01*
X-40095Y327446D01*
X-40237Y327588D01*
X-40380Y327730D01*
X-40522Y327861D01*
X-40642Y327971D01*
X-40686Y328014D01*
X-40718Y328047D01*
X-40740Y328058D01*
X-40751Y328069D01*
X-40992Y328298D01*
X-41188Y328484D01*
X-41352Y328659D01*
X-41483Y328790D01*
X-41582Y328900D01*
X-41647Y328976D01*
X-41691Y329031D01*
X-41702Y329042D01*
X-41844Y329227D01*
X-41964Y329402D01*
X-42063Y329566D01*
X-42139Y329708D01*
X-42205Y329829D01*
X-42249Y329927D01*
X-42270Y329982D01*
X-42281Y330003D01*
X-42347Y330178D01*
X-42391Y330353D01*
X-42423Y330517D01*
X-42445Y330670D01*
X-42456Y330790D01*
X-42467Y330889D01*
Y330954D01*
Y330976D01*
X-42456Y331140D01*
X-42434Y331304D01*
X-42412Y331457D01*
X-42369Y331599D01*
X-42259Y331851D01*
X-42150Y332069D01*
X-42085Y332168D01*
X-42030Y332244D01*
X-41975Y332321D01*
X-41921Y332375D01*
X-41877Y332419D01*
X-41855Y332463D01*
X-41833Y332474D01*
X-41822Y332485D01*
X-41702Y332594D01*
X-41560Y332692D01*
X-41429Y332769D01*
X-41276Y332834D01*
X-40992Y332944D01*
X-40707Y333020D01*
X-40576Y333042D01*
X-40456Y333064D01*
X-40347Y333075D01*
X-40248Y333086D01*
X-40172Y333097D01*
X-40062D01*
X-39877Y333086D01*
D02*
G37*
G36*
X-45866Y332845D02*
X-45724Y332616D01*
X-45571Y332397D01*
X-45418Y332222D01*
X-45287Y332080D01*
X-45167Y331971D01*
X-45123Y331927D01*
X-45090Y331894D01*
X-45068Y331883D01*
X-45058Y331873D01*
X-44817Y331698D01*
X-44588Y331545D01*
X-44380Y331424D01*
X-44194Y331337D01*
X-44041Y331271D01*
X-43932Y331217D01*
X-43888Y331206D01*
X-43855Y331195D01*
X-43844Y331184D01*
X-43833D01*
Y329872D01*
X-44227Y330025D01*
X-44577Y330189D01*
X-44741Y330277D01*
X-44894Y330375D01*
X-45036Y330463D01*
X-45167Y330550D01*
X-45287Y330637D01*
X-45396Y330714D01*
X-45484Y330780D01*
X-45560Y330845D01*
X-45626Y330900D01*
X-45670Y330932D01*
X-45691Y330954D01*
X-45702Y330965D01*
Y325489D01*
X-47156D01*
Y333097D01*
X-45976D01*
X-45866Y332845D01*
D02*
G37*
G36*
X-34193Y327511D02*
X-37046D01*
Y328965D01*
X-34193D01*
Y327511D01*
D02*
G37*
G36*
X-18662Y333086D02*
X-18476Y333064D01*
X-18290Y333020D01*
X-18126Y332976D01*
X-17973Y332911D01*
X-17831Y332845D01*
X-17711Y332780D01*
X-17591Y332703D01*
X-17492Y332627D01*
X-17394Y332561D01*
X-17317Y332495D01*
X-17263Y332430D01*
X-17208Y332386D01*
X-17175Y332343D01*
X-17153Y332321D01*
X-17142Y332310D01*
X-17011Y332124D01*
X-16902Y331905D01*
X-16804Y331676D01*
X-16716Y331435D01*
X-16650Y331184D01*
X-16585Y330922D01*
X-16541Y330670D01*
X-16498Y330419D01*
X-16476Y330178D01*
X-16454Y329960D01*
X-16432Y329752D01*
X-16421Y329577D01*
X-16410Y329435D01*
Y329326D01*
Y329282D01*
Y329249D01*
Y329238D01*
Y329227D01*
X-16421Y328834D01*
X-16443Y328473D01*
X-16476Y328134D01*
X-16519Y327828D01*
X-16563Y327555D01*
X-16618Y327304D01*
X-16683Y327085D01*
X-16749Y326888D01*
X-16804Y326724D01*
X-16869Y326571D01*
X-16924Y326451D01*
X-16978Y326353D01*
X-17011Y326287D01*
X-17044Y326233D01*
X-17066Y326200D01*
X-17077Y326189D01*
X-17208Y326036D01*
X-17350Y325916D01*
X-17492Y325795D01*
X-17645Y325708D01*
X-17787Y325621D01*
X-17940Y325555D01*
X-18082Y325500D01*
X-18224Y325457D01*
X-18356Y325413D01*
X-18476Y325391D01*
X-18585Y325369D01*
X-18673Y325358D01*
X-18749D01*
X-18815Y325347D01*
X-18858D01*
X-19055Y325358D01*
X-19241Y325380D01*
X-19427Y325424D01*
X-19591Y325467D01*
X-19744Y325522D01*
X-19886Y325588D01*
X-20006Y325664D01*
X-20126Y325741D01*
X-20225Y325806D01*
X-20323Y325883D01*
X-20400Y325948D01*
X-20465Y326003D01*
X-20509Y326047D01*
X-20542Y326091D01*
X-20563Y326112D01*
X-20574Y326123D01*
X-20706Y326309D01*
X-20815Y326528D01*
X-20924Y326757D01*
X-21001Y327009D01*
X-21077Y327260D01*
X-21132Y327511D01*
X-21186Y327774D01*
X-21230Y328025D01*
X-21252Y328266D01*
X-21274Y328484D01*
X-21296Y328692D01*
X-21307Y328867D01*
X-21318Y329009D01*
Y329118D01*
Y329162D01*
Y329195D01*
Y329206D01*
Y329217D01*
X-21307Y329610D01*
X-21285Y329971D01*
X-21252Y330299D01*
X-21197Y330605D01*
X-21143Y330889D01*
X-21088Y331140D01*
X-21012Y331370D01*
X-20946Y331566D01*
X-20880Y331752D01*
X-20815Y331894D01*
X-20749Y332026D01*
X-20695Y332135D01*
X-20640Y332211D01*
X-20607Y332266D01*
X-20585Y332299D01*
X-20574Y332310D01*
X-20454Y332452D01*
X-20323Y332572D01*
X-20181Y332670D01*
X-20039Y332769D01*
X-19897Y332845D01*
X-19755Y332900D01*
X-19623Y332955D01*
X-19481Y332998D01*
X-19350Y333031D01*
X-19241Y333053D01*
X-19132Y333075D01*
X-19044Y333086D01*
X-18968Y333097D01*
X-18858D01*
X-18662Y333086D01*
D02*
G37*
G36*
X-30422D02*
X-30237Y333064D01*
X-30051Y333020D01*
X-29887Y332976D01*
X-29734Y332911D01*
X-29592Y332845D01*
X-29471Y332780D01*
X-29351Y332703D01*
X-29253Y332627D01*
X-29154Y332561D01*
X-29078Y332495D01*
X-29023Y332430D01*
X-28969Y332386D01*
X-28936Y332343D01*
X-28914Y332321D01*
X-28903Y332310D01*
X-28772Y332124D01*
X-28663Y331905D01*
X-28564Y331676D01*
X-28477Y331435D01*
X-28411Y331184D01*
X-28346Y330922D01*
X-28302Y330670D01*
X-28258Y330419D01*
X-28236Y330178D01*
X-28214Y329960D01*
X-28193Y329752D01*
X-28182Y329577D01*
X-28171Y329435D01*
Y329326D01*
Y329282D01*
Y329249D01*
Y329238D01*
Y329227D01*
X-28182Y328834D01*
X-28203Y328473D01*
X-28236Y328134D01*
X-28280Y327828D01*
X-28324Y327555D01*
X-28378Y327304D01*
X-28444Y327085D01*
X-28510Y326888D01*
X-28564Y326724D01*
X-28630Y326571D01*
X-28684Y326451D01*
X-28739Y326353D01*
X-28772Y326287D01*
X-28805Y326233D01*
X-28826Y326200D01*
X-28837Y326189D01*
X-28969Y326036D01*
X-29111Y325916D01*
X-29253Y325795D01*
X-29406Y325708D01*
X-29548Y325621D01*
X-29701Y325555D01*
X-29843Y325500D01*
X-29985Y325457D01*
X-30116Y325413D01*
X-30237Y325391D01*
X-30346Y325369D01*
X-30433Y325358D01*
X-30510D01*
X-30575Y325347D01*
X-30619D01*
X-30816Y325358D01*
X-31002Y325380D01*
X-31187Y325424D01*
X-31351Y325467D01*
X-31504Y325522D01*
X-31646Y325588D01*
X-31767Y325664D01*
X-31887Y325741D01*
X-31985Y325806D01*
X-32084Y325883D01*
X-32160Y325948D01*
X-32226Y326003D01*
X-32269Y326047D01*
X-32302Y326091D01*
X-32324Y326112D01*
X-32335Y326123D01*
X-32466Y326309D01*
X-32576Y326528D01*
X-32685Y326757D01*
X-32761Y327009D01*
X-32838Y327260D01*
X-32893Y327511D01*
X-32947Y327774D01*
X-32991Y328025D01*
X-33013Y328266D01*
X-33035Y328484D01*
X-33056Y328692D01*
X-33067Y328867D01*
X-33078Y329009D01*
Y329118D01*
Y329162D01*
Y329195D01*
Y329206D01*
Y329217D01*
X-33067Y329610D01*
X-33046Y329971D01*
X-33013Y330299D01*
X-32958Y330605D01*
X-32903Y330889D01*
X-32849Y331140D01*
X-32772Y331370D01*
X-32707Y331566D01*
X-32641Y331752D01*
X-32576Y331894D01*
X-32510Y332026D01*
X-32455Y332135D01*
X-32401Y332211D01*
X-32368Y332266D01*
X-32346Y332299D01*
X-32335Y332310D01*
X-32215Y332452D01*
X-32084Y332572D01*
X-31942Y332670D01*
X-31800Y332769D01*
X-31657Y332845D01*
X-31515Y332900D01*
X-31384Y332955D01*
X-31242Y332998D01*
X-31111Y333031D01*
X-31002Y333053D01*
X-30892Y333075D01*
X-30805Y333086D01*
X-30728Y333097D01*
X-30619D01*
X-30422Y333086D01*
D02*
G37*
G36*
X-35783Y322490D02*
X-37237D01*
Y323835D01*
X-35783D01*
Y322490D01*
D02*
G37*
G36*
X-19290Y316271D02*
X-20635D01*
Y317069D01*
X-20766Y316905D01*
X-20897Y316763D01*
X-21028Y316653D01*
X-21148Y316555D01*
X-21258Y316479D01*
X-21345Y316424D01*
X-21400Y316391D01*
X-21421Y316380D01*
X-21596Y316304D01*
X-21760Y316249D01*
X-21913Y316205D01*
X-22055Y316184D01*
X-22176Y316162D01*
X-22274Y316151D01*
X-22351D01*
X-22525Y316162D01*
X-22700Y316184D01*
X-22853Y316216D01*
X-23006Y316271D01*
X-23291Y316391D01*
X-23411Y316457D01*
X-23531Y316533D01*
X-23629Y316599D01*
X-23717Y316665D01*
X-23793Y316730D01*
X-23859Y316785D01*
X-23913Y316839D01*
X-23946Y316872D01*
X-23968Y316894D01*
X-23979Y316905D01*
X-24099Y317058D01*
X-24198Y317211D01*
X-24296Y317386D01*
X-24373Y317561D01*
X-24438Y317746D01*
X-24493Y317921D01*
X-24569Y318271D01*
X-24602Y318435D01*
X-24624Y318588D01*
X-24635Y318719D01*
X-24646Y318840D01*
X-24657Y318938D01*
Y319004D01*
Y319058D01*
Y319069D01*
X-24646Y319321D01*
X-24624Y319550D01*
X-24591Y319769D01*
X-24558Y319965D01*
X-24504Y320151D01*
X-24449Y320326D01*
X-24384Y320479D01*
X-24329Y320621D01*
X-24263Y320741D01*
X-24198Y320851D01*
X-24143Y320938D01*
X-24099Y321015D01*
X-24056Y321069D01*
X-24023Y321113D01*
X-24001Y321135D01*
X-23990Y321146D01*
X-23859Y321277D01*
X-23728Y321386D01*
X-23596Y321485D01*
X-23454Y321572D01*
X-23312Y321638D01*
X-23181Y321703D01*
X-22919Y321791D01*
X-22788Y321813D01*
X-22678Y321834D01*
X-22580Y321856D01*
X-22493Y321867D01*
X-22427Y321878D01*
X-22329D01*
X-22165Y321867D01*
X-22001Y321845D01*
X-21837Y321813D01*
X-21695Y321758D01*
X-21421Y321638D01*
X-21192Y321496D01*
X-21093Y321430D01*
X-21006Y321354D01*
X-20930Y321288D01*
X-20864Y321233D01*
X-20809Y321179D01*
X-20777Y321146D01*
X-20755Y321124D01*
X-20744Y321113D01*
Y323835D01*
X-19290D01*
Y316271D01*
D02*
G37*
G36*
X-59928Y321867D02*
X-59753Y321845D01*
X-59589Y321813D01*
X-59425Y321769D01*
X-59152Y321649D01*
X-59021Y321583D01*
X-58911Y321517D01*
X-58802Y321441D01*
X-58715Y321375D01*
X-58638Y321321D01*
X-58573Y321266D01*
X-58518Y321211D01*
X-58485Y321179D01*
X-58463Y321157D01*
X-58452Y321146D01*
X-58332Y321004D01*
X-58234Y320851D01*
X-58146Y320676D01*
X-58070Y320512D01*
X-58015Y320337D01*
X-57960Y320162D01*
X-57884Y319812D01*
X-57851Y319659D01*
X-57829Y319506D01*
X-57818Y319375D01*
X-57807Y319266D01*
X-57797Y319167D01*
Y319102D01*
Y319047D01*
Y319036D01*
X-57807Y318840D01*
X-57818Y318643D01*
X-57873Y318293D01*
X-57917Y318129D01*
X-57960Y317976D01*
X-58004Y317834D01*
X-58048Y317714D01*
X-58092Y317594D01*
X-58135Y317495D01*
X-58179Y317408D01*
X-58223Y317331D01*
X-58255Y317277D01*
X-58277Y317233D01*
X-58299Y317211D01*
Y317200D01*
X-58430Y317036D01*
X-58562Y316894D01*
X-58704Y316774D01*
X-58846Y316665D01*
X-58988Y316577D01*
X-59141Y316500D01*
X-59283Y316435D01*
X-59414Y316391D01*
X-59545Y316348D01*
X-59666Y316326D01*
X-59775Y316304D01*
X-59862Y316282D01*
X-59939D01*
X-60004Y316271D01*
X-60048D01*
X-60234Y316282D01*
X-60409Y316315D01*
X-60573Y316358D01*
X-60726Y316413D01*
X-60999Y316555D01*
X-61130Y316632D01*
X-61239Y316719D01*
X-61338Y316796D01*
X-61436Y316872D01*
X-61513Y316949D01*
X-61567Y317014D01*
X-61622Y317080D01*
X-61655Y317124D01*
X-61677Y317145D01*
X-61688Y317156D01*
Y316358D01*
Y316195D01*
X-61677Y316052D01*
X-61666Y315943D01*
X-61655Y315856D01*
X-61633Y315779D01*
X-61622Y315735D01*
X-61611Y315714D01*
Y315703D01*
X-61567Y315615D01*
X-61524Y315539D01*
X-61480Y315473D01*
X-61436Y315418D01*
X-61392Y315375D01*
X-61360Y315353D01*
X-61338Y315342D01*
X-61327Y315331D01*
X-61207Y315276D01*
X-61076Y315233D01*
X-60933Y315200D01*
X-60791Y315178D01*
X-60671Y315167D01*
X-60573Y315156D01*
X-60474D01*
X-60321Y315167D01*
X-60190Y315178D01*
X-60081Y315211D01*
X-59993Y315244D01*
X-59917Y315265D01*
X-59873Y315298D01*
X-59840Y315309D01*
X-59829Y315320D01*
X-59775Y315364D01*
X-59731Y315429D01*
X-59676Y315561D01*
X-59666Y315615D01*
X-59655Y315670D01*
X-59644Y315703D01*
Y315714D01*
X-57982Y315910D01*
X-57971Y315845D01*
Y315790D01*
Y315746D01*
Y315735D01*
X-57982Y315604D01*
X-57993Y315473D01*
X-58059Y315233D01*
X-58157Y315025D01*
X-58267Y314850D01*
X-58365Y314708D01*
X-58463Y314610D01*
X-58529Y314544D01*
X-58540Y314533D01*
X-58551Y314522D01*
X-58671Y314435D01*
X-58802Y314369D01*
X-58955Y314304D01*
X-59108Y314249D01*
X-59436Y314161D01*
X-59764Y314107D01*
X-59917Y314085D01*
X-60059Y314063D01*
X-60190Y314052D01*
X-60299D01*
X-60398Y314041D01*
X-60529D01*
X-60791Y314052D01*
X-61032Y314063D01*
X-61239Y314096D01*
X-61425Y314129D01*
X-61567Y314151D01*
X-61666Y314183D01*
X-61731Y314194D01*
X-61753Y314205D01*
X-61928Y314271D01*
X-62081Y314336D01*
X-62212Y314413D01*
X-62322Y314478D01*
X-62398Y314533D01*
X-62464Y314588D01*
X-62507Y314621D01*
X-62518Y314632D01*
X-62628Y314741D01*
X-62715Y314861D01*
X-62792Y314992D01*
X-62857Y315112D01*
X-62912Y315222D01*
X-62945Y315309D01*
X-62966Y315364D01*
X-62977Y315386D01*
X-63010Y315484D01*
X-63032Y315582D01*
X-63076Y315812D01*
X-63098Y316052D01*
X-63119Y316293D01*
X-63130Y316500D01*
X-63141Y316588D01*
Y316675D01*
Y316741D01*
Y316785D01*
Y316817D01*
Y316828D01*
Y321758D01*
X-61786D01*
Y320971D01*
X-61655Y321135D01*
X-61524Y321266D01*
X-61382Y321397D01*
X-61239Y321496D01*
X-61097Y321583D01*
X-60955Y321659D01*
X-60824Y321714D01*
X-60693Y321769D01*
X-60573Y321802D01*
X-60463Y321834D01*
X-60354Y321845D01*
X-60278Y321867D01*
X-60201D01*
X-60146Y321878D01*
X-60103D01*
X-59928Y321867D01*
D02*
G37*
G36*
X-40002Y319091D02*
X-38024Y316271D01*
X-39718D01*
X-40844Y317965D01*
X-41970Y316271D01*
X-43740D01*
X-41719Y319157D01*
X-43566Y321758D01*
X-41872D01*
X-40844Y320239D01*
X-39882Y321758D01*
X-38111D01*
X-40002Y319091D01*
D02*
G37*
G36*
X-1573Y316271D02*
X-2983D01*
X-3912Y319791D01*
X-4852Y316271D01*
X-6251D01*
X-8010Y321758D01*
X-6578D01*
X-5529Y318162D01*
X-4622Y321758D01*
X-3223D01*
X-2272Y318162D01*
X-1245Y321758D01*
X154D01*
X-1573Y316271D01*
D02*
G37*
G36*
X-32340Y322851D02*
Y321758D01*
X-31674D01*
Y320599D01*
X-32340D01*
Y318206D01*
Y318063D01*
Y317943D01*
Y317823D01*
X-32351Y317725D01*
Y317550D01*
X-32362Y317408D01*
X-32373Y317298D01*
Y317233D01*
X-32384Y317189D01*
Y317178D01*
X-32406Y317058D01*
X-32439Y316949D01*
X-32472Y316850D01*
X-32504Y316774D01*
X-32537Y316708D01*
X-32559Y316665D01*
X-32570Y316632D01*
X-32581Y316621D01*
X-32647Y316544D01*
X-32723Y316479D01*
X-32876Y316369D01*
X-32942Y316337D01*
X-32996Y316304D01*
X-33040Y316293D01*
X-33051Y316282D01*
X-33171Y316238D01*
X-33291Y316205D01*
X-33412Y316184D01*
X-33521Y316173D01*
X-33619Y316162D01*
X-33696Y316151D01*
X-33761D01*
X-33991Y316162D01*
X-34209Y316184D01*
X-34406Y316216D01*
X-34570Y316260D01*
X-34712Y316293D01*
X-34822Y316326D01*
X-34887Y316348D01*
X-34898Y316358D01*
X-34909D01*
X-34778Y317484D01*
X-34647Y317441D01*
X-34527Y317408D01*
X-34428Y317386D01*
X-34341Y317375D01*
X-34275Y317364D01*
X-34231Y317353D01*
X-34188D01*
X-34089Y317364D01*
X-34013Y317386D01*
X-33969Y317408D01*
X-33947Y317419D01*
X-33882Y317484D01*
X-33849Y317539D01*
X-33827Y317583D01*
X-33816Y317604D01*
Y317626D01*
X-33805Y317670D01*
Y317768D01*
Y317900D01*
X-33794Y318031D01*
Y318162D01*
Y318271D01*
Y318315D01*
Y318348D01*
Y318370D01*
Y318380D01*
Y320599D01*
X-34789D01*
Y321758D01*
X-33794D01*
Y323703D01*
X-32340Y322851D01*
D02*
G37*
G36*
X3215Y321867D02*
X3422Y321845D01*
X3630Y321813D01*
X3805Y321758D01*
X3980Y321703D01*
X4144Y321638D01*
X4286Y321572D01*
X4417Y321496D01*
X4537Y321430D01*
X4636Y321354D01*
X4723Y321288D01*
X4800Y321233D01*
X4854Y321179D01*
X4898Y321146D01*
X4920Y321124D01*
X4931Y321113D01*
X5051Y320960D01*
X5160Y320807D01*
X5259Y320643D01*
X5346Y320468D01*
X5412Y320293D01*
X5466Y320118D01*
X5554Y319779D01*
X5587Y319616D01*
X5608Y319474D01*
X5619Y319342D01*
X5630Y319222D01*
X5641Y319135D01*
Y319058D01*
Y319014D01*
Y319004D01*
X5630Y318763D01*
X5608Y318523D01*
X5576Y318315D01*
X5532Y318107D01*
X5477Y317921D01*
X5412Y317746D01*
X5357Y317594D01*
X5281Y317451D01*
X5215Y317320D01*
X5160Y317211D01*
X5095Y317124D01*
X5040Y317047D01*
X4996Y316981D01*
X4964Y316938D01*
X4942Y316916D01*
X4931Y316905D01*
X4789Y316774D01*
X4647Y316653D01*
X4494Y316555D01*
X4330Y316468D01*
X4177Y316391D01*
X4013Y316337D01*
X3860Y316282D01*
X3707Y316249D01*
X3565Y316216D01*
X3433Y316195D01*
X3313Y316173D01*
X3215Y316162D01*
X3138Y316151D01*
X3018D01*
X2821Y316162D01*
X2646Y316173D01*
X2472Y316195D01*
X2308Y316227D01*
X2155Y316260D01*
X2023Y316304D01*
X1892Y316348D01*
X1783Y316402D01*
X1674Y316446D01*
X1586Y316490D01*
X1510Y316533D01*
X1444Y316566D01*
X1400Y316599D01*
X1368Y316621D01*
X1346Y316643D01*
X1335D01*
X1225Y316741D01*
X1116Y316850D01*
X930Y317091D01*
X777Y317331D01*
X668Y317572D01*
X581Y317790D01*
X548Y317889D01*
X515Y317965D01*
X493Y318031D01*
X482Y318085D01*
X471Y318118D01*
Y318129D01*
X1892Y318370D01*
X1936Y318173D01*
X2001Y317998D01*
X2056Y317856D01*
X2122Y317746D01*
X2187Y317659D01*
X2231Y317604D01*
X2264Y317572D01*
X2275Y317561D01*
X2384Y317484D01*
X2493Y317430D01*
X2603Y317386D01*
X2712Y317364D01*
X2810Y317342D01*
X2887Y317331D01*
X2953D01*
X3149Y317353D01*
X3324Y317397D01*
X3466Y317451D01*
X3597Y317528D01*
X3696Y317604D01*
X3761Y317659D01*
X3816Y317703D01*
X3827Y317725D01*
X3881Y317812D01*
X3936Y317900D01*
X4013Y318107D01*
X4078Y318337D01*
X4111Y318566D01*
X4133Y318785D01*
X4144Y318872D01*
Y318949D01*
X4155Y319014D01*
Y319069D01*
Y319102D01*
Y319113D01*
Y319266D01*
X4144Y319419D01*
X4122Y319550D01*
X4100Y319681D01*
X4078Y319791D01*
X4056Y319889D01*
X3991Y320064D01*
X3936Y320195D01*
X3881Y320282D01*
X3849Y320337D01*
X3838Y320359D01*
X3707Y320490D01*
X3565Y320577D01*
X3422Y320643D01*
X3291Y320698D01*
X3160Y320720D01*
X3062Y320730D01*
X2996Y320741D01*
X2974D01*
X2832Y320730D01*
X2701Y320709D01*
X2592Y320676D01*
X2493Y320632D01*
X2417Y320588D01*
X2362Y320556D01*
X2329Y320534D01*
X2318Y320523D01*
X2231Y320435D01*
X2155Y320337D01*
X2100Y320228D01*
X2045Y320129D01*
X2012Y320031D01*
X1991Y319954D01*
X1980Y319911D01*
Y319889D01*
X548Y320151D01*
X657Y320457D01*
X788Y320720D01*
X930Y320938D01*
X1072Y321124D01*
X1204Y321266D01*
X1302Y321364D01*
X1346Y321397D01*
X1378Y321419D01*
X1390Y321441D01*
X1400D01*
X1641Y321583D01*
X1903Y321692D01*
X2166Y321769D01*
X2417Y321823D01*
X2537Y321845D01*
X2646Y321856D01*
X2745Y321867D01*
X2832D01*
X2898Y321878D01*
X2996D01*
X3215Y321867D01*
D02*
G37*
G36*
X-12863Y318282D02*
X-12874Y318009D01*
X-12896Y317768D01*
X-12929Y317561D01*
X-12962Y317386D01*
X-12994Y317244D01*
X-13027Y317145D01*
X-13049Y317091D01*
X-13060Y317069D01*
X-13147Y316916D01*
X-13246Y316774D01*
X-13344Y316665D01*
X-13453Y316566D01*
X-13541Y316490D01*
X-13628Y316435D01*
X-13672Y316402D01*
X-13694Y316391D01*
X-13858Y316315D01*
X-14033Y316249D01*
X-14197Y316205D01*
X-14361Y316184D01*
X-14492Y316162D01*
X-14590Y316151D01*
X-14689D01*
X-14885Y316162D01*
X-15071Y316184D01*
X-15246Y316227D01*
X-15399Y316271D01*
X-15530Y316315D01*
X-15629Y316358D01*
X-15694Y316380D01*
X-15716Y316391D01*
X-15891Y316490D01*
X-16044Y316610D01*
X-16186Y316719D01*
X-16295Y316839D01*
X-16394Y316938D01*
X-16459Y317014D01*
X-16503Y317069D01*
X-16514Y317091D01*
Y316271D01*
X-17858D01*
Y321758D01*
X-16405D01*
Y319441D01*
Y319233D01*
Y319047D01*
X-16394Y318872D01*
X-16383Y318719D01*
Y318577D01*
X-16372Y318457D01*
X-16361Y318359D01*
X-16350Y318260D01*
X-16339Y318184D01*
X-16328Y318129D01*
X-16317Y318074D01*
Y318031D01*
X-16295Y317976D01*
Y317965D01*
X-16252Y317856D01*
X-16186Y317758D01*
X-16120Y317681D01*
X-16055Y317604D01*
X-15989Y317539D01*
X-15935Y317495D01*
X-15902Y317473D01*
X-15891Y317462D01*
X-15782Y317397D01*
X-15661Y317353D01*
X-15552Y317309D01*
X-15443Y317287D01*
X-15355Y317277D01*
X-15290Y317266D01*
X-15224D01*
X-15104Y317277D01*
X-15006Y317287D01*
X-14907Y317309D01*
X-14831Y317342D01*
X-14765Y317364D01*
X-14721Y317386D01*
X-14689Y317397D01*
X-14678Y317408D01*
X-14601Y317473D01*
X-14547Y317539D01*
X-14492Y317604D01*
X-14459Y317670D01*
X-14426Y317736D01*
X-14404Y317779D01*
X-14393Y317812D01*
Y317823D01*
X-14382Y317878D01*
X-14372Y317954D01*
X-14361Y318053D01*
X-14350Y318151D01*
X-14339Y318380D01*
X-14328Y318632D01*
X-14317Y318861D01*
Y318960D01*
Y319047D01*
Y319124D01*
Y319178D01*
Y319222D01*
Y319233D01*
Y321758D01*
X-12863D01*
Y318282D01*
D02*
G37*
G36*
X-11169Y321867D02*
X-11060Y321856D01*
X-10950Y321823D01*
X-10863Y321791D01*
X-10786Y321758D01*
X-10721Y321736D01*
X-10688Y321714D01*
X-10677Y321703D01*
X-10568Y321627D01*
X-10470Y321517D01*
X-10360Y321397D01*
X-10273Y321277D01*
X-10185Y321157D01*
X-10120Y321058D01*
X-10076Y320993D01*
X-10065Y320982D01*
Y321758D01*
X-8721D01*
Y316271D01*
X-10175D01*
Y317954D01*
Y318206D01*
Y318435D01*
X-10185Y318643D01*
X-10196Y318829D01*
Y319004D01*
X-10207Y319146D01*
X-10218Y319288D01*
X-10229Y319397D01*
X-10240Y319495D01*
X-10251Y319583D01*
X-10262Y319648D01*
Y319703D01*
X-10273Y319736D01*
X-10284Y319769D01*
Y319791D01*
X-10328Y319943D01*
X-10382Y320075D01*
X-10437Y320184D01*
X-10491Y320260D01*
X-10535Y320326D01*
X-10579Y320370D01*
X-10601Y320392D01*
X-10612Y320403D01*
X-10699Y320457D01*
X-10786Y320501D01*
X-10874Y320534D01*
X-10950Y320556D01*
X-11016Y320567D01*
X-11082Y320577D01*
X-11125D01*
X-11246Y320567D01*
X-11366Y320545D01*
X-11475Y320501D01*
X-11584Y320457D01*
X-11672Y320413D01*
X-11738Y320370D01*
X-11792Y320348D01*
X-11803Y320337D01*
X-12262Y321594D01*
X-12087Y321692D01*
X-11923Y321758D01*
X-11759Y321813D01*
X-11606Y321845D01*
X-11486Y321867D01*
X-11388Y321878D01*
X-11300D01*
X-11169Y321867D01*
D02*
G37*
G36*
X-35783Y316271D02*
X-37237D01*
Y321758D01*
X-35783D01*
Y316271D01*
D02*
G37*
G36*
X-44604D02*
X-46058D01*
Y317725D01*
X-44604D01*
Y316271D01*
D02*
G37*
G36*
X-56397Y321867D02*
X-56288Y321856D01*
X-56179Y321823D01*
X-56091Y321791D01*
X-56015Y321758D01*
X-55949Y321736D01*
X-55917Y321714D01*
X-55906Y321703D01*
X-55796Y321627D01*
X-55698Y321517D01*
X-55589Y321397D01*
X-55501Y321277D01*
X-55414Y321157D01*
X-55348Y321058D01*
X-55304Y320993D01*
X-55294Y320982D01*
Y321758D01*
X-53949D01*
Y316271D01*
X-55403D01*
Y317954D01*
Y318206D01*
Y318435D01*
X-55414Y318643D01*
X-55425Y318829D01*
Y319004D01*
X-55436Y319146D01*
X-55446Y319288D01*
X-55458Y319397D01*
X-55468Y319495D01*
X-55479Y319583D01*
X-55490Y319648D01*
Y319703D01*
X-55501Y319736D01*
X-55512Y319769D01*
Y319791D01*
X-55556Y319943D01*
X-55611Y320075D01*
X-55665Y320184D01*
X-55720Y320260D01*
X-55764Y320326D01*
X-55807Y320370D01*
X-55829Y320392D01*
X-55840Y320403D01*
X-55927Y320457D01*
X-56015Y320501D01*
X-56102Y320534D01*
X-56179Y320555D01*
X-56244Y320567D01*
X-56310Y320577D01*
X-56354D01*
X-56474Y320567D01*
X-56594Y320545D01*
X-56704Y320501D01*
X-56813Y320457D01*
X-56900Y320413D01*
X-56966Y320370D01*
X-57020Y320348D01*
X-57031Y320337D01*
X-57490Y321594D01*
X-57316Y321692D01*
X-57152Y321758D01*
X-56988Y321813D01*
X-56835Y321845D01*
X-56714Y321867D01*
X-56616Y321878D01*
X-56529D01*
X-56397Y321867D01*
D02*
G37*
G36*
X-28001Y321867D02*
X-27728Y321823D01*
X-27477Y321769D01*
X-27258Y321703D01*
X-27171Y321659D01*
X-27083Y321627D01*
X-27007Y321605D01*
X-26952Y321572D01*
X-26897Y321550D01*
X-26865Y321528D01*
X-26843Y321517D01*
X-26832D01*
X-26602Y321364D01*
X-26406Y321200D01*
X-26231Y321026D01*
X-26089Y320862D01*
X-25979Y320709D01*
X-25892Y320588D01*
X-25859Y320545D01*
X-25848Y320512D01*
X-25826Y320490D01*
Y320479D01*
X-25706Y320228D01*
X-25629Y319976D01*
X-25564Y319747D01*
X-25520Y319539D01*
X-25498Y319353D01*
X-25487Y319277D01*
Y319211D01*
X-25477Y319167D01*
Y319124D01*
Y319102D01*
Y319091D01*
X-25487Y318752D01*
X-25531Y318435D01*
X-25586Y318162D01*
X-25619Y318042D01*
X-25651Y317932D01*
X-25684Y317834D01*
X-25717Y317746D01*
X-25750Y317670D01*
X-25772Y317604D01*
X-25793Y317550D01*
X-25815Y317517D01*
X-25826Y317495D01*
Y317484D01*
X-25979Y317255D01*
X-26143Y317058D01*
X-26318Y316883D01*
X-26482Y316741D01*
X-26635Y316632D01*
X-26755Y316555D01*
X-26799Y316522D01*
X-26832Y316500D01*
X-26854Y316490D01*
X-26865D01*
X-27127Y316380D01*
X-27378Y316293D01*
X-27619Y316238D01*
X-27848Y316195D01*
X-28034Y316173D01*
X-28111Y316162D01*
X-28176D01*
X-28231Y316151D01*
X-28307D01*
X-28537Y316162D01*
X-28745Y316184D01*
X-28952Y316227D01*
X-29138Y316282D01*
X-29324Y316337D01*
X-29488Y316402D01*
X-29641Y316479D01*
X-29783Y316555D01*
X-29903Y316632D01*
X-30012Y316708D01*
X-30111Y316774D01*
X-30187Y316828D01*
X-30253Y316883D01*
X-30297Y316927D01*
X-30318Y316949D01*
X-30329Y316960D01*
X-30472Y317124D01*
X-30592Y317287D01*
X-30701Y317451D01*
X-30799Y317626D01*
X-30876Y317801D01*
X-30942Y317976D01*
X-30996Y318140D01*
X-31040Y318304D01*
X-31073Y318446D01*
X-31095Y318588D01*
X-31116Y318708D01*
X-31127Y318818D01*
X-31138Y318905D01*
Y318971D01*
Y319014D01*
Y319025D01*
X-31127Y319255D01*
X-31105Y319474D01*
X-31062Y319670D01*
X-31018Y319867D01*
X-30952Y320042D01*
X-30887Y320217D01*
X-30810Y320370D01*
X-30745Y320512D01*
X-30668Y320632D01*
X-30592Y320752D01*
X-30526Y320840D01*
X-30461Y320927D01*
X-30417Y320982D01*
X-30373Y321037D01*
X-30351Y321058D01*
X-30340Y321069D01*
X-30187Y321211D01*
X-30023Y321332D01*
X-29859Y321441D01*
X-29684Y321539D01*
X-29510Y321616D01*
X-29346Y321681D01*
X-29182Y321736D01*
X-29018Y321780D01*
X-28876Y321813D01*
X-28734Y321834D01*
X-28613Y321856D01*
X-28504Y321867D01*
X-28417Y321878D01*
X-28296D01*
X-28001Y321867D01*
D02*
G37*
G36*
X-49741Y321867D02*
X-49468Y321823D01*
X-49216Y321769D01*
X-48998Y321703D01*
X-48910Y321659D01*
X-48823Y321627D01*
X-48746Y321605D01*
X-48692Y321572D01*
X-48637Y321550D01*
X-48604Y321528D01*
X-48583Y321517D01*
X-48572D01*
X-48342Y321364D01*
X-48145Y321200D01*
X-47970Y321026D01*
X-47828Y320862D01*
X-47719Y320709D01*
X-47632Y320588D01*
X-47599Y320545D01*
X-47588Y320512D01*
X-47566Y320490D01*
Y320479D01*
X-47446Y320228D01*
X-47369Y319976D01*
X-47304Y319747D01*
X-47260Y319539D01*
X-47238Y319353D01*
X-47227Y319277D01*
Y319211D01*
X-47216Y319167D01*
Y319124D01*
Y319102D01*
Y319091D01*
X-47227Y318752D01*
X-47271Y318435D01*
X-47326Y318162D01*
X-47358Y318042D01*
X-47391Y317932D01*
X-47424Y317834D01*
X-47457Y317746D01*
X-47490Y317670D01*
X-47511Y317604D01*
X-47533Y317550D01*
X-47555Y317517D01*
X-47566Y317495D01*
Y317484D01*
X-47719Y317255D01*
X-47883Y317058D01*
X-48058Y316883D01*
X-48222Y316741D01*
X-48375Y316632D01*
X-48495Y316555D01*
X-48539Y316522D01*
X-48572Y316500D01*
X-48593Y316490D01*
X-48604D01*
X-48867Y316380D01*
X-49118Y316293D01*
X-49358Y316238D01*
X-49588Y316195D01*
X-49774Y316173D01*
X-49850Y316162D01*
X-49916D01*
X-49971Y316151D01*
X-50047D01*
X-50277Y316162D01*
X-50484Y316184D01*
X-50692Y316227D01*
X-50878Y316282D01*
X-51064Y316337D01*
X-51227Y316402D01*
X-51381Y316479D01*
X-51523Y316555D01*
X-51643Y316632D01*
X-51752Y316708D01*
X-51851Y316774D01*
X-51927Y316828D01*
X-51993Y316883D01*
X-52036Y316927D01*
X-52058Y316949D01*
X-52069Y316960D01*
X-52211Y317124D01*
X-52332Y317287D01*
X-52441Y317451D01*
X-52539Y317626D01*
X-52616Y317801D01*
X-52681Y317976D01*
X-52736Y318140D01*
X-52780Y318304D01*
X-52812Y318446D01*
X-52834Y318588D01*
X-52856Y318708D01*
X-52867Y318818D01*
X-52878Y318905D01*
Y318971D01*
Y319014D01*
Y319025D01*
X-52867Y319255D01*
X-52845Y319474D01*
X-52802Y319670D01*
X-52758Y319867D01*
X-52692Y320042D01*
X-52627Y320217D01*
X-52550Y320370D01*
X-52485Y320512D01*
X-52408Y320632D01*
X-52332Y320752D01*
X-52266Y320840D01*
X-52200Y320927D01*
X-52157Y320982D01*
X-52113Y321037D01*
X-52091Y321058D01*
X-52080Y321069D01*
X-51927Y321211D01*
X-51763Y321332D01*
X-51599Y321441D01*
X-51424Y321539D01*
X-51249Y321616D01*
X-51086Y321681D01*
X-50921Y321736D01*
X-50758Y321780D01*
X-50616Y321813D01*
X-50473Y321834D01*
X-50353Y321856D01*
X-50244Y321867D01*
X-50156Y321878D01*
X-50036D01*
X-49741Y321867D01*
D02*
G37*
%LPC*%
G36*
X-35691Y348593D02*
X-35712D01*
X-35909Y348571D01*
X-36073Y348528D01*
X-36226Y348462D01*
X-36346Y348386D01*
X-36456Y348309D01*
X-36521Y348243D01*
X-36576Y348200D01*
X-36587Y348178D01*
X-36652Y348090D01*
X-36707Y348003D01*
X-36794Y347795D01*
X-36849Y347566D01*
X-36893Y347347D01*
X-36915Y347140D01*
X-36926Y347052D01*
X-36937Y346976D01*
Y346910D01*
Y346866D01*
Y346833D01*
Y346823D01*
Y346659D01*
X-36926Y346516D01*
X-36904Y346374D01*
X-36882Y346243D01*
X-36827Y346025D01*
X-36762Y345850D01*
X-36696Y345708D01*
X-36641Y345609D01*
X-36598Y345555D01*
X-36587Y345533D01*
X-36456Y345402D01*
X-36314Y345303D01*
X-36182Y345227D01*
X-36051Y345183D01*
X-35942Y345150D01*
X-35844Y345139D01*
X-35789Y345128D01*
X-35767D01*
X-35647Y345139D01*
X-35537Y345150D01*
X-35341Y345216D01*
X-35166Y345303D01*
X-35024Y345413D01*
X-34904Y345522D01*
X-34816Y345609D01*
X-34772Y345675D01*
X-34751Y345686D01*
Y345697D01*
X-34663Y345872D01*
X-34598Y346068D01*
X-34554Y346276D01*
X-34521Y346473D01*
X-34499Y346659D01*
Y346746D01*
X-34488Y346812D01*
Y346877D01*
Y346921D01*
Y346943D01*
Y346954D01*
X-34499Y347249D01*
X-34543Y347500D01*
X-34598Y347708D01*
X-34663Y347883D01*
X-34718Y348014D01*
X-34772Y348112D01*
X-34816Y348167D01*
X-34827Y348189D01*
X-34969Y348320D01*
X-35111Y348418D01*
X-35264Y348495D01*
X-35406Y348538D01*
X-35527Y348571D01*
X-35625Y348582D01*
X-35691Y348593D01*
D02*
G37*
G36*
X-19405Y350386D02*
X-21154D01*
X-21252Y350375D01*
X-21493D01*
X-21591Y350364D01*
X-21656D01*
X-21689Y350353D01*
X-21700D01*
X-21831Y350320D01*
X-21951Y350276D01*
X-22050Y350233D01*
X-22126Y350178D01*
X-22192Y350123D01*
X-22247Y350091D01*
X-22268Y350058D01*
X-22279Y350047D01*
X-22345Y349959D01*
X-22400Y349850D01*
X-22433Y349752D01*
X-22465Y349653D01*
X-22476Y349566D01*
X-22487Y349500D01*
Y349457D01*
Y349435D01*
X-22476Y349315D01*
X-22465Y349205D01*
X-22433Y349107D01*
X-22411Y349020D01*
X-22378Y348954D01*
X-22345Y348910D01*
X-22334Y348877D01*
X-22323Y348866D01*
X-22258Y348790D01*
X-22192Y348724D01*
X-22050Y348626D01*
X-21995Y348593D01*
X-21941Y348571D01*
X-21908Y348550D01*
X-21897D01*
X-21842Y348538D01*
X-21755Y348517D01*
X-21667Y348506D01*
X-21569Y348495D01*
X-21339Y348484D01*
X-21110Y348473D01*
X-20891Y348462D01*
X-19405D01*
Y350386D01*
D02*
G37*
G36*
X-42019Y348528D02*
X-42074D01*
X-42281Y348506D01*
X-42467Y348462D01*
X-42620Y348386D01*
X-42762Y348309D01*
X-42872Y348233D01*
X-42959Y348156D01*
X-43003Y348112D01*
X-43025Y348090D01*
X-43156Y347916D01*
X-43254Y347708D01*
X-43320Y347500D01*
X-43374Y347304D01*
X-43396Y347129D01*
X-43407Y347041D01*
Y346976D01*
X-43418Y346921D01*
Y346877D01*
Y346855D01*
Y346844D01*
X-43396Y346560D01*
X-43352Y346298D01*
X-43298Y346090D01*
X-43221Y345904D01*
X-43145Y345773D01*
X-43090Y345664D01*
X-43046Y345609D01*
X-43025Y345587D01*
X-42872Y345445D01*
X-42718Y345336D01*
X-42555Y345270D01*
X-42402Y345216D01*
X-42270Y345183D01*
X-42172Y345172D01*
X-42128Y345161D01*
X-42074D01*
X-41866Y345183D01*
X-41680Y345227D01*
X-41516Y345292D01*
X-41385Y345380D01*
X-41265Y345456D01*
X-41177Y345522D01*
X-41134Y345566D01*
X-41112Y345587D01*
X-40981Y345762D01*
X-40893Y345970D01*
X-40828Y346178D01*
X-40773Y346385D01*
X-40751Y346560D01*
X-40740Y346637D01*
Y346713D01*
X-40729Y346768D01*
Y346812D01*
Y346833D01*
Y346844D01*
X-40751Y347129D01*
X-40795Y347380D01*
X-40850Y347599D01*
X-40926Y347773D01*
X-40992Y347905D01*
X-41057Y348014D01*
X-41101Y348069D01*
X-41112Y348090D01*
X-41265Y348233D01*
X-41429Y348342D01*
X-41593Y348418D01*
X-41746Y348473D01*
X-41877Y348506D01*
X-41975Y348517D01*
X-42019Y348528D01*
D02*
G37*
G36*
X-62573Y339233D02*
X-62649D01*
X-62813Y339222D01*
X-62955Y339178D01*
X-63087Y339123D01*
X-63196Y339069D01*
X-63283Y339003D01*
X-63349Y338948D01*
X-63393Y338905D01*
X-63404Y338894D01*
X-63502Y338763D01*
X-63589Y338610D01*
X-63644Y338446D01*
X-63688Y338293D01*
X-63710Y338162D01*
X-63721Y338041D01*
X-63731Y337998D01*
Y337976D01*
Y337954D01*
Y337943D01*
X-61567D01*
X-61578Y338151D01*
X-61611Y338336D01*
X-61655Y338500D01*
X-61720Y338632D01*
X-61775Y338741D01*
X-61830Y338817D01*
X-61862Y338872D01*
X-61873Y338883D01*
X-61994Y339003D01*
X-62125Y339091D01*
X-62256Y339145D01*
X-62376Y339189D01*
X-62485Y339211D01*
X-62573Y339233D01*
D02*
G37*
G36*
X1083Y339167D02*
X1029D01*
X821Y339145D01*
X635Y339102D01*
X482Y339025D01*
X340Y338949D01*
X231Y338872D01*
X143Y338795D01*
X100Y338752D01*
X78Y338730D01*
X-53Y338555D01*
X-152Y338347D01*
X-217Y338140D01*
X-272Y337943D01*
X-294Y337768D01*
X-305Y337681D01*
Y337615D01*
X-316Y337560D01*
Y337517D01*
Y337495D01*
Y337484D01*
X-294Y337200D01*
X-250Y336937D01*
X-195Y336730D01*
X-119Y336544D01*
X-42Y336413D01*
X12Y336303D01*
X56Y336249D01*
X78Y336227D01*
X231Y336085D01*
X384Y335976D01*
X548Y335910D01*
X701Y335855D01*
X832Y335823D01*
X930Y335812D01*
X974Y335801D01*
X1029D01*
X1236Y335823D01*
X1422Y335866D01*
X1586Y335932D01*
X1717Y336019D01*
X1838Y336096D01*
X1925Y336161D01*
X1969Y336205D01*
X1991Y336227D01*
X2122Y336402D01*
X2209Y336610D01*
X2275Y336817D01*
X2329Y337025D01*
X2351Y337200D01*
X2362Y337276D01*
Y337353D01*
X2373Y337407D01*
Y337451D01*
Y337473D01*
Y337484D01*
X2351Y337768D01*
X2308Y338019D01*
X2253Y338238D01*
X2176Y338413D01*
X2111Y338544D01*
X2045Y338653D01*
X2001Y338708D01*
X1991Y338730D01*
X1838Y338872D01*
X1674Y338981D01*
X1510Y339058D01*
X1357Y339112D01*
X1225Y339145D01*
X1127Y339156D01*
X1083Y339167D01*
D02*
G37*
G36*
X-8896D02*
X-8950D01*
X-9158Y339145D01*
X-9344Y339102D01*
X-9497Y339025D01*
X-9639Y338949D01*
X-9748Y338872D01*
X-9836Y338795D01*
X-9879Y338752D01*
X-9901Y338730D01*
X-10032Y338555D01*
X-10131Y338347D01*
X-10196Y338140D01*
X-10251Y337943D01*
X-10273Y337768D01*
X-10284Y337681D01*
Y337615D01*
X-10295Y337560D01*
Y337517D01*
Y337495D01*
Y337484D01*
X-10273Y337200D01*
X-10229Y336937D01*
X-10175Y336730D01*
X-10098Y336544D01*
X-10022Y336413D01*
X-9967Y336303D01*
X-9923Y336249D01*
X-9901Y336227D01*
X-9748Y336085D01*
X-9595Y335976D01*
X-9431Y335910D01*
X-9278Y335855D01*
X-9147Y335823D01*
X-9049Y335812D01*
X-9005Y335801D01*
X-8950D01*
X-8743Y335823D01*
X-8557Y335866D01*
X-8393Y335932D01*
X-8262Y336019D01*
X-8141Y336096D01*
X-8054Y336161D01*
X-8010Y336205D01*
X-7988Y336227D01*
X-7857Y336402D01*
X-7770Y336610D01*
X-7704Y336817D01*
X-7650Y337025D01*
X-7628Y337200D01*
X-7617Y337276D01*
Y337353D01*
X-7606Y337407D01*
Y337451D01*
Y337473D01*
Y337484D01*
X-7628Y337768D01*
X-7671Y338019D01*
X-7726Y338238D01*
X-7803Y338413D01*
X-7868Y338544D01*
X-7934Y338653D01*
X-7977Y338708D01*
X-7988Y338730D01*
X-8141Y338872D01*
X-8305Y338981D01*
X-8469Y339058D01*
X-8622Y339112D01*
X-8754Y339145D01*
X-8852Y339156D01*
X-8896Y339167D01*
D02*
G37*
G36*
X-30034D02*
X-30089D01*
X-30297Y339145D01*
X-30482Y339102D01*
X-30635Y339025D01*
X-30777Y338949D01*
X-30887Y338872D01*
X-30974Y338795D01*
X-31018Y338752D01*
X-31040Y338730D01*
X-31171Y338555D01*
X-31269Y338347D01*
X-31335Y338140D01*
X-31390Y337943D01*
X-31411Y337768D01*
X-31422Y337681D01*
Y337615D01*
X-31433Y337560D01*
Y337517D01*
Y337495D01*
Y337484D01*
X-31411Y337200D01*
X-31368Y336937D01*
X-31313Y336730D01*
X-31237Y336544D01*
X-31160Y336413D01*
X-31105Y336303D01*
X-31062Y336249D01*
X-31040Y336227D01*
X-30887Y336085D01*
X-30734Y335976D01*
X-30570Y335910D01*
X-30417Y335855D01*
X-30286Y335823D01*
X-30187Y335812D01*
X-30144Y335801D01*
X-30089D01*
X-29881Y335823D01*
X-29695Y335866D01*
X-29531Y335932D01*
X-29400Y336019D01*
X-29280Y336096D01*
X-29193Y336161D01*
X-29149Y336205D01*
X-29127Y336227D01*
X-28996Y336402D01*
X-28909Y336610D01*
X-28843Y336817D01*
X-28788Y337025D01*
X-28766Y337200D01*
X-28756Y337276D01*
Y337353D01*
X-28745Y337407D01*
Y337451D01*
Y337473D01*
Y337484D01*
X-28766Y337768D01*
X-28810Y338019D01*
X-28865Y338238D01*
X-28941Y338413D01*
X-29007Y338544D01*
X-29072Y338653D01*
X-29116Y338708D01*
X-29127Y338730D01*
X-29280Y338872D01*
X-29444Y338981D01*
X-29608Y339058D01*
X-29761Y339112D01*
X-29892Y339145D01*
X-29991Y339156D01*
X-30034Y339167D01*
D02*
G37*
G36*
X-50583Y339167D02*
X-50637D01*
X-50845Y339145D01*
X-51031Y339102D01*
X-51184Y339025D01*
X-51326Y338948D01*
X-51435Y338872D01*
X-51523Y338795D01*
X-51566Y338752D01*
X-51588Y338730D01*
X-51719Y338555D01*
X-51818Y338347D01*
X-51883Y338140D01*
X-51938Y337943D01*
X-51960Y337768D01*
X-51971Y337681D01*
Y337615D01*
X-51982Y337560D01*
Y337517D01*
Y337495D01*
Y337484D01*
X-51960Y337200D01*
X-51916Y336937D01*
X-51862Y336730D01*
X-51785Y336544D01*
X-51709Y336413D01*
X-51654Y336303D01*
X-51610Y336249D01*
X-51588Y336227D01*
X-51435Y336085D01*
X-51282Y335976D01*
X-51118Y335910D01*
X-50965Y335855D01*
X-50834Y335823D01*
X-50736Y335812D01*
X-50692Y335801D01*
X-50637D01*
X-50430Y335823D01*
X-50244Y335866D01*
X-50080Y335932D01*
X-49949Y336019D01*
X-49828Y336096D01*
X-49741Y336161D01*
X-49697Y336205D01*
X-49676Y336227D01*
X-49544Y336402D01*
X-49457Y336610D01*
X-49391Y336817D01*
X-49337Y337025D01*
X-49315Y337200D01*
X-49304Y337276D01*
Y337353D01*
X-49293Y337407D01*
Y337451D01*
Y337473D01*
Y337484D01*
X-49315Y337768D01*
X-49358Y338019D01*
X-49413Y338238D01*
X-49490Y338413D01*
X-49555Y338544D01*
X-49621Y338653D01*
X-49665Y338708D01*
X-49676Y338730D01*
X-49828Y338872D01*
X-49992Y338981D01*
X-50156Y339058D01*
X-50309Y339112D01*
X-50441Y339145D01*
X-50539Y339156D01*
X-50583Y339167D01*
D02*
G37*
G36*
X-18815Y331894D02*
X-18858D01*
X-18957Y331883D01*
X-19044Y331873D01*
X-19121Y331840D01*
X-19186Y331807D01*
X-19241Y331774D01*
X-19285Y331752D01*
X-19307Y331730D01*
X-19317Y331719D01*
X-19383Y331643D01*
X-19449Y331545D01*
X-19503Y331435D01*
X-19558Y331326D01*
X-19591Y331217D01*
X-19623Y331129D01*
X-19634Y331075D01*
X-19645Y331064D01*
Y331053D01*
X-19667Y330954D01*
X-19689Y330834D01*
X-19711Y330692D01*
X-19733Y330550D01*
X-19755Y330255D01*
X-19766Y329949D01*
X-19776Y329807D01*
Y329665D01*
X-19787Y329544D01*
Y329435D01*
Y329348D01*
Y329271D01*
Y329227D01*
Y329217D01*
Y328976D01*
X-19776Y328747D01*
Y328539D01*
X-19766Y328353D01*
X-19755Y328178D01*
X-19744Y328025D01*
X-19722Y327883D01*
X-19711Y327763D01*
X-19700Y327654D01*
X-19678Y327566D01*
X-19667Y327490D01*
X-19656Y327424D01*
X-19645Y327380D01*
Y327337D01*
X-19634Y327326D01*
Y327315D01*
X-19591Y327162D01*
X-19536Y327041D01*
X-19481Y326932D01*
X-19438Y326856D01*
X-19394Y326790D01*
X-19350Y326746D01*
X-19328Y326724D01*
X-19317Y326713D01*
X-19241Y326659D01*
X-19164Y326615D01*
X-19088Y326593D01*
X-19011Y326571D01*
X-18957Y326560D01*
X-18902Y326550D01*
X-18858D01*
X-18760Y326560D01*
X-18673Y326571D01*
X-18596Y326604D01*
X-18530Y326637D01*
X-18476Y326659D01*
X-18432Y326692D01*
X-18410Y326703D01*
X-18399Y326713D01*
X-18334Y326790D01*
X-18268Y326888D01*
X-18214Y326998D01*
X-18159Y327107D01*
X-18126Y327205D01*
X-18093Y327293D01*
X-18082Y327347D01*
X-18071Y327369D01*
X-18049Y327479D01*
X-18028Y327599D01*
X-18006Y327730D01*
X-17995Y327872D01*
X-17973Y328178D01*
X-17962Y328484D01*
X-17951Y328626D01*
Y328768D01*
X-17940Y328889D01*
Y328998D01*
Y329085D01*
Y329162D01*
Y329206D01*
Y329217D01*
Y329457D01*
X-17951Y329686D01*
Y329883D01*
X-17962Y330080D01*
X-17973Y330244D01*
X-17984Y330408D01*
X-17995Y330539D01*
X-18017Y330670D01*
X-18028Y330780D01*
X-18039Y330867D01*
X-18049Y330943D01*
X-18060Y331009D01*
X-18071Y331053D01*
Y331097D01*
X-18082Y331107D01*
Y331118D01*
X-18126Y331271D01*
X-18181Y331402D01*
X-18224Y331501D01*
X-18279Y331588D01*
X-18323Y331643D01*
X-18356Y331687D01*
X-18377Y331709D01*
X-18388Y331719D01*
X-18465Y331774D01*
X-18552Y331818D01*
X-18629Y331851D01*
X-18705Y331873D01*
X-18760Y331883D01*
X-18815Y331894D01*
D02*
G37*
G36*
X-30575D02*
X-30619D01*
X-30717Y331883D01*
X-30805Y331873D01*
X-30881Y331840D01*
X-30947Y331807D01*
X-31002Y331774D01*
X-31045Y331752D01*
X-31067Y331730D01*
X-31078Y331719D01*
X-31144Y331643D01*
X-31209Y331545D01*
X-31264Y331435D01*
X-31319Y331326D01*
X-31351Y331217D01*
X-31384Y331129D01*
X-31395Y331075D01*
X-31406Y331064D01*
Y331053D01*
X-31428Y330954D01*
X-31450Y330834D01*
X-31472Y330692D01*
X-31493Y330550D01*
X-31515Y330255D01*
X-31526Y329949D01*
X-31537Y329807D01*
Y329665D01*
X-31548Y329544D01*
Y329435D01*
Y329348D01*
Y329271D01*
Y329227D01*
Y329217D01*
Y328976D01*
X-31537Y328747D01*
Y328539D01*
X-31526Y328353D01*
X-31515Y328178D01*
X-31504Y328025D01*
X-31482Y327883D01*
X-31472Y327763D01*
X-31461Y327654D01*
X-31439Y327566D01*
X-31428Y327490D01*
X-31417Y327424D01*
X-31406Y327380D01*
Y327337D01*
X-31395Y327326D01*
Y327315D01*
X-31351Y327162D01*
X-31297Y327041D01*
X-31242Y326932D01*
X-31198Y326856D01*
X-31155Y326790D01*
X-31111Y326746D01*
X-31089Y326724D01*
X-31078Y326713D01*
X-31002Y326659D01*
X-30925Y326615D01*
X-30849Y326593D01*
X-30772Y326571D01*
X-30717Y326560D01*
X-30663Y326550D01*
X-30619D01*
X-30521Y326560D01*
X-30433Y326571D01*
X-30357Y326604D01*
X-30291Y326637D01*
X-30237Y326659D01*
X-30193Y326692D01*
X-30171Y326703D01*
X-30160Y326713D01*
X-30094Y326790D01*
X-30029Y326888D01*
X-29974Y326998D01*
X-29919Y327107D01*
X-29887Y327205D01*
X-29854Y327293D01*
X-29843Y327347D01*
X-29832Y327369D01*
X-29810Y327479D01*
X-29788Y327599D01*
X-29766Y327730D01*
X-29756Y327872D01*
X-29734Y328178D01*
X-29723Y328484D01*
X-29712Y328626D01*
Y328768D01*
X-29701Y328889D01*
Y328998D01*
Y329085D01*
Y329162D01*
Y329206D01*
Y329217D01*
Y329457D01*
X-29712Y329686D01*
Y329883D01*
X-29723Y330080D01*
X-29734Y330244D01*
X-29745Y330408D01*
X-29756Y330539D01*
X-29777Y330670D01*
X-29788Y330780D01*
X-29799Y330867D01*
X-29810Y330943D01*
X-29821Y331009D01*
X-29832Y331053D01*
Y331097D01*
X-29843Y331107D01*
Y331118D01*
X-29887Y331271D01*
X-29941Y331402D01*
X-29985Y331501D01*
X-30040Y331588D01*
X-30084Y331643D01*
X-30116Y331687D01*
X-30138Y331709D01*
X-30149Y331719D01*
X-30226Y331774D01*
X-30313Y331818D01*
X-30389Y331851D01*
X-30466Y331873D01*
X-30521Y331883D01*
X-30575Y331894D01*
D02*
G37*
G36*
X-21924Y320763D02*
X-21946D01*
X-22143Y320741D01*
X-22307Y320698D01*
X-22460Y320632D01*
X-22580Y320556D01*
X-22689Y320479D01*
X-22755Y320413D01*
X-22809Y320370D01*
X-22820Y320348D01*
X-22886Y320260D01*
X-22941Y320173D01*
X-23028Y319965D01*
X-23083Y319736D01*
X-23126Y319517D01*
X-23148Y319309D01*
X-23159Y319222D01*
X-23170Y319146D01*
Y319080D01*
Y319036D01*
Y319004D01*
Y318993D01*
Y318829D01*
X-23159Y318687D01*
X-23137Y318544D01*
X-23116Y318413D01*
X-23061Y318195D01*
X-22995Y318020D01*
X-22930Y317878D01*
X-22875Y317779D01*
X-22831Y317725D01*
X-22820Y317703D01*
X-22689Y317572D01*
X-22547Y317473D01*
X-22416Y317397D01*
X-22285Y317353D01*
X-22176Y317320D01*
X-22077Y317309D01*
X-22023Y317298D01*
X-22001D01*
X-21881Y317309D01*
X-21771Y317320D01*
X-21575Y317386D01*
X-21400Y317473D01*
X-21258Y317583D01*
X-21137Y317692D01*
X-21050Y317779D01*
X-21006Y317845D01*
X-20984Y317856D01*
Y317867D01*
X-20897Y318042D01*
X-20831Y318238D01*
X-20787Y318446D01*
X-20755Y318643D01*
X-20733Y318829D01*
Y318916D01*
X-20722Y318982D01*
Y319047D01*
Y319091D01*
Y319113D01*
Y319124D01*
X-20733Y319419D01*
X-20777Y319670D01*
X-20831Y319878D01*
X-20897Y320053D01*
X-20951Y320184D01*
X-21006Y320282D01*
X-21050Y320337D01*
X-21061Y320359D01*
X-21203Y320490D01*
X-21345Y320588D01*
X-21498Y320665D01*
X-21640Y320709D01*
X-21760Y320741D01*
X-21859Y320752D01*
X-21924Y320763D01*
D02*
G37*
G36*
X-60453Y320763D02*
X-60474D01*
X-60671Y320741D01*
X-60835Y320698D01*
X-60988Y320632D01*
X-61119Y320555D01*
X-61218Y320479D01*
X-61294Y320413D01*
X-61349Y320370D01*
X-61360Y320348D01*
X-61480Y320173D01*
X-61567Y319976D01*
X-61622Y319769D01*
X-61666Y319561D01*
X-61688Y319375D01*
X-61699Y319288D01*
X-61709Y319222D01*
Y319157D01*
Y319113D01*
Y319091D01*
Y319080D01*
X-61699Y318796D01*
X-61655Y318544D01*
X-61589Y318337D01*
X-61524Y318162D01*
X-61458Y318031D01*
X-61392Y317932D01*
X-61349Y317878D01*
X-61338Y317856D01*
X-61196Y317714D01*
X-61043Y317615D01*
X-60901Y317539D01*
X-60759Y317495D01*
X-60627Y317462D01*
X-60529Y317451D01*
X-60463Y317441D01*
X-60441D01*
X-60267Y317462D01*
X-60103Y317506D01*
X-59961Y317572D01*
X-59840Y317648D01*
X-59742Y317714D01*
X-59676Y317779D01*
X-59622Y317823D01*
X-59611Y317845D01*
X-59502Y318020D01*
X-59425Y318216D01*
X-59360Y318424D01*
X-59327Y318632D01*
X-59305Y318818D01*
X-59294Y318905D01*
Y318971D01*
X-59283Y319025D01*
Y319080D01*
Y319102D01*
Y319113D01*
X-59294Y319408D01*
X-59338Y319659D01*
X-59392Y319867D01*
X-59447Y320042D01*
X-59513Y320173D01*
X-59556Y320271D01*
X-59600Y320326D01*
X-59611Y320348D01*
X-59742Y320490D01*
X-59884Y320588D01*
X-60037Y320665D01*
X-60168Y320709D01*
X-60289Y320741D01*
X-60387Y320752D01*
X-60453Y320763D01*
D02*
G37*
G36*
X-28253Y320698D02*
X-28307D01*
X-28515Y320676D01*
X-28701Y320632D01*
X-28854Y320556D01*
X-28996Y320479D01*
X-29105Y320403D01*
X-29193Y320326D01*
X-29236Y320282D01*
X-29258Y320260D01*
X-29389Y320086D01*
X-29488Y319878D01*
X-29553Y319670D01*
X-29608Y319474D01*
X-29630Y319299D01*
X-29641Y319211D01*
Y319146D01*
X-29652Y319091D01*
Y319047D01*
Y319025D01*
Y319014D01*
X-29630Y318730D01*
X-29586Y318468D01*
X-29531Y318260D01*
X-29455Y318074D01*
X-29379Y317943D01*
X-29324Y317834D01*
X-29280Y317779D01*
X-29258Y317758D01*
X-29105Y317615D01*
X-28952Y317506D01*
X-28788Y317441D01*
X-28635Y317386D01*
X-28504Y317353D01*
X-28406Y317342D01*
X-28362Y317331D01*
X-28307D01*
X-28100Y317353D01*
X-27914Y317397D01*
X-27750Y317462D01*
X-27619Y317550D01*
X-27498Y317626D01*
X-27411Y317692D01*
X-27367Y317736D01*
X-27345Y317758D01*
X-27214Y317932D01*
X-27127Y318140D01*
X-27061Y318348D01*
X-27007Y318555D01*
X-26985Y318730D01*
X-26974Y318807D01*
Y318883D01*
X-26963Y318938D01*
Y318982D01*
Y319004D01*
Y319014D01*
X-26985Y319299D01*
X-27029Y319550D01*
X-27083Y319769D01*
X-27160Y319943D01*
X-27225Y320075D01*
X-27291Y320184D01*
X-27335Y320239D01*
X-27345Y320260D01*
X-27498Y320403D01*
X-27663Y320512D01*
X-27826Y320588D01*
X-27979Y320643D01*
X-28111Y320676D01*
X-28209Y320687D01*
X-28253Y320698D01*
D02*
G37*
G36*
X-49992Y320698D02*
X-50047D01*
X-50255Y320676D01*
X-50441Y320632D01*
X-50594Y320555D01*
X-50736Y320479D01*
X-50845Y320403D01*
X-50932Y320326D01*
X-50976Y320282D01*
X-50998Y320260D01*
X-51129Y320086D01*
X-51227Y319878D01*
X-51293Y319670D01*
X-51348Y319474D01*
X-51370Y319299D01*
X-51381Y319211D01*
Y319146D01*
X-51392Y319091D01*
Y319047D01*
Y319025D01*
Y319014D01*
X-51370Y318730D01*
X-51326Y318468D01*
X-51271Y318260D01*
X-51195Y318074D01*
X-51118Y317943D01*
X-51064Y317834D01*
X-51020Y317779D01*
X-50998Y317758D01*
X-50845Y317615D01*
X-50692Y317506D01*
X-50528Y317441D01*
X-50375Y317386D01*
X-50244Y317353D01*
X-50146Y317342D01*
X-50102Y317331D01*
X-50047D01*
X-49839Y317353D01*
X-49654Y317397D01*
X-49490Y317462D01*
X-49358Y317550D01*
X-49238Y317626D01*
X-49151Y317692D01*
X-49107Y317736D01*
X-49085Y317758D01*
X-48954Y317932D01*
X-48867Y318140D01*
X-48801Y318348D01*
X-48746Y318555D01*
X-48725Y318730D01*
X-48714Y318807D01*
Y318883D01*
X-48703Y318938D01*
Y318982D01*
Y319004D01*
Y319014D01*
X-48725Y319299D01*
X-48768Y319550D01*
X-48823Y319769D01*
X-48899Y319943D01*
X-48965Y320075D01*
X-49031Y320184D01*
X-49074Y320239D01*
X-49085Y320260D01*
X-49238Y320403D01*
X-49402Y320512D01*
X-49566Y320588D01*
X-49719Y320643D01*
X-49850Y320676D01*
X-49949Y320687D01*
X-49992Y320698D01*
D02*
G37*
%LPD*%
D15*
X126000Y354006D02*
Y349284D01*
X123639D01*
X122851Y350071D01*
Y353219D01*
X123639Y354006D01*
X126000D01*
X118916Y349284D02*
X120490D01*
X121277Y350071D01*
Y351645D01*
X120490Y352432D01*
X118916D01*
X118129Y351645D01*
Y350858D01*
X121277D01*
X116554Y349284D02*
X114193D01*
X113406Y350071D01*
X114193Y350858D01*
X115767D01*
X116554Y351645D01*
X115767Y352432D01*
X113406D01*
X111831Y349284D02*
X110257D01*
X111044D01*
Y352432D01*
X111831D01*
X106321Y347709D02*
X105534D01*
X104747Y348496D01*
Y352432D01*
X107108D01*
X107896Y351645D01*
Y350071D01*
X107108Y349284D01*
X104747D01*
X103173D02*
Y352432D01*
X100811D01*
X100024Y351645D01*
Y349284D01*
X93727Y354006D02*
X90578D01*
X92153D01*
Y349284D01*
X86643D02*
X88217D01*
X89004Y350071D01*
Y351645D01*
X88217Y352432D01*
X86643D01*
X85856Y351645D01*
Y350858D01*
X89004D01*
X83494Y352432D02*
X81920D01*
X81133Y351645D01*
Y349284D01*
X83494D01*
X84281Y350071D01*
X83494Y350858D01*
X81133D01*
X79558Y349284D02*
Y352432D01*
X78771D01*
X77984Y351645D01*
Y349284D01*
Y351645D01*
X77197Y352432D01*
X76410Y351645D01*
Y349284D01*
X74835Y352432D02*
X74048D01*
Y351645D01*
X74835D01*
Y352432D01*
Y350071D02*
X74048D01*
Y349284D01*
X74835D01*
Y350071D01*
X126000Y342003D02*
X122851D01*
X116554Y344365D02*
Y339642D01*
X114193D01*
X113406Y340429D01*
Y341216D01*
X114193Y342003D01*
X116554D01*
X114193D01*
X113406Y342790D01*
Y343578D01*
X114193Y344365D01*
X116554D01*
X109470Y339642D02*
X111044D01*
X111831Y340429D01*
Y342003D01*
X111044Y342790D01*
X109470D01*
X108683Y342003D01*
Y341216D01*
X111831D01*
X107108Y339642D02*
Y342790D01*
X104747D01*
X103960Y342003D01*
Y339642D01*
X94514Y343578D02*
X95301Y344365D01*
X96876D01*
X97663Y343578D01*
Y342790D01*
X96876Y342003D01*
X95301D01*
X94514Y341216D01*
Y340429D01*
X95301Y339642D01*
X96876D01*
X97663Y340429D01*
X89791Y342790D02*
X92153D01*
X92940Y342003D01*
Y340429D01*
X92153Y339642D01*
X89791D01*
X88217Y344365D02*
Y339642D01*
Y342003D01*
X87430Y342790D01*
X85856D01*
X85068Y342003D01*
Y339642D01*
X82707D02*
X81133D01*
X80345Y340429D01*
Y342003D01*
X81133Y342790D01*
X82707D01*
X83494Y342003D01*
Y340429D01*
X82707Y339642D01*
X78771D02*
X77197D01*
X77984D01*
Y344365D01*
X78771D01*
X74048Y342790D02*
X72474D01*
X71687Y342003D01*
Y339642D01*
X74048D01*
X74835Y340429D01*
X74048Y341216D01*
X71687D01*
X70113Y342790D02*
Y339642D01*
Y341216D01*
X69325Y342003D01*
X68538Y342790D01*
X67751D01*
X126000Y333936D02*
X122851D01*
X116554Y331574D02*
Y334723D01*
X114980Y336297D01*
X113406Y334723D01*
Y331574D01*
Y333936D01*
X116554D01*
X108683Y336297D02*
Y331574D01*
X111044D01*
X111831Y332361D01*
Y333936D01*
X111044Y334723D01*
X108683D01*
X106321D02*
X104747D01*
X103960Y333936D01*
Y331574D01*
X106321D01*
X107108Y332361D01*
X106321Y333149D01*
X103960D01*
X102386Y331574D02*
Y334723D01*
X101599D01*
X100811Y333936D01*
Y331574D01*
Y333936D01*
X100024Y334723D01*
X99237Y333936D01*
Y331574D01*
X89791Y335510D02*
X90578Y336297D01*
X92153D01*
X92940Y335510D01*
Y332361D01*
X92153Y331574D01*
X90578D01*
X89791Y332361D01*
X87430Y331574D02*
X85856D01*
X85068Y332361D01*
Y333936D01*
X85856Y334723D01*
X87430D01*
X88217Y333936D01*
Y332361D01*
X87430Y331574D01*
X83494Y334723D02*
Y331574D01*
Y333149D01*
X82707Y333936D01*
X81920Y334723D01*
X81133D01*
X75623Y336297D02*
Y331574D01*
X77984D01*
X78771Y332361D01*
Y333936D01*
X77984Y334723D01*
X75623D01*
X74048Y331574D02*
X72474D01*
X73261D01*
Y334723D01*
X74048D01*
X70113Y331574D02*
Y334723D01*
X67751D01*
X66964Y333936D01*
Y331574D01*
X63815Y330000D02*
X63028D01*
X62241Y330787D01*
Y334723D01*
X64603D01*
X65390Y333936D01*
Y332361D01*
X64603Y331574D01*
X62241D01*
X60667D02*
X59092D01*
X59880D01*
Y336297D01*
X60667D01*
X54370Y331574D02*
X55944D01*
X56731Y332361D01*
Y333936D01*
X55944Y334723D01*
X54370D01*
X53583Y333936D01*
Y333149D01*
X56731D01*
X52008Y334723D02*
Y332361D01*
X51221Y331574D01*
X48860D01*
Y330787D01*
X49647Y330000D01*
X50434D01*
X48860Y331574D02*
Y334723D01*
M02*
